<?xml version="1.0" encoding="utf-8"?>
<!-- Generator: Adobe Illustrator 16.0.0, SVG Export Plug-In . SVG Version: 6.00 Build 0)  -->
<!DOCTYPE svg PUBLIC "-//W3C//DTD SVG 1.1//EN" "http://www.w3.org/Graphics/SVG/1.1/DTD/svg11.dtd">
<svg version="1.1" id="圖層_1" xmlns="http://www.w3.org/2000/svg" xmlns:xlink="http://www.w3.org/1999/xlink" x="0px" y="0px"
	 width="800px" height="500px" viewBox="0 0 800 500" enable-background="new 0 0 800 500" xml:space="preserve">
<rect fill="#E6E7E8" width="800" height="500"/>
<rect x="176" fill="#F1F2F2" width="147.982" height="500"/>
<rect x="474.982" fill="#F1F2F2" width="147.982" height="500"/>
<g>
	<g>
		<path fill="#3DB39E" d="M84.258,192.04c-35.152,0-63.648,28.496-63.648,63.647c0,35.15,28.496,63.647,63.648,63.647
			c35.151,0,63.647-28.497,63.647-63.647C147.905,220.536,119.409,192.04,84.258,192.04z"/>
		<path fill="#EFC75E" d="M45.091,270.457l3.412-33.794c-0.002-0.279-0.077-1.876-1.563-1.933c-0.636-0.024-1.131-0.561-1.107-1.197
			c0.024-0.639,0.562-1.136,1.194-1.113c2.047,0.079,3.125,1.447,3.553,2.828l25.355-7.536c0.544-0.149,1.117,0.121,1.352,0.639
			c0.141,0.313,15.485,31.351,43.981,31.351c5.005,0,9.442,4.71,10.029,8.841l0.009,0.036l0.001,0.02l0.023,0.126
			c0.206,1.789-0.338,4.211-1.482,5.772c-28.141-0.062-62.409,0.443-85.054,0.238l0.299-4.266L45.091,270.457L45.091,270.457z"/>
		<path fill="#EBEDEE" d="M63.893,239.148c-4.921,0-8.911,3.983-8.911,8.897c0,4.913,3.99,8.896,8.911,8.896
			c4.92,0,8.911-3.983,8.911-8.896C72.804,243.132,68.813,239.148,63.893,239.148z"/>
		<path fill="#C6584E" d="M58.853,246.747c0.088-0.261,0.313-0.454,0.584-0.497l2.643-0.408l1.148-2.473
			c0.121-0.259,0.379-0.425,0.663-0.425s0.542,0.166,0.663,0.425l1.148,2.473l2.642,0.408c0.272,0.042,0.498,0.236,0.584,0.497
			c0.088,0.264,0.021,0.556-0.17,0.753l-1.937,2.004l0.452,2.781c0.043,0.28-0.073,0.563-0.301,0.726
			c-0.126,0.09-0.274,0.135-0.422,0.135c-0.122,0-0.243-0.032-0.355-0.094l-2.303-1.285l-2.304,1.285
			c-0.111,0.061-0.233,0.094-0.354,0.094c-0.15,0-0.295-0.047-0.422-0.135c-0.229-0.163-0.346-0.446-0.301-0.726l0.449-2.781
			l-1.937-2.004C58.832,247.302,58.767,247.011,58.853,246.747z"/>
		<path fill="#DCB757" d="M47.546,274.753l3.829-39.741l-0.795,0.238c-0.428-1.381-1.506-2.75-3.553-2.829
			c-0.631-0.023-1.168,0.476-1.194,1.113c-0.025,0.637,0.473,1.173,1.106,1.198c1.485,0.056,1.561,1.651,1.563,1.932l-3.412,33.795
			l0.001,0.012l-0.299,4.267L47.546,274.753z"/>
		<path fill="#F1CD6E" d="M130.388,265.817c-1.649-3.233-5.207-6.116-9.12-6.116c-28.496,0-43.84-31.037-43.982-31.351
			c-0.234-0.518-0.807-0.788-1.352-0.639l-3.399,1.012C81.968,249.912,104.208,264.997,130.388,265.817z"/>
		<path fill="#FEFEFC" d="M87.592,239.624c-0.639-0.635-1.673-0.635-2.312,0l-3.083,3.062c-0.639,0.634-0.639,1.663,0,2.295
			c0.638,0.635,1.673,0.635,2.313,0l3.083-3.062C88.23,241.286,88.23,240.258,87.592,239.624z M92.684,244.716
			c-0.639-0.635-1.673-0.635-2.312,0l-3.083,3.062c-0.639,0.635-0.639,1.662,0,2.294c0.637,0.636,1.672,0.636,2.312,0l3.083-3.061
			C93.322,246.378,93.322,245.35,92.684,244.716z M97.775,249.808c-0.639-0.634-1.673-0.634-2.313,0l-3.083,3.062
			c-0.639,0.635-0.639,1.661,0,2.295c0.637,0.635,1.672,0.635,2.312,0l3.083-3.062C98.415,251.469,98.415,250.441,97.775,249.808z"
			/>
		<path fill="#EBEDEE" d="M131.33,268.724l-0.023-0.126l-0.001-0.02l-0.009-0.036c-0.588-4.131-5.024-8.841-10.029-8.841
			c-3.514,0-6.823-0.475-9.933-1.303c-2.113,3.083-3.395,7.069-3.395,11.435c0,1.63,0.192,3.202,0.526,4.7
			c7.318-0.033,14.531-0.054,21.381-0.037C130.993,272.935,131.536,270.513,131.33,268.724z"/>
		<path fill="#3E4E5C" d="M108.895,269.833c0-4.31,1.313-8.229,3.449-11.195c-0.663-0.158-1.315-0.331-1.961-0.519
			c-2.121,3.203-3.398,7.276-3.398,11.714c0,1.627,0.189,3.2,0.511,4.704l1.941-0.008
			C109.091,273.037,108.895,271.465,108.895,269.833z"/>
		<path fill="#D7B354" d="M130.428,273.516c0.391-0.786,0.671-1.672,0.819-2.556H45.06l-0.18,2.556H130.428z"/>
		<path fill="#CFAC51" d="M47.911,270.96H45.06l-0.093,1.311l-0.086,1.245h2.784L47.911,270.96z"/>
		<path fill="#D3D5D6" d="M108.005,270.96c0.046,0.872,0.144,1.724,0.29,2.556h22.133l0.001-0.002
			c0.193-0.392,0.36-0.808,0.498-1.234l0.005-0.019c0.134-0.425,0.239-0.859,0.313-1.293l0.002-0.009L108.005,270.96L108.005,270.96
			z"/>
		<path fill="#384653" d="M107.33,273.516h1.9c-0.15-0.83-0.254-1.683-0.302-2.556h-1.879
			C107.095,271.831,107.189,272.683,107.33,273.516z"/>
		<path fill="#FFFFFF" d="M130.533,272.219H45.62c-1.159,0-2.097,0.912-2.097,2.037v1.018c0,1.127,0.938,2.038,2.097,2.038h84.914
			c1.157,0,2.097-0.911,2.097-2.038v-1.018C132.63,273.131,131.69,272.219,130.533,272.219z"/>
		<g>
			<path fill="#E5E5E5" d="M74.097,272.219h2.507v5.092h-2.507V272.219z M67.732,272.219h2.506v5.092h-2.506V272.219z
				 M61.368,272.219h2.507v5.092h-2.507V272.219z M55.002,272.219h2.507v5.092h-2.507V272.219z M48.636,272.219h2.506v5.092h-2.506
				V272.219z M86.826,272.219h2.507v5.092h-2.507V272.219z M80.461,272.219h2.506v5.092h-2.506V272.219z M93.191,272.219h2.507
				v5.092h-2.507V272.219z M118.649,272.219h2.508v5.092h-2.508V272.219z M125.015,272.219h2.507v5.092h-2.507V272.219z
				 M112.286,272.219h2.506v5.092h-2.506V272.219z M105.92,272.219h2.507v5.092h-2.507V272.219z M99.557,272.219h2.506v5.092h-2.506
				V272.219z"/>
		</g>
		<g>
			<defs>
				<path id="SVGID_27_" d="M84.258,192.04c-35.152,0-63.648,28.496-63.648,63.647c0,35.15,28.496,63.647,63.648,63.647
					c35.151,0,63.647-28.497,63.647-63.647C147.905,220.536,119.409,192.04,84.258,192.04z"/>
			</defs>
			<clipPath id="SVGID_2_">
				<use xlink:href="#SVGID_27_"  overflow="visible"/>
			</clipPath>
			
				<line clip-path="url(#SVGID_2_)" fill="none" stroke="#FFFFFF" stroke-miterlimit="10" x1="15.982" y1="278.04" x2="159.982" y2="278.04"/>
			
				<line clip-path="url(#SVGID_2_)" fill="none" stroke="#FFFFFF" stroke-miterlimit="10" x1="15.982" y1="227.04" x2="159.982" y2="227.04"/>
			
				<line clip-path="url(#SVGID_2_)" fill="none" stroke="#FFFFFF" stroke-miterlimit="10" x1="42.982" y1="187.04" x2="42.982" y2="331.04"/>
			
				<line clip-path="url(#SVGID_2_)" fill="none" stroke="#FFFFFF" stroke-miterlimit="10" x1="63.893" y1="187.04" x2="63.893" y2="331.04"/>
			
				<line clip-path="url(#SVGID_2_)" fill="none" stroke="#FFFFFF" stroke-miterlimit="10" x1="134.982" y1="196.04" x2="134.982" y2="340.04"/>
			
				<line clip-path="url(#SVGID_2_)" fill="none" stroke="#FFFFFF" stroke-miterlimit="10" x1="14.982" y1="211.519" x2="157.982" y2="290.79"/>
			<circle clip-path="url(#SVGID_2_)" fill="none" stroke="#FFFFFF" stroke-miterlimit="10" cx="119.982" cy="220.04" r="39"/>
		</g>
	</g>
	<g>
		<path fill="#414042" d="M29.891,364.36c0,0.495-0.135,0.72-0.465,0.854c-0.33,0.12-0.9,0.136-1.95,0.12
			c-0.015-0.18-0.12-0.479-0.225-0.675c0.795,0.015,1.455,0.015,1.65,0c0.225-0.015,0.3-0.075,0.3-0.314v-4.125h-2.85
			c-0.12,1.784-0.42,3.689-1.14,5.145c-0.135-0.135-0.435-0.315-0.6-0.36c1.065-2.159,1.155-5.13,1.155-7.35v-5.324h4.125V364.36z
			 M29.201,359.53v-2.955h-2.76v1.08c0,0.57-0.015,1.215-0.045,1.875H29.201z M26.441,353.006v2.88h2.76v-2.88H26.441z
			 M37.931,357.535c-0.435,2.04-1.229,3.735-2.235,5.055c0.78,0.96,1.68,1.71,2.685,2.221c-0.165,0.135-0.375,0.375-0.495,0.555
			c-0.96-0.525-1.83-1.305-2.595-2.25c-0.765,0.885-1.605,1.575-2.49,2.085c-0.09-0.165-0.285-0.39-0.435-0.525
			c0.885-0.465,1.755-1.185,2.52-2.1c-0.93-1.29-1.65-2.835-2.16-4.5h-0.54v7.26h-0.705v-12.959h6.03v2.895
			c0,0.436-0.09,0.646-0.465,0.765c-0.39,0.12-1.095,0.12-2.22,0.12c-0.045-0.225-0.165-0.449-0.27-0.645
			c1.02,0.015,1.755,0.015,1.965,0c0.24,0,0.3-0.061,0.3-0.24v-2.22h-4.635v4.35h5.19l0.135-0.03L37.931,357.535z M33.371,358.075
			c0.45,1.455,1.095,2.82,1.92,3.976c0.795-1.11,1.44-2.445,1.845-3.976H33.371z"/>
		<path fill="#414042" d="M51.836,354.011c-0.45,1.109-1.14,2.01-1.98,2.745c1.035,0.734,2.25,1.29,3.57,1.59
			c-0.165,0.165-0.375,0.42-0.48,0.614c-1.335-0.359-2.565-0.975-3.63-1.77c-0.975,0.72-2.145,1.275-3.405,1.695
			c-0.06-0.136-0.24-0.375-0.39-0.54c-0.3,0.84-0.63,1.665-0.975,2.234l-0.54-0.285c0.375-0.659,0.765-1.68,1.035-2.609h-1.86v6.72
			c0,0.435-0.075,0.63-0.405,0.765c-0.315,0.105-0.84,0.105-1.74,0.105c-0.03-0.165-0.135-0.465-0.24-0.66
			c0.705,0.015,1.29,0.015,1.47,0.015c0.165-0.015,0.225-0.06,0.225-0.21v-5.805c-0.615,1.65-1.515,3.33-2.385,4.275
			c-0.09-0.195-0.3-0.495-0.435-0.63c0.975-0.99,1.98-2.835,2.55-4.575h-2.46v-0.675h5.565l0.105-0.03l0.48,0.165
			c-0.105,0.36-0.24,0.72-0.36,1.095c1.215-0.345,2.31-0.84,3.225-1.484c-0.735-0.646-1.35-1.38-1.815-2.19
			c-0.435,0.51-0.885,0.976-1.35,1.351c-0.12-0.136-0.405-0.346-0.6-0.45c1.185-0.9,2.25-2.25,2.865-3.735l0.705,0.195
			c-0.21,0.495-0.465,0.975-0.765,1.439h5.34v0.646H51.836z M40.961,354.19c0.525,0.226,1.095,0.525,1.62,0.84
			c0.705-0.495,1.455-1.199,1.98-1.845h-4.665v-0.645h5.205l0.12-0.045l0.495,0.314c-0.645,0.93-1.65,1.905-2.58,2.565
			c0.555,0.359,1.035,0.734,1.365,1.064l-0.479,0.555c-0.72-0.734-2.205-1.739-3.495-2.34L40.961,354.19z M52.751,360.131
			c0,0-0.03,0.255-0.03,0.39c-0.3,2.925-0.585,4.05-1.02,4.484c-0.24,0.21-0.465,0.285-0.855,0.315c-0.33,0-0.99,0.015-1.665-0.045
			c-0.015-0.195-0.09-0.495-0.195-0.69c0.705,0.061,1.365,0.075,1.605,0.075c0.255,0,0.39-0.015,0.525-0.135
			c0.315-0.315,0.585-1.29,0.84-3.72h-2.985c-0.525,1.979-1.59,3.6-4.02,4.529c-0.075-0.165-0.3-0.435-0.435-0.569
			c2.205-0.795,3.195-2.235,3.69-3.96h-2.655v-0.675h2.82c0.105-0.511,0.18-1.021,0.24-1.561h0.735
			c-0.06,0.54-0.135,1.065-0.225,1.561H52.751z M47.381,354.025c0.45,0.87,1.11,1.65,1.92,2.325c0.75-0.645,1.35-1.41,1.755-2.34
			h-3.675V354.025z"/>
		<path fill="#414042" d="M58.571,351.881c-0.255,0.75-0.555,1.62-0.81,2.265h2.61v9.6h-4.275v1.23h-0.675v-10.83h1.665
			c0.255-0.705,0.57-1.74,0.72-2.444L58.571,351.881z M59.681,354.806h-3.585v3.585h3.585V354.806z M59.681,363.07v-4.02h-3.585
			v4.02H59.681z M67.736,354.565c-0.255,6.96-0.465,9.24-1.065,9.944c-0.285,0.33-0.585,0.436-1.05,0.466
			c-0.465,0.029-1.335,0.015-2.16-0.045c-0.03-0.226-0.105-0.511-0.24-0.705c0.99,0.074,1.875,0.09,2.205,0.09
			c0.3,0,0.48-0.03,0.63-0.226c0.495-0.54,0.75-2.864,0.975-9.27h-4.2c-0.435,1.065-0.93,2.025-1.47,2.79
			c-0.12-0.104-0.435-0.285-0.615-0.39c1.05-1.365,1.83-3.45,2.295-5.58l0.705,0.165c-0.18,0.795-0.405,1.59-0.675,2.34h4.665
			V354.565z M64.811,361.255c-0.48-0.914-1.53-2.414-2.43-3.494l0.585-0.33c0.885,1.08,1.965,2.535,2.445,3.435L64.811,361.255z"/>
		<path fill="#414042" d="M71.126,357.296v8.055h-0.705v-12.915h5.265v4.86H71.126z M71.126,353.036v1.484h3.87v-1.484H71.126z
			 M74.996,356.695v-1.59h-3.87v1.59H74.996z M78.341,361.556v3.494h-0.675v-3.494h-2.52c-0.075,0.975-0.525,2.64-2.07,3.659
			c-0.12-0.135-0.345-0.345-0.51-0.449c1.44-0.886,1.845-2.295,1.92-3.21h-2.085v-0.66h2.1v-1.92h-1.8v-0.63h7.53v0.63h-1.89v1.92
			h2.25v0.66H78.341z M77.666,360.896v-1.92h-2.505v1.92H77.666z M82.616,364.24c0,0.555-0.135,0.825-0.525,0.945
			c-0.39,0.12-1.125,0.135-2.265,0.135c-0.03-0.195-0.12-0.54-0.24-0.75c0.93,0.015,1.74,0.015,1.995,0
			c0.255,0,0.33-0.09,0.33-0.315v-6.944h-4.695v-4.875h5.399V364.24z M77.906,353.036v1.484h4.005v-1.484H77.906z M81.911,356.695
			v-1.59h-4.005v1.59H81.911z"/>
		<path fill="#414042" d="M90.131,361.271c0,0-0.015,0.24-0.045,0.33c-0.21,2.13-0.375,2.984-0.75,3.3
			c-0.225,0.21-0.45,0.285-0.87,0.285c-0.36,0.029-1.17,0.015-1.98-0.03c-0.015-0.21-0.105-0.465-0.225-0.646
			c0.87,0.075,1.725,0.091,1.995,0.091c0.285,0,0.435-0.016,0.54-0.136c0.255-0.225,0.435-0.915,0.6-2.579h-3.645
			c0.165-0.841,0.375-2.115,0.495-3.09h3.165v-1.905h-2.685v-0.15c-0.615,0.33-1.23,0.601-1.845,0.795
			c-0.09-0.18-0.27-0.42-0.42-0.555c1.065-0.33,2.19-0.87,3.18-1.56c-0.435-0.495-1.17-1.11-1.845-1.545l0.45-0.405
			c0.675,0.42,1.47,1.05,1.92,1.56c0.705-0.585,1.305-1.229,1.725-1.949h-3.75v-0.646h4.169l0.135-0.03l0.435,0.24
			c-0.69,1.53-1.92,2.73-3.345,3.63h2.55v3.135h-3.3c-0.075,0.63-0.18,1.306-0.27,1.86H90.131z M97.841,353.74
			c-0.66,0.646-1.56,1.32-2.31,1.815c0.855,0.525,1.8,0.945,2.805,1.2c-0.15,0.149-0.33,0.404-0.435,0.569
			c-0.855-0.255-1.665-0.614-2.43-1.05v2.43c0,0.33,0.045,0.42,0.27,0.42h1.35c0.18,0,0.51-0.015,0.69-0.045
			c0,0.165,0.03,0.375,0.045,0.54c-0.15,0.03-0.45,0.03-0.72,0.03h-1.425c-0.705,0-0.855-0.255-0.855-0.96v-1.83h-2.445v0.63
			c0,0.9-0.315,1.92-1.635,2.641c-0.105-0.12-0.33-0.36-0.48-0.45c1.23-0.646,1.47-1.47,1.47-2.205v-1.23h3.39v0.016h0.33
			c-1.755-1.035-3.18-2.535-4.02-4.305l0.6-0.195c0.33,0.72,0.78,1.395,1.335,1.995c0.735-0.525,1.68-1.32,2.205-1.905l0.555,0.391
			c-0.69,0.675-1.62,1.409-2.37,1.935c0.39,0.375,0.795,0.734,1.26,1.035c0.765-0.511,1.71-1.29,2.28-1.846L97.841,353.74z
			 M96.731,360.73c-0.465,1.095-1.215,1.995-2.115,2.715c0.855,0.555,1.65,1.064,2.205,1.47l-0.375,0.48
			c-0.585-0.436-1.395-0.99-2.325-1.59c-1.05,0.72-2.265,1.215-3.495,1.56c-0.06-0.18-0.21-0.42-0.345-0.555
			c1.125-0.271,2.28-0.721,3.285-1.365c-0.855-0.54-1.74-1.065-2.52-1.53l0.36-0.375c0.825,0.465,1.755,1.005,2.655,1.561
			c0.72-0.54,1.32-1.2,1.755-1.95h-4.905v-0.585h5.28l0.12-0.03L96.731,360.73z"/>
		<path fill="#414042" d="M113.201,361.091v0.689H99.776v-0.689h1.59l-0.3-8.085c0.915-0.33,2.04-0.795,2.73-1.17l0.42,0.6
			c-0.705,0.345-1.62,0.675-2.46,0.96l0.075,2.01h2.22v0.646h-2.19l0.075,2.175h2.145v0.645h-2.115l0.075,2.221h8.939
			c0.045-0.601,0.09-1.351,0.12-2.131h-2.205v-0.645h2.235c0.03-0.72,0.06-1.455,0.075-2.205h-2.25v-0.645h2.265
			c0.015-0.78,0.03-1.545,0.03-2.25h-2.415v-0.66h3.09c-0.03,2.64-0.105,6.345-0.255,8.535H113.201z M104.906,362.62
			c-1.17,0.99-2.955,2.025-4.41,2.7c-0.09-0.15-0.315-0.405-0.45-0.555c1.44-0.631,3.255-1.681,4.17-2.551L104.906,362.62z
			 M106.211,357.535c-0.195,1.096-0.57,2.19-1.035,2.94c-0.12-0.09-0.405-0.255-0.555-0.345c0.51-0.705,0.795-1.681,0.975-2.686
			L106.211,357.535z M107.426,356.62h-2.46v-4.784h0.645v1.604h2.55v0.646h-2.55v1.904h2.16v0.016h0.315v4.079
			c0,0.36-0.075,0.525-0.345,0.646c-0.3,0.12-0.78,0.12-1.53,0.12c-0.045-0.181-0.135-0.405-0.225-0.57
			c0.63,0.015,1.08,0.015,1.26,0c0.15,0,0.18-0.06,0.18-0.195V356.62z M108.476,362.186c1.605,0.779,3.33,1.77,4.41,2.55
			l-0.495,0.54c-1.035-0.78-2.7-1.785-4.32-2.595L108.476,362.186z"/>
		<path fill="#414042" d="M120.386,354.971h-5.58v-0.646h5.58V354.971z M116.051,364.391v0.75h-0.66v-5.01h4.365v4.26H116.051z
			 M119.741,356.245v0.615h-4.32v-0.615H119.741z M115.437,358.181h4.334v0.63h-4.334V358.181z M116.051,360.775v2.97h3.03v-2.97
			H116.051z M117.656,353.95c-0.225-0.539-0.735-1.364-1.17-1.965l0.585-0.3c0.45,0.601,0.945,1.365,1.185,1.905L117.656,353.95z
			 M127.361,358.615c-0.585,1.785-1.575,3.195-2.82,4.29c1.08,0.825,2.355,1.44,3.795,1.785c-0.15,0.135-0.36,0.435-0.465,0.645
			c-1.485-0.404-2.775-1.064-3.885-1.965c-1.17,0.915-2.49,1.561-3.854,1.995c-0.075-0.195-0.255-0.495-0.405-0.646
			c1.29-0.359,2.595-0.975,3.72-1.829c-1.05-1.005-1.86-2.221-2.415-3.63l0.435-0.15h-1.2v-0.689h6.495l0.135-0.046L127.361,358.615
			z M122.516,353.996c0,1.289-0.375,2.85-2.1,3.944c-0.09-0.15-0.345-0.42-0.465-0.525c1.59-1.005,1.89-2.31,1.89-3.419v-1.665
			h4.274v3.6c0,0.42,0.03,0.54,0.255,0.54h1.065c0.18,0,0.435-0.03,0.6-0.061c0.015,0.181,0.06,0.48,0.075,0.646
			c-0.15,0.045-0.42,0.06-0.675,0.06h-1.095c-0.735,0-0.9-0.3-0.9-1.215v-2.895h-2.925V353.996z M121.661,359.11
			c0.525,1.29,1.32,2.415,2.34,3.33c1.035-0.885,1.89-1.995,2.415-3.33H121.661z"/>
		<path fill="#414042" d="M136.136,354.971h-6.105v-0.646h6.105V354.971z M130.691,356.245h4.8v0.615h-4.8V356.245z
			 M135.431,358.811h-4.74v-0.63h4.74V358.811z M135.491,364.391h-4.005v0.75h-0.645v-5.01h4.65V364.391z M131.486,360.775v2.97
			h3.33v-2.97H131.486z M133.031,353.95c-0.24-0.539-0.735-1.364-1.17-1.949l0.585-0.3c0.435,0.6,0.93,1.364,1.17,1.89
			L133.031,353.95z M143.231,357.761h-3.27v7.574h-0.72v-7.574h-3.135v-0.705h3.135v-5.025h0.72v5.025h3.27V357.761z"/>
	</g>
</g>
<g>
	<g>
		<path fill="#324D5B" d="M250.628,148.04c35.152,0,63.648,28.496,63.648,63.647s-28.496,63.647-63.648,63.647
			c-35.151,0-63.647-28.496-63.647-63.647S215.477,148.04,250.628,148.04z"/>
		<path fill="#475F6C" d="M308.117,239.024c-15.265-6.72-35.122-10.788-56.851-10.788c-22.227,0-42.506,4.251-57.904,11.248
			c10.32,21.223,32.083,35.851,57.267,35.851C275.995,275.335,297.889,260.495,308.117,239.024z"/>
		<path fill="#CCCCCC" d="M277.248,233.03l-22.106-12.666l12.029-7.403l-16.543-10.179l-16.542,10.179l12.492,7.688l-21.608,12.382
			c-1.219,0.701-1.219,2.443,0,3.143l26.14,14.976l26.139-14.977C278.465,235.474,278.465,233.729,277.248,233.03z M239.257,212.961
			l11.371-6.787l11.374,6.787l-11.374,6.786L239.257,212.961z M251.109,247.013l-22.004-12.411l20.947-11.816l0.575,0.355
			l1.035-0.638l21.45,12.099L251.109,247.013z"/>
		<path fill="#F2F1EF" d="M283.384,244.747l-29.277-62.323c-0.277-0.484-0.689-0.838-1.157-1.052
			c-0.398-0.887-1.287-1.508-2.322-1.508c-0.87,0-1.637,0.438-2.096,1.104c-0.562,0.191-1.062,0.571-1.381,1.125l-29.278,61.734
			c-0.703,1.218-0.287,2.774,0.932,3.477c1.219,0.704,2.775,0.287,3.478-0.931l25.801-54.399v61.72c0,1.405,1.14,2.547,2.544,2.547
			c1.406,0,2.547-1.142,2.547-2.547v-61.297l25.799,54.92c0.704,1.23,2.26,1.652,3.478,0.939
			C283.671,247.548,284.087,245.975,283.384,244.747z"/>
		<path fill="#EFC75E" d="M250.628,170.953c3.517,0,6.365,2.851,6.365,6.365s-2.849,6.364-6.365,6.364
			c-3.515,0-6.364-2.85-6.364-6.364S247.113,170.953,250.628,170.953z"/>
		<g>
			<path fill="#315F73" d="M225.335,218.024l1.091-2.323c-12.257-8.084-20.351-21.965-20.351-37.747
				c0-4.773,0.745-9.371,2.117-13.689c-1.229,1.101-2.408,2.252-3.549,3.444c-0.722,3.301-1.114,6.727-1.114,10.245
				C203.529,194.755,212.216,209.517,225.335,218.024z M264.569,193.856l1.114,2.372c5.56-4.433,9.132-11.249,9.132-18.91
				c0-13.358-10.83-24.187-24.187-24.187c-13.356,0-24.185,10.828-24.185,24.187c0,7.661,3.573,14.478,9.131,18.91l1.114-2.372
				c-4.705-3.969-7.7-9.901-7.7-16.538c0-11.952,9.688-21.641,21.64-21.641c11.953,0,21.641,9.688,21.641,21.641
				C272.269,183.955,269.273,189.888,264.569,193.856z M283.726,177.318c0,11.238-5.614,21.151-14.178,27.134l1.105,2.352
				c9.427-6.411,15.619-17.226,15.619-29.485c0-8.902-3.271-17.035-8.668-23.281c-2.035-0.954-4.131-1.798-6.277-2.536
				C278.884,157.567,283.726,166.875,283.726,177.318z M230.605,206.804l1.106-2.352c-8.565-5.982-14.18-15.896-14.18-27.134
				c0-10.443,4.842-19.751,12.398-25.817c-2.146,0.738-4.241,1.582-6.277,2.536c-5.396,6.246-8.666,14.379-8.666,23.281
				C214.986,189.578,221.18,200.393,230.605,206.804z M298.232,169.457c-1.091-1.229-2.232-2.414-3.416-3.555
				c1.061,3.839,1.639,7.877,1.639,12.052c0,16.197-8.526,30.395-21.329,38.375l1.091,2.322
				c13.667-8.396,22.784-23.48,22.784-40.697C299,175.053,298.728,172.217,298.232,169.457z M250.628,165.861
				c6.329,0,11.457,5.129,11.457,11.457c0,2.49-0.803,4.788-2.152,6.668l1.206,2.564c2.168-2.466,3.493-5.69,3.493-9.232
				c0-7.733-6.269-14.003-14.004-14.003c-7.732,0-14.001,6.27-14.001,14.003c0,3.542,1.325,6.767,3.493,9.232l1.205-2.564
				c-1.349-1.88-2.153-4.178-2.153-6.668C239.172,170.99,244.301,165.861,250.628,165.861z"/>
		</g>
		<path fill="#D7B354" d="M251.901,181.138c-3.516,0-6.365-2.851-6.365-6.365c0-0.506,0.075-0.991,0.186-1.464
			c-0.899,1.098-1.459,2.481-1.459,4.01c0,3.515,2.85,6.364,6.364,6.364c3.011,0,5.518-2.096,6.18-4.901
			C255.643,180.207,253.89,181.138,251.901,181.138z"/>
	</g>
	<g>
		<path fill="#414042" d="M191.26,312.44c0.36,0.54,1.47,2.43,1.725,2.895l-0.495,0.57c-0.195-0.495-0.795-1.635-1.23-2.444v7.859
			h-0.69v-7.89c-0.54,1.92-1.32,3.885-2.1,5.01c-0.09-0.21-0.285-0.48-0.45-0.646c0.96-1.305,1.965-3.869,2.415-6.06h-1.92v-0.675
			h2.055v-3.3h0.69v3.3h1.785v0.675h-1.785V312.44z M199.72,314.075c-0.42,1.5-1.065,2.805-1.935,3.915
			c1.11,1.2,2.445,2.115,3.975,2.625c-0.18,0.15-0.405,0.42-0.51,0.63c-1.5-0.57-2.82-1.515-3.915-2.7
			c-1.02,1.141-2.295,2.07-3.855,2.806c-0.105-0.15-0.33-0.405-0.48-0.511c1.56-0.734,2.88-1.68,3.87-2.835
			c-0.885-1.095-1.605-2.385-2.13-3.81l0.615-0.194c0.48,1.274,1.14,2.459,1.965,3.465c0.795-1.021,1.35-2.221,1.68-3.556
			L199.72,314.075z M196.21,311.601c-0.615,1.185-1.59,2.46-2.595,3.375c-0.12-0.135-0.345-0.3-0.51-0.405
			c0.99-0.87,1.95-2.16,2.445-3.255L196.21,311.601z M201.58,310.7h-8.16v-0.675h8.16V310.7z M197.395,309.876
			c-0.24-0.525-0.765-1.32-1.275-1.875l0.57-0.3c0.54,0.555,1.08,1.305,1.32,1.845L197.395,309.876z M198.835,311.271
			c0.99,0.975,2.13,2.31,2.655,3.195l-0.555,0.42c-0.495-0.885-1.635-2.28-2.64-3.255L198.835,311.271z"/>
		<path fill="#414042" d="M216.115,308.451v12.899h-0.705v-0.69H204.49v0.69h-0.69v-12.899H216.115z M215.41,319.985v-10.859H204.49
			v10.859H215.41z M210.37,318.141c0,0.149,0,0.39,0.03,0.51c-2.925,0.84-3.285,0.945-3.495,1.095
			c-0.045-0.165-0.15-0.42-0.255-0.57c0.21-0.074,0.63-0.255,0.63-0.779v-1.47c-0.615,0.239-1.275,0.449-1.86,0.614
			c-0.075-0.104-0.285-0.359-0.42-0.479c1.29-0.315,2.775-0.811,3.765-1.41h-2.325v-2.295h7.05v2.295h-3.825
			c-0.48,0.36-1.095,0.69-1.755,0.99v2.114L210.37,318.141z M214.495,312.155v0.54h-9.12v-0.54h4.2v-1.14h-3.225v-0.54h3.225v-0.96
			h0.675v0.96h3.36v0.54h-3.36v1.14H214.495z M207.085,315.155h5.745v-1.29h-5.745V315.155z M214.345,316.37
			c-0.585,0.42-1.32,0.795-1.965,1.096c0.795,0.51,1.515,1.05,2.025,1.454l-0.51,0.391c-0.93-0.825-2.805-2.085-4.334-2.94l0.48-0.3
			c0.6,0.315,1.26,0.705,1.905,1.11c0.645-0.33,1.41-0.795,1.86-1.11L214.345,316.37z"/>
		<path fill="#414042" d="M223.975,316.565h-4.26l-1.245,3.675h-0.9l3.825-10.935h0.93l3.825,10.935h-0.96L223.975,316.565z
			 M223.735,315.846l-0.66-1.98c-0.45-1.274-0.81-2.43-1.2-3.75h-0.06c-0.375,1.32-0.75,2.476-1.185,3.75l-0.675,1.98H223.735z"/>
		<path fill="#414042" d="M227.845,309.306h2.835c2.475,0,3.99,0.81,3.99,3.075c0,2.189-1.5,3.239-3.93,3.239h-1.995v4.62h-0.9
			V309.306z M230.56,314.87c2.16,0,3.195-0.734,3.195-2.489c0-1.771-1.08-2.325-3.255-2.325h-1.755v4.814H230.56z"/>
		<path fill="#414042" d="M237.025,309.306h0.9v10.935h-0.9V309.306z"/>
		<path fill="#414042" d="M244.104,307.881c-0.255,0.75-0.555,1.62-0.81,2.265h2.61v9.6h-4.275v1.23h-0.675v-10.83h1.665
			c0.255-0.705,0.57-1.74,0.72-2.444L244.104,307.881z M245.214,310.806h-3.585v3.585h3.585V310.806z M245.214,319.07v-4.02h-3.585
			v4.02H245.214z M253.269,310.565c-0.255,6.96-0.465,9.24-1.065,9.944c-0.285,0.33-0.585,0.436-1.05,0.466
			c-0.465,0.029-1.335,0.015-2.16-0.045c-0.03-0.226-0.105-0.511-0.24-0.705c0.99,0.074,1.875,0.09,2.205,0.09
			c0.3,0,0.48-0.03,0.63-0.226c0.495-0.54,0.75-2.864,0.975-9.27h-4.2c-0.435,1.065-0.93,2.025-1.47,2.79
			c-0.12-0.104-0.435-0.285-0.615-0.39c1.05-1.365,1.83-3.45,2.295-5.58l0.705,0.165c-0.18,0.795-0.405,1.59-0.675,2.34h4.665
			V310.565z M250.344,317.255c-0.48-0.914-1.53-2.414-2.43-3.494l0.585-0.33c0.885,1.08,1.965,2.535,2.445,3.435L250.344,317.255z"
			/>
		<path fill="#414042" d="M256.66,313.296v8.055h-0.705v-12.915h5.265v4.86H256.66z M256.66,309.036v1.484h3.87v-1.484H256.66z
			 M260.529,312.695v-1.59h-3.87v1.59H260.529z M263.874,317.556v3.494h-0.675v-3.494h-2.52c-0.075,0.975-0.525,2.64-2.07,3.659
			c-0.12-0.135-0.345-0.345-0.51-0.449c1.44-0.886,1.845-2.295,1.92-3.21h-2.085v-0.66h2.1v-1.92h-1.8v-0.63h7.53v0.63h-1.89v1.92
			h2.25v0.66H263.874z M263.199,316.896v-1.92h-2.505v1.92H263.199z M268.149,320.24c0,0.555-0.135,0.825-0.525,0.945
			c-0.39,0.12-1.125,0.135-2.265,0.135c-0.03-0.195-0.12-0.54-0.24-0.75c0.93,0.015,1.74,0.015,1.995,0
			c0.255,0,0.33-0.09,0.33-0.315v-6.944h-4.695v-4.875h5.399V320.24z M263.439,309.036v1.484h4.005v-1.484H263.439z
			 M267.444,312.695v-1.59h-4.005v1.59H267.444z"/>
		<path fill="#414042" d="M276.114,313.251c0,0,0,0.284-0.015,0.39c-0.12,5.01-0.225,6.614-0.6,7.125
			c-0.21,0.255-0.435,0.359-0.825,0.375c-0.36,0.029-1.005,0.015-1.62-0.016c-0.03-0.21-0.09-0.495-0.21-0.689
			c0.69,0.06,1.335,0.06,1.575,0.06c0.225,0,0.345-0.015,0.465-0.18c0.27-0.345,0.405-1.905,0.51-6.39h-2.505v0.27
			c0,2.49-0.285,5.04-2.34,7.17c-0.12-0.15-0.345-0.345-0.54-0.48c1.95-1.979,2.19-4.47,2.19-6.704v-3.225h-1.95v-0.69h6.645v0.69
			h-4.005v2.295H276.114z M273.595,310.011c-0.165-0.555-0.51-1.41-0.84-2.04l0.615-0.225c0.345,0.645,0.705,1.47,0.885,1.994
			L273.595,310.011z M282.759,311.271c-0.435,2.565-1.095,4.604-2.115,6.27c0.84,1.425,1.92,2.535,3.3,3.195
			c-0.165,0.135-0.39,0.39-0.525,0.6c-1.335-0.689-2.385-1.785-3.21-3.149c-0.945,1.319-2.189,2.354-3.78,3.194
			c-0.09-0.165-0.315-0.495-0.465-0.63c1.68-0.795,2.925-1.859,3.87-3.239c-0.735-1.41-1.26-3.075-1.65-4.92
			c-0.375,0.885-0.795,1.665-1.26,2.324c-0.12-0.135-0.435-0.375-0.6-0.51c1.2-1.604,2.055-4.109,2.55-6.675l0.735,0.136
			c-0.195,0.914-0.42,1.845-0.705,2.715h4.92v0.689H282.759z M278.679,311.271c0,0.061-0.03,0.12-0.045,0.18
			c0.33,2.011,0.855,3.84,1.62,5.37c0.855-1.5,1.395-3.33,1.77-5.55H278.679z"/>
		<path fill="#414042" d="M298.839,315.275h-1.935v2.595h-4.575v2.385c0,0.585-0.165,0.811-0.585,0.931
			c-0.465,0.12-1.29,0.12-2.7,0.12c-0.045-0.211-0.165-0.495-0.285-0.705c1.185,0.029,2.19,0.015,2.49,0.015
			c0.27-0.015,0.36-0.09,0.36-0.36v-2.385h-4.935v-0.63h4.935v-1.965h-6.375v-0.63h6.375v-1.905h-4.71v-0.645h10.005v2.55h1.935
			V315.275z M297.519,308.241c-2.76,0.555-7.365,0.899-11.189,1.02c-0.015-0.18-0.12-0.405-0.21-0.585
			c3.765-0.15,8.399-0.48,10.799-1.005L297.519,308.241z M288.384,311.615c-0.135-0.524-0.555-1.29-0.975-1.845l0.645-0.225
			c0.45,0.555,0.885,1.305,1.02,1.8L288.384,311.615z M291.849,311.615c-0.12-0.585-0.45-1.439-0.795-2.085l0.645-0.194
			c0.375,0.645,0.72,1.5,0.855,2.055L291.849,311.615z M292.329,314.646h3.87v-1.905h-3.87V314.646z M296.199,315.275h-3.87v1.965
			h3.87V315.275z M294.549,311.615c0.615-0.675,1.41-1.829,1.875-2.595l0.75,0.285c-0.615,0.87-1.38,1.89-1.995,2.58
			L294.549,311.615z"/>
		<path fill="#414042" d="M306.339,309.426v11.85h-0.705v-2.91c-2.01,0.33-4.02,0.646-5.475,0.855l-0.135-0.721
			c0.435-0.06,0.96-0.135,1.515-0.21v-8.864h-1.245v-0.69h7.155v0.69H306.339z M305.634,309.426h-3.405v2.31h3.405V309.426z
			 M305.634,312.41h-3.405v2.445h3.405V312.41z M302.229,318.2c1.05-0.165,2.235-0.33,3.405-0.51v-2.16h-3.405V318.2z
			 M313.359,309.996c-0.435,3.194-1.35,5.654-2.595,7.529c0.885,1.305,1.98,2.34,3.315,3c-0.165,0.135-0.39,0.42-0.51,0.6
			c-1.305-0.705-2.37-1.71-3.254-2.97c-0.96,1.26-2.085,2.205-3.315,2.895c-0.12-0.18-0.33-0.449-0.48-0.569
			c1.245-0.646,2.4-1.635,3.375-2.985c-1.095-1.83-1.86-4.109-2.354-6.689l0.69-0.135c0.435,2.34,1.125,4.454,2.115,6.164
			c1.035-1.635,1.815-3.704,2.22-6.239h-5.459v-0.705h5.669l0.135-0.03L313.359,309.996z"/>
	</g>
</g>
<g>
	<g>
		<path fill="#E2574C" d="M400,109.04c35.152,0,63.647,28.496,63.647,63.647S435.152,236.335,400,236.335
			s-63.648-28.496-63.648-63.647S364.848,109.04,400,109.04z"/>
		<path fill="#CD4F45" d="M430.524,157.78c-0.77-0.156-1.57,0.081-2.129,0.639l-18.105,18.463
			c-1.826,1.828-7.962,0.492-12.093-1.119c-1.614-4.131-2.948-10.269-1.127-12.093l18.553-18.018
			c0.558-0.555,0.799-1.353,0.639-2.123c-0.159-0.771-0.7-1.409-1.427-1.699c-11.558-4.597-24.711-1.887-33.504,6.901
			c-7.763,7.764-10.639,18.647-8.36,28.768c-0.293,5.014-4.853,10.892-7.21,13.287l-18.117,18.078
			c4.641,6.707,10.535,12.475,17.347,16.97l17.257-17.226c2.421-2.384,8.955-6.877,13.934-7.394c0.75,0.048,2.306,0.152,2.65,0.228
			l-0.002-0.029c9.707,1.41,19.513-1.76,26.487-8.726c8.792-8.777,11.508-21.926,6.91-33.477
			C431.936,158.478,431.296,157.939,430.524,157.78z"/>
		<path fill="#EDEDED" d="M430.524,156.507c-0.77-0.156-1.57,0.081-2.129,0.64l-18.105,18.462
			c-1.826,1.829-7.962,0.493-12.093-1.118c-1.614-4.131-2.948-10.27-1.127-12.094l18.553-18.018
			c0.558-0.555,0.799-1.354,0.639-2.123c-0.159-0.771-0.7-1.409-1.427-1.699c-11.558-4.596-24.711-1.885-33.504,6.902
			c-7.763,7.763-10.639,18.647-8.36,28.767c-0.293,5.014-4.853,10.892-7.21,13.289l-18.641,18.599
			c4.547,6.774,10.361,12.624,17.102,17.214l18.025-17.993c2.42-2.384,8.955-6.878,13.934-7.394c0.75,0.048,2.305,0.151,2.65,0.228
			l-0.002-0.029c9.708,1.41,19.513-1.76,26.487-8.726c8.792-8.777,11.508-21.926,6.91-33.477
			C431.936,157.204,431.296,156.667,430.524,156.507z"/>
		<g>
			<path fill="#E1E1E1" d="M434.194,165.757c0.162,1.382,0.238,2.77,0.217,4.15c-0.093-3.603-0.803-7.222-2.187-10.696
				c-0.29-0.732-0.928-1.271-1.702-1.43c-0.768-0.156-1.569,0.081-2.128,0.64l-18.104,18.461c-1.826,1.828-7.962,0.492-12.093-1.119
				c-0.141-0.362-0.28-0.739-0.417-1.128l-42.918,42.919c2.861,2.878,5.995,5.482,9.36,7.773l18.025-17.993
				c2.421-2.384,8.955-6.878,13.934-7.394c0.75,0.048,2.306,0.151,2.65,0.228l-0.002-0.029c9.707,1.41,19.513-1.76,26.487-8.726
				C432.167,184.572,435.308,175.08,434.194,165.757z M433.089,160.436l-0.187-0.593L433.089,160.436z M434.125,165.182
				c-0.05-0.368-0.106-0.734-0.171-1.103C434.017,164.447,434.074,164.814,434.125,165.182z M433.715,162.873l-0.222-0.96
				L433.715,162.873z"/>
		</g>
		<path fill="#F4F4F4" d="M381.331,148.731c8.792-8.788,21.946-11.498,33.504-6.901c0.68,0.271,1.185,0.853,1.379,1.558
			c0.108-0.362,0.127-0.75,0.047-1.132c-0.159-0.771-0.7-1.409-1.427-1.699c-11.558-4.596-24.711-1.885-33.504,6.902
			c-6.125,6.124-9.195,14.193-9.103,22.296C372.456,162.084,375.528,154.535,381.331,148.731z M365.76,189.515l-18.641,18.599
			l0.523,0.751l18.116-18.078c2.356-2.396,6.916-8.273,7.21-13.287l-0.087-0.461C372.188,181.86,367.99,187.244,365.76,189.515z"/>
		<path fill="#CCD0D2" d="M372.9,195.24l-20.121,20.119c1.426,1.576,2.929,3.083,4.505,4.511l20.123-20.123
			c1.245-1.246,1.245-3.263,0-4.508S374.145,193.995,372.9,195.24L372.9,195.24z"/>
		<path fill="#B8BCBE" d="M372.9,195.24l-20.121,20.119l0.617,0.658l19.504-19.504c1.246-1.244,3.262-1.244,4.507,0
			c0.46,0.46,0.746,1.024,0.867,1.617c0.206-1.013-0.081-2.104-0.867-2.891C376.163,193.995,374.145,193.995,372.9,195.24
			L372.9,195.24z"/>
	</g>
	<g>
		<path fill="#414042" d="M346.877,269.541v12.704h-0.69v-0.72h-10.41v0.825h-0.69v-12.81H346.877z M346.187,280.91v-10.739h-10.41
			v10.739H346.187z M345.602,278.226h-2.295v1.665c0,0.359-0.075,0.495-0.375,0.585c-0.285,0.09-0.825,0.09-1.77,0.09
			c-0.045-0.15-0.135-0.33-0.225-0.48c0.72,0.016,1.335,0.016,1.5,0c0.18,0,0.225-0.045,0.225-0.194v-1.665h-6.255v-0.54h6.255
			v-0.615h0.645v0.615h2.295V278.226z M340.607,271.761h-4.02v-0.54h4.02v-0.81h0.645v0.81h4.11v0.54h-4.11v0.72h3.51v3h-3.51v0.885
			l2.25-0.06c-0.165-0.135-0.33-0.271-0.495-0.375l0.45-0.315c0.615,0.42,1.35,1.08,1.695,1.516l-0.465,0.345
			c-0.165-0.195-0.39-0.436-0.66-0.69c-2.7,0.09-5.459,0.181-7.365,0.21l-0.045-0.569c1.05,0,2.46-0.016,3.99-0.045v-0.9h-3.33v-3
			h3.33V271.761z M337.892,273.726h2.715v-0.75h-2.715V273.726z M340.607,274.985v-0.765h-2.715v0.765H340.607z M338.612,278.405
			c0.57,0.375,1.215,0.99,1.53,1.395l-0.525,0.346c-0.3-0.436-0.93-1.035-1.485-1.455L338.612,278.405z M341.252,272.976v0.75h2.865
			v-0.75H341.252z M344.117,274.221h-2.865v0.765h2.865V274.221z"/>
		<path fill="#414042" d="M353.822,269.661c-0.45,1.199-1.065,2.699-1.605,3.899c1.185,1.275,1.5,2.37,1.5,3.345
			c0,0.705-0.165,1.335-0.555,1.59c-0.18,0.135-0.45,0.226-0.72,0.255c-0.33,0.03-0.705,0.03-1.035,0
			c-0.015-0.18-0.09-0.449-0.225-0.645c0.405,0.015,0.735,0.03,1.005,0.015c0.21-0.015,0.375-0.06,0.51-0.149
			c0.255-0.181,0.345-0.646,0.345-1.11c0-0.885-0.33-1.95-1.53-3.21c0.525-1.2,1.05-2.535,1.41-3.585h-2.46v12.285h-0.675v-12.96
			h3.45l0.12-0.03L353.822,269.661z M362.192,273.396c-0.615,0.54-1.38,1.14-2.13,1.635c0.585,1.86,1.725,3.811,2.82,4.74
			c-0.15,0.12-0.375,0.359-0.51,0.524c-1.08-1.05-2.205-3.029-2.835-4.92l-0.39,0.256c0.84,2.579,0.45,5.265-0.48,6.015
			c-0.375,0.33-0.735,0.449-1.305,0.449c-0.255,0.016-0.765-0.015-1.17-0.029c-0.015-0.21-0.075-0.495-0.18-0.69
			c0.45,0.045,0.96,0.061,1.215,0.061c0.375,0,0.63-0.03,0.915-0.285c0.57-0.436,0.93-1.995,0.705-3.78
			c-1.185,1.141-3.03,2.311-4.575,2.925c-0.105-0.165-0.27-0.404-0.435-0.555c1.725-0.585,3.825-1.905,4.875-3.104
			c-0.09-0.465-0.225-0.945-0.405-1.396c-0.99,0.84-2.49,1.785-3.6,2.37c-0.09-0.165-0.285-0.42-0.45-0.57
			c1.215-0.524,2.88-1.529,3.795-2.354c-0.24-0.525-0.54-1.005-0.915-1.47c-0.9,0.795-1.98,1.484-2.985,2.01
			c-0.075-0.15-0.315-0.42-0.465-0.54c1.365-0.646,2.82-1.575,3.81-2.655h-3.705v-0.659h4.86c0.6-0.69,1.335-1.846,1.755-2.625
			l0.69,0.27c-0.48,0.765-1.11,1.695-1.665,2.355h3.24v0.675h-4.335c-0.225,0.27-0.48,0.51-0.735,0.765
			c0.585,0.69,1.02,1.47,1.35,2.265c0.945-0.614,2.055-1.47,2.745-2.114L362.192,273.396z M356.972,271.235
			c-0.36-0.569-1.14-1.425-1.83-1.994l0.54-0.36c0.735,0.57,1.5,1.365,1.875,1.92L356.972,271.235z"/>
		<path fill="#414042" d="M368.417,272.735c0,1.755-0.12,3.87-1.005,5.895c0.705,0.66,1.35,1.306,1.755,1.846l-0.45,0.569
			c-0.39-0.51-0.96-1.14-1.62-1.784c-0.57,1.064-1.38,2.1-2.535,3.045c-0.105-0.15-0.345-0.346-0.495-0.436
			c1.17-0.96,1.98-2.01,2.535-3.075c-0.705-0.645-1.455-1.289-2.16-1.829c0.33-1.051,0.69-2.565,0.99-4.141l-1.215,0.075
			l-0.09-0.705c0.42-0.015,0.9-0.029,1.44-0.06c0.21-1.17,0.39-2.34,0.495-3.36l0.645,0.03c-0.12,1.005-0.3,2.145-0.495,3.3
			l1.56-0.09v-1.14h0.645v1.109l0.855-0.045v0.646l-0.855,0.06V272.735z M366.063,272.78c-0.27,1.471-0.6,2.896-0.885,3.976
			c0.57,0.435,1.155,0.914,1.71,1.409c0.795-1.89,0.885-3.81,0.885-5.414v-0.075L366.063,272.78z M372.227,278.735
			c-0.54,1.32-1.575,2.67-2.61,3.345c-0.105-0.18-0.33-0.405-0.495-0.524c1.005-0.585,2.025-1.83,2.535-3.03L372.227,278.735z
			 M373.787,277.94v4.395h-0.705v-4.395h-3.75v-0.646h3.75v-1.59h-2.385v-4.604h-1.5v-0.66h1.5v-1.694h0.675v1.694h4.095v-1.694
			h0.69v1.694h1.455v0.66h-1.455v4.604h-2.37v1.59h3.78v0.646H373.787z M371.372,271.101v1.665h4.095v-1.665H371.372z
			 M371.372,275.075h4.095v-1.71h-4.095V275.075z M375.197,278.54c0.885,0.99,1.95,2.355,2.46,3.18l-0.57,0.301
			c-0.51-0.811-1.56-2.221-2.43-3.226L375.197,278.54z"/>
		<path fill="#414042" d="M386.927,269.03c-0.15,0.226-0.315,0.466-0.48,0.676c1.65,1.89,3.825,3.27,6.45,4.439
			c-0.195,0.15-0.42,0.42-0.51,0.63c-2.55-1.229-4.635-2.625-6.345-4.545c-1.605,1.936-3.9,3.63-6.33,4.635
			c-0.105-0.165-0.315-0.435-0.51-0.585c2.895-1.14,5.625-3.225,7.11-5.534L386.927,269.03z M381.527,276.455h9.06v5.79h-0.735
			v-0.885h-7.59v0.945h-0.735V276.455z M389.777,273.681v0.675h-7.575v-0.675H389.777z M382.262,277.115v3.555h7.59v-3.555H382.262z
			"/>
		<path fill="#414042" d="M407.642,276.875h-6.33v5.46h-0.72v-5.46h-6.24v-0.72h6.24v-5.64h-5.475v-0.705h11.7v0.705h-5.505v5.64
			h6.33V276.875z M396.887,271.386c0.645,1.155,1.32,2.67,1.56,3.585l-0.675,0.255c-0.24-0.93-0.885-2.475-1.515-3.645
			L396.887,271.386z M403.202,275.091c0.63-0.99,1.41-2.655,1.83-3.795l0.75,0.255c-0.57,1.229-1.335,2.805-1.965,3.765
			L403.202,275.091z"/>
		<path fill="#414042" d="M418.187,270.636c1.515,1.274,3.255,3.104,4.02,4.35l-0.615,0.45c-0.255-0.405-0.6-0.9-1.02-1.396
			c-8.984,0.525-9.734,0.57-10.229,0.75c-0.03-0.164-0.135-0.524-0.225-0.72c0.285-0.06,0.705-0.42,1.215-0.915
			c0.54-0.495,2.37-2.46,3.629-4.35l0.705,0.33c-1.335,1.785-2.79,3.465-4.215,4.755l8.61-0.45c-0.75-0.854-1.62-1.725-2.445-2.43
			L418.187,270.636z M411.347,276.2h9.27v6.09h-0.735v-0.81h-7.814v0.854h-0.72V276.2z M412.067,276.905v3.87h7.814v-3.87H412.067z"
			/>
		<path fill="#414042" d="M428.072,268.881c-0.255,0.75-0.555,1.62-0.81,2.265h2.61v9.6h-4.275v1.23h-0.675v-10.83h1.665
			c0.255-0.705,0.57-1.74,0.72-2.444L428.072,268.881z M429.182,271.806h-3.585v3.585h3.585V271.806z M429.182,280.07v-4.02h-3.585
			v4.02H429.182z M437.237,271.565c-0.255,6.96-0.465,9.24-1.065,9.944c-0.285,0.33-0.585,0.436-1.05,0.466
			c-0.465,0.029-1.335,0.015-2.16-0.045c-0.03-0.226-0.105-0.511-0.24-0.705c0.99,0.074,1.875,0.09,2.205,0.09
			c0.3,0,0.48-0.03,0.63-0.226c0.495-0.54,0.75-2.864,0.975-9.27h-4.2c-0.435,1.065-0.93,2.025-1.47,2.79
			c-0.12-0.104-0.435-0.285-0.615-0.39c1.05-1.365,1.83-3.45,2.295-5.58l0.705,0.165c-0.18,0.795-0.405,1.59-0.675,2.34h4.665
			V271.565z M434.312,278.255c-0.48-0.914-1.53-2.414-2.43-3.494l0.585-0.33c0.885,1.08,1.965,2.535,2.445,3.435L434.312,278.255z"
			/>
		<path fill="#414042" d="M443.387,274.011c-0.27,2.085-0.735,3.81-1.38,5.189c1.485,1.665,3.705,2.04,6.465,2.055
			c0.435,0,3.735,0,4.334-0.015c-0.12,0.18-0.255,0.495-0.3,0.675h-4.05c-2.925,0-5.175-0.405-6.765-2.1
			c-0.57,1.02-1.23,1.8-1.98,2.399c-0.105-0.149-0.375-0.404-0.555-0.51c0.795-0.585,1.485-1.41,2.055-2.46
			c-0.555-0.734-1.005-1.68-1.365-2.864l0.585-0.256c0.27,1.006,0.645,1.801,1.095,2.46c0.495-1.125,0.87-2.46,1.095-4.02h-2.46
			c0.675-1.08,1.575-2.76,2.265-4.154h-2.91v-0.66h3.99c-0.66,1.305-1.53,2.955-2.22,4.154h1.53l0.135-0.029L443.387,274.011z
			 M447.527,270.756h-3.075v-0.63h3.075v-1.29h0.69v1.29h3.24v1.994h1.155v0.615h-1.155v2.04h-3.24v1.38h3.6v0.615h-3.6v1.5h4.215
			v0.63h-4.215v1.785h-0.69V278.9h-3.975v-0.63h3.975v-1.5h-3.3v-0.615h3.3v-1.38h-3.195v-0.63h3.195v-1.41h-4.125v-0.615h4.125
			V270.756z M448.217,270.756v1.364h2.565v-1.364H448.217z M450.782,272.735h-2.565v1.41h2.565V272.735z"/>
		<path fill="#414042" d="M467.582,280.955v0.705h-13.185v-0.705h7.245c0.87-1.979,1.89-5.34,2.415-7.574l0.825,0.135
			c-0.66,2.31-1.635,5.46-2.475,7.439H467.582z M466.997,272.36h-11.985v-0.72h11.985V272.36z M458.747,280.13
			c-0.255-1.784-0.93-4.515-1.53-6.584l0.705-0.15c0.63,2.085,1.29,4.785,1.56,6.569L458.747,280.13z M460.832,271.325
			c-0.135-0.645-0.435-1.649-0.735-2.414l0.675-0.195c0.3,0.765,0.63,1.755,0.78,2.385L460.832,271.325z"/>
	</g>
</g>
<g>
	<g>
		<path fill="#C49A6C" d="M548.371,53.04c35.151,0,63.647,28.496,63.647,63.647s-28.496,63.647-63.647,63.647
			s-63.647-28.496-63.647-63.647S513.22,53.04,548.371,53.04z"/>
		<path fill="#324D5B" d="M485.545,106.504c-0.534,3.316-0.821,6.715-0.821,10.184c0,11.072,2.833,21.48,7.804,30.55h111.687
			c4.972-9.069,7.804-19.478,7.804-30.55c0-3.469-0.288-6.867-0.821-10.184H485.545z"/>
		<path fill="#475F6C" d="M495.635,152.329c6.819,10.073,16.449,18.083,27.764,22.914h49.949
			c11.313-4.831,20.942-12.841,27.764-22.914H495.635z"/>
		<path fill="#3E5765" d="M567.465,106.504l-25.458,40.733h22.913l25.459-40.733H567.465z M547.098,106.504l-25.458,40.733h10.184
			l25.458-40.733H547.098z"/>
		<path fill="#FAFAFA" d="M531.823,100.139v12.73l-12.73,20.367l-1.273-12.73l11.457-20.367H531.823z"/>
		<path fill="#EDEDED" d="M511.456,100.139h20.368l-12.73,20.367h-20.367L511.456,100.139z"/>
		<path fill="#BEBEBE" d="M519.093,120.506h-20.367v12.73h20.367V120.506z"/>
		<path fill="#FAFAFA" d="M572.557,100.139v12.73l-12.729,20.367l-1.273-12.73l11.456-20.367H572.557z"/>
		<path fill="#EDEDED" d="M552.19,100.139h20.367l-12.729,20.367H539.46L552.19,100.139z"/>
		<path fill="#BEBEBE" d="M559.828,120.506H539.46v12.73h20.368V120.506z"/>
		<path fill="#7D8D95" d="M511.456,125.289c-0.526-0.583-1.323-0.964-2.228-0.964c-1.582,0-2.864,1.142-2.864,2.546
			c0,1.405,1.283,2.547,2.864,2.547c0.905,0,1.702-0.382,2.228-0.963c-0.739-0.237-1.272-0.848-1.272-1.584
			C510.183,126.136,510.717,125.524,511.456,125.289z M550.917,126.871c0-0.735,0.535-1.347,1.272-1.582
			c-0.525-0.583-1.322-0.964-2.227-0.964c-1.582,0-2.864,1.142-2.864,2.546c0,1.405,1.283,2.547,2.864,2.547
			c0.905,0,1.701-0.382,2.227-0.963C551.452,128.219,550.917,127.607,550.917,126.871z M564.46,102.686h-8.564
			c-0.641,0-1.238,0.323-1.575,0.855l-8.334,11.683c-0.759,1.195,0.128,2.737,1.575,2.737h8.563c0.642,0,1.239-0.324,1.575-0.855
			l8.335-11.683C566.794,104.226,565.906,102.686,564.46,102.686z M553.29,115.414c-0.343,0.704-1.111,1.273-1.72,1.273
			c-0.608,0-0.823-0.569-0.482-1.273c0.341-0.703,1.111-1.272,1.72-1.272C553.416,114.142,553.632,114.711,553.29,115.414z
			 M523.726,102.686h-8.563c-0.642,0-1.239,0.323-1.575,0.855l-8.336,11.683c-0.758,1.195,0.129,2.737,1.575,2.737h8.563
			c0.643,0,1.239-0.324,1.575-0.855l8.336-11.683C526.059,104.226,525.171,102.686,523.726,102.686z M512.556,115.414
			c-0.343,0.704-1.111,1.273-1.721,1.273c-0.607,0-0.823-0.569-0.482-1.273c0.341-0.703,1.111-1.272,1.72-1.272
			C512.682,114.142,512.897,114.711,512.556,115.414z"/>
		<path fill="#EFC75E" d="M580.195,121.779h31.603c0.132-1.683,0.221-3.376,0.221-5.092c0-11.67-3.155-22.6-8.64-32.003
			L580.195,121.779z"/>
		<path fill="#283E49" d="M492.527,147.237c0.959,1.749,1.994,3.45,3.107,5.092H601.11c1.112-1.642,2.147-3.343,3.104-5.092H492.527
			z M523.396,175.243c7.669,3.274,16.108,5.092,24.975,5.092c8.866,0,17.305-1.817,24.975-5.092H523.396z"/>
		<g>
			<path fill="#394C56" d="M511.391,168.474c0.823-0.903,1.338-2.096,1.338-3.414c0-2.813-2.28-5.092-5.092-5.092
				c-1.635,0-3.072,0.783-4.004,1.981C506.037,164.325,508.635,166.501,511.391,168.474z"/>
			<circle fill="#394C56" cx="548.371" cy="165.06" r="5.092"/>
			<circle fill="#394C56" cx="528.003" cy="165.06" r="5.092"/>
			<path fill="#394C56" d="M589.105,159.968c-2.813,0-5.092,2.279-5.092,5.092c0,1.318,0.515,2.511,1.338,3.414
				c2.756-1.973,5.354-4.148,7.759-6.524C592.178,160.751,590.739,159.968,589.105,159.968z"/>
			<circle fill="#394C56" cx="568.738" cy="165.06" r="5.092"/>
		</g>
		<g>
			<path fill="#70838D" d="M510.602,167.91c1.283-0.923,2.126-2.42,2.126-4.124c0-2.812-2.28-5.092-5.092-5.092
				c-1.966,0-3.652,1.127-4.501,2.758C505.453,163.793,507.947,165.952,510.602,167.91z"/>
			<circle fill="#70838D" cx="528.003" cy="163.786" r="5.092"/>
			<path fill="#70838D" d="M593.606,161.452c-0.849-1.631-2.535-2.758-4.5-2.758c-2.813,0-5.092,2.28-5.092,5.092
				c0,1.704,0.845,3.201,2.127,4.124C588.795,165.952,591.291,163.793,593.606,161.452z"/>
			<circle fill="#70838D" cx="568.738" cy="163.786" r="5.092"/>
			<circle fill="#70838D" cx="548.371" cy="163.786" r="5.092"/>
		</g>
		<path fill="#405561" d="M599.281,154.876c0.626-0.835,1.241-1.68,1.828-2.547H495.635c0.586,0.867,1.202,1.712,1.828,2.547
			H599.281z"/>
		<path fill="#CBA950" d="M580.195,171.798c17.634-10.204,29.908-28.615,31.603-50.019h-31.603V171.798z"/>
	</g>
	<g>
		<path fill="#414042" d="M503.662,214.53v2.49h-0.705v-1.89h-10.92v1.89h-0.675v-2.49h2.745c-0.27-0.42-0.78-1.005-1.215-1.395
			l0.615-0.27c0.51,0.435,1.065,1.02,1.335,1.425l-0.465,0.239h2.729v-1.784h0.72v1.784h2.76l-0.405-0.194
			c0.42-0.405,1.005-1.095,1.32-1.545l0.69,0.285c-0.405,0.524-0.96,1.079-1.395,1.454H503.662z M500.872,220.5
			c0.645,0,1.8-0.015,2.25-0.104c0.03,0.225,0.09,0.465,0.105,0.6c-0.345,0.075-1.305,0.075-2.25,0.075h-6.915
			c-1.335,0-1.74-0.36-1.74-1.29v-1.635h0.675v0.9h9.57v0.569h-9.57v0.181c0,0.524,0.195,0.704,1.035,0.704H500.872z M492.847,222
			h9.39v4.29h-0.705v-0.39h-7.995v0.435h-0.69V222z M501.532,216.046v2.22h-8.024v-2.22H501.532z M493.537,222.57v1.095h7.995
			v-1.095H493.537z M501.532,225.33v-1.125h-7.995v1.125H501.532z M500.827,216.586h-6.63v1.154h6.63V216.586z"/>
		<path fill="#414042" d="M505.792,215.325h4.86v0.646h-4.86V215.325z M510.337,225.391h-3.285v0.75h-0.66v-5.01h3.945V225.391z
			 M510.322,217.86h-3.9v-0.615h3.9V217.86z M506.422,219.181h3.9v0.63h-3.9V219.181z M507.052,221.775v2.97h2.625v-2.97H507.052z
			 M508.417,214.95c-0.24-0.539-0.735-1.364-1.155-1.949l0.57-0.315c0.45,0.601,0.945,1.365,1.185,1.905L508.417,214.95z
			 M513.337,223.755c0.765-0.21,1.575-0.449,2.37-0.689l0.075,0.63c-1.71,0.54-3.48,1.08-4.83,1.485l-0.24-0.705
			c0.54-0.15,1.2-0.315,1.935-0.525v-4.395h-1.77v-0.66h4.26v0.66h-1.8V223.755z M516.247,216.511c0.27,5.52,1.125,9.149,2.07,9.149
			c0.285,0,0.42-0.795,0.48-2.564c0.165,0.135,0.405,0.3,0.585,0.359c-0.135,2.175-0.36,2.925-1.14,2.925
			c-1.56,0-2.385-4.17-2.67-9.869h-4.515v-0.69h4.47c-0.03-0.975-0.06-1.979-0.075-3.015h0.72c0,1.05,0.015,2.055,0.045,3.015h3.105
			v0.69H516.247z M518.137,215.4c-0.27-0.54-0.855-1.38-1.38-1.995l0.525-0.3c0.54,0.585,1.155,1.396,1.395,1.92L518.137,215.4z"/>
		<path fill="#414042" d="M523.642,220.021c-0.225,1.29-0.615,2.85-1.095,3.944c0.33,0.15,0.69,0.48,1.35,0.886
			c1.11,0.659,2.475,0.75,4.305,0.75c2.145,0,4.47-0.12,6.209-0.271c-0.09,0.195-0.195,0.54-0.225,0.75
			c-1.065,0.061-4.125,0.165-6,0.165c-1.995,0-3.36-0.15-4.53-0.854c-0.6-0.36-1.17-0.886-1.53-0.886
			c-0.285,0-0.705,0.915-1.095,1.891l-0.51-0.556c0.495-0.899,0.945-1.694,1.395-1.904c0.42-0.931,0.78-2.266,0.975-3.39h-1.65
			c0.39-0.9,0.87-2.25,1.245-3.436h-1.71v-0.66h2.595c-0.36,1.096-0.84,2.431-1.215,3.45h1.005l0.135-0.03L523.642,220.021z
			 M522.262,215.445c-0.15-0.63-0.48-1.635-0.72-2.385l0.615-0.165c0.255,0.766,0.585,1.726,0.735,2.37L522.262,215.445z
			 M526.327,221.355c-0.225,1.17-0.69,2.13-1.515,2.76c-0.09-0.15-0.3-0.36-0.45-0.45c1.065-0.779,1.41-2.189,1.515-3.869h-1.8
			v-0.585h2.505c-0.135-0.285-0.315-0.585-0.48-0.841l0.585-0.239c0.24,0.345,0.48,0.75,0.63,1.08h2.19v0.585h-2.985
			c-0.03,0.329-0.06,0.675-0.105,0.975h2.445c0,0,0,0.21-0.015,0.314c-0.075,1.71-0.15,2.341-0.36,2.565
			c-0.15,0.18-0.33,0.255-0.645,0.255c-0.195,0.015-0.615,0.015-0.99-0.015c-0.015-0.165-0.075-0.405-0.165-0.57
			c0.42,0.045,0.81,0.045,0.96,0.045s0.225,0,0.3-0.09c0.12-0.15,0.195-0.646,0.255-1.92H526.327z M528.877,218.086h-4.155V214.2
			h1.47c0.165-0.465,0.33-1.064,0.42-1.454l0.72,0.135c-0.165,0.435-0.345,0.915-0.495,1.319h2.04V218.086z M528.232,214.756h-2.865
			v1.095h2.865V214.756z M528.232,216.405h-2.865v1.11h2.865V216.405z M530.692,215.881c-0.345,1.095-0.735,2.069-1.2,2.85
			c-0.105-0.104-0.405-0.285-0.57-0.375c0.855-1.38,1.44-3.465,1.8-5.55l0.66,0.105c-0.15,0.795-0.315,1.574-0.51,2.324h3.27v0.646
			h-0.705c-0.225,1.785-0.555,3.3-1.08,4.604c0.705,1.065,1.335,2.145,1.71,2.94l-0.555,0.27c-0.345-0.705-0.855-1.62-1.44-2.564
			c-0.69,1.425-1.665,2.564-2.985,3.465c-0.105-0.136-0.345-0.375-0.495-0.511c1.425-0.87,2.4-2.055,3.075-3.6
			c-0.495-0.765-1.005-1.515-1.485-2.175l0.525-0.21c0.39,0.525,0.81,1.11,1.215,1.725c0.42-1.14,0.675-2.46,0.855-3.944H530.692z"
			/>
		<path fill="#414042" d="M535.762,215.296h5.07v0.645h-5.07V215.296z M540.352,217.74h-4.275v-0.63h4.275V217.74z M536.092,219.15
			h4.29v0.63h-4.29V219.15z M540.307,225.42h-3.45v0.735h-0.66v-4.979h4.11V225.42z M536.857,221.806v2.984h2.79v-2.984H536.857z
			 M538.402,214.966c-0.15-0.525-0.48-1.351-0.75-1.995l0.6-0.195c0.315,0.615,0.645,1.44,0.78,1.95L538.402,214.966z
			 M548.332,225.436c0,0.435-0.09,0.63-0.405,0.75c-0.33,0.12-0.9,0.12-1.83,0.12c-0.03-0.195-0.135-0.45-0.24-0.646
			c0.75,0.03,1.365,0.03,1.545,0.015c0.195,0,0.24-0.06,0.24-0.225v-1.665h-5.04c-0.15,0.976-0.435,1.965-1.05,2.76
			c-0.12-0.149-0.375-0.404-0.525-0.495c0.9-1.185,1.005-2.744,1.005-3.959v-2.82h6.3V225.436z M549.307,217.605v0.6h-8.265v-0.6
			h3.705v-1.245h-3.18v-0.585h3.18v-1.125h-3.57v-0.6h3.57v-1.29h0.69v1.29h3.75v0.6h-3.75v1.125h3.465v0.585h-3.465v1.245H549.307z
			 M547.642,223.2v-1.365h-4.935v0.256c0,0.345-0.015,0.72-0.045,1.109H547.642z M542.707,219.886v1.38h4.935v-1.38H542.707z"/>
		<path fill="#414042" d="M557.782,221.341c-0.18,1.02-0.585,1.965-1.5,2.805c1.92,1.02,4.545,1.35,8.084,1.5
			c-0.135,0.165-0.27,0.465-0.315,0.72c-3.6-0.195-6.36-0.6-8.339-1.77c-0.99,0.689-2.43,1.305-4.5,1.755
			c-0.09-0.165-0.285-0.45-0.435-0.631c1.98-0.404,3.36-0.93,4.29-1.545c-0.81-0.6-1.485-1.364-2.01-2.354l0.6-0.24
			c0.51,0.915,1.17,1.635,1.98,2.175c0.855-0.72,1.23-1.545,1.41-2.414h-4.635v-5.565h4.77v-1.484h-6.165v-0.676h12.914v0.676
			h-6.015v1.484h5.085v5.565H557.782z M553.117,218.251h4.065v-1.83h-4.065V218.251z M557.137,220.71
			c0.03-0.375,0.045-0.765,0.045-1.154v-0.69h-4.065v1.845H557.137z M562.282,218.865h-4.365v0.69c0,0.39-0.015,0.779-0.045,1.154
			h4.41V218.865z M557.917,216.421v1.83h4.365v-1.83H557.917z"/>
		<path fill="#414042" d="M576.652,214.381c-1.89,3.255-6.33,5.34-9.975,6.149c-0.075-0.195-0.24-0.495-0.375-0.66
			c1.725-0.33,3.645-1.005,5.355-1.904c-0.57-0.601-1.47-1.351-2.325-1.92c-0.6,0.404-1.245,0.765-1.95,1.109
			c-0.12-0.165-0.345-0.39-0.51-0.51c2.4-1.064,4.215-2.625,5.115-3.915l0.81,0.181c-0.3,0.39-0.66,0.81-1.05,1.199h4.305
			l0.15-0.045L576.652,214.381z M579.022,219.495c-2.085,4.365-7.335,6.195-12.375,6.855c-0.045-0.21-0.195-0.525-0.315-0.705
			c2.535-0.271,5.129-0.9,7.305-1.965c-0.585-0.63-1.545-1.485-2.415-2.146c-0.78,0.465-1.635,0.915-2.58,1.29
			c-0.105-0.165-0.315-0.39-0.48-0.524c3-1.17,5.205-2.926,6.255-4.44l0.825,0.165c-0.315,0.39-0.645,0.811-1.05,1.2h4.215
			l0.15-0.045L579.022,219.495z M571.027,214.771c-0.36,0.315-0.735,0.615-1.155,0.915c0.885,0.555,1.86,1.305,2.4,1.92
			c1.335-0.795,2.505-1.74,3.285-2.835H571.027z M573.472,219.9c-0.495,0.435-1.05,0.87-1.665,1.26c0.87,0.66,1.89,1.53,2.505,2.146
			c1.53-0.84,2.82-1.98,3.63-3.405H573.472z"/>
		<path fill="#414042" d="M593.377,213.541v12.704h-0.69v-0.72h-10.41v0.825h-0.69v-12.81H593.377z M592.687,224.91v-10.739h-10.41
			v10.739H592.687z M592.102,222.226h-2.295v1.665c0,0.359-0.075,0.495-0.375,0.585c-0.285,0.09-0.825,0.09-1.77,0.09
			c-0.045-0.15-0.135-0.33-0.225-0.48c0.72,0.016,1.335,0.016,1.5,0c0.18,0,0.225-0.045,0.225-0.194v-1.665h-6.255v-0.54h6.255
			v-0.615h0.645v0.615h2.295V222.226z M587.107,215.761h-4.02v-0.54h4.02v-0.81h0.645v0.81h4.11v0.54h-4.11v0.72h3.51v3h-3.51v0.885
			l2.25-0.06c-0.165-0.135-0.33-0.271-0.495-0.375l0.45-0.315c0.615,0.42,1.35,1.08,1.695,1.516l-0.465,0.345
			c-0.165-0.195-0.39-0.436-0.66-0.69c-2.7,0.09-5.459,0.181-7.365,0.21l-0.045-0.569c1.05,0,2.46-0.016,3.99-0.045v-0.9h-3.33v-3
			h3.33V215.761z M584.392,217.726h2.715v-0.75h-2.715V217.726z M587.107,218.985v-0.765h-2.715v0.765H587.107z M585.112,222.405
			c0.57,0.375,1.215,0.99,1.53,1.395l-0.525,0.346c-0.3-0.436-0.93-1.035-1.485-1.455L585.112,222.405z M587.752,216.976v0.75h2.865
			v-0.75H587.752z M590.617,218.221h-2.865v0.765h2.865V218.221z"/>
		<path fill="#414042" d="M600.322,213.661c-0.45,1.199-1.065,2.699-1.605,3.899c1.185,1.275,1.5,2.37,1.5,3.345
			c0,0.705-0.165,1.335-0.555,1.59c-0.18,0.135-0.45,0.226-0.72,0.255c-0.33,0.03-0.705,0.03-1.035,0
			c-0.015-0.18-0.09-0.449-0.225-0.645c0.405,0.015,0.735,0.03,1.005,0.015c0.21-0.015,0.375-0.06,0.51-0.149
			c0.255-0.181,0.345-0.646,0.345-1.11c0-0.885-0.33-1.95-1.53-3.21c0.525-1.2,1.05-2.535,1.41-3.585h-2.46v12.285h-0.675v-12.96
			h3.45l0.12-0.03L600.322,213.661z M608.692,217.396c-0.615,0.54-1.38,1.14-2.13,1.635c0.585,1.86,1.725,3.811,2.82,4.74
			c-0.15,0.12-0.375,0.359-0.51,0.524c-1.08-1.05-2.205-3.029-2.835-4.92l-0.39,0.256c0.84,2.579,0.45,5.265-0.48,6.015
			c-0.375,0.33-0.735,0.449-1.305,0.449c-0.255,0.016-0.765-0.015-1.17-0.029c-0.015-0.21-0.075-0.495-0.18-0.69
			c0.45,0.045,0.96,0.061,1.215,0.061c0.375,0,0.63-0.03,0.915-0.285c0.57-0.436,0.93-1.995,0.705-3.78
			c-1.185,1.141-3.03,2.311-4.575,2.925c-0.105-0.165-0.27-0.404-0.435-0.555c1.725-0.585,3.825-1.905,4.875-3.104
			c-0.09-0.465-0.225-0.945-0.405-1.396c-0.99,0.84-2.49,1.785-3.6,2.37c-0.09-0.165-0.285-0.42-0.45-0.57
			c1.215-0.524,2.88-1.529,3.795-2.354c-0.24-0.525-0.54-1.005-0.915-1.47c-0.9,0.795-1.98,1.484-2.985,2.01
			c-0.075-0.15-0.315-0.42-0.465-0.54c1.365-0.646,2.82-1.575,3.81-2.655h-3.705v-0.659h4.86c0.6-0.69,1.335-1.846,1.755-2.625
			l0.69,0.27c-0.48,0.765-1.11,1.695-1.665,2.355h3.24v0.675h-4.335c-0.225,0.27-0.48,0.51-0.735,0.765
			c0.585,0.69,1.02,1.47,1.35,2.265c0.945-0.614,2.055-1.47,2.745-2.114L608.692,217.396z M603.472,215.235
			c-0.36-0.569-1.14-1.425-1.83-1.994l0.54-0.36c0.735,0.57,1.5,1.365,1.875,1.92L603.472,215.235z"/>
		<path fill="#414042" d="M522.563,239.535c-0.18,1.41-0.54,2.925-1.35,4.125c-0.12-0.12-0.42-0.3-0.585-0.375
			c1.17-1.755,1.365-4.08,1.365-5.76v-2.189h5.79v4.199H522.563z M525.382,231.166c-0.075,0.104-0.15,0.239-0.225,0.359
			c1.23,0.735,2.7,1.726,3.465,2.37l-0.39,0.555c-0.75-0.645-2.205-1.664-3.42-2.43c-0.975,1.335-2.37,2.445-3.735,3.225
			c-0.075-0.149-0.285-0.465-0.435-0.63c1.635-0.824,3.209-2.114,4.08-3.675L525.382,231.166z M527.107,238.936v-1.275h-4.439
			c0,0.391-0.015,0.825-0.06,1.275H527.107z M522.667,235.936v1.17h4.439v-1.17H522.667z M522.682,240.375h5.46v3.825h-0.675v-0.705
			h-4.125v0.72h-0.66V240.375z M523.342,240.976v1.904h4.125v-1.904H523.342z M526.627,233.865v0.556h-3.225v-0.556H526.627z
			 M530.482,240.66h-0.69v-8.175h0.69V240.66z M533.392,230.836v12.419c0,0.57-0.18,0.795-0.54,0.931
			c-0.39,0.135-1.08,0.135-2.325,0.135c-0.045-0.195-0.15-0.495-0.255-0.705c0.975,0.015,1.815,0.015,2.055,0
			c0.255-0.015,0.36-0.09,0.36-0.36v-12.419H533.392z"/>
		<path fill="#414042" d="M539.482,238.021c-0.405,1.35-0.945,2.865-1.56,3.944c0.33,0.165,0.675,0.466,1.29,0.855
			c1.08,0.645,2.37,0.765,4.169,0.765c2.025,0,4.305-0.12,5.97-0.27c-0.09,0.194-0.21,0.54-0.225,0.765
			c-1.035,0.061-3.975,0.15-5.745,0.15c-1.965,0-3.3-0.165-4.41-0.84c-0.6-0.36-1.155-0.9-1.515-0.9
			c-0.345,0-0.855,0.885-1.35,1.905l-0.54-0.601c0.63-0.96,1.185-1.739,1.71-1.92c0.525-0.915,1.035-2.205,1.35-3.345h-2.16
			c0.435-0.899,1.035-2.234,1.485-3.404h-2.25v-0.676h3.21c-0.435,1.096-1.005,2.415-1.47,3.436h1.53l0.105-0.045L539.482,238.021z
			 M537.547,233.581c-0.18-0.631-0.51-1.636-0.735-2.386l0.645-0.18c0.255,0.765,0.585,1.74,0.765,2.355L537.547,233.581z
			 M549.127,236.37h-9.6v-0.645h4.425v-2.31h-2.505c-0.375,0.659-0.81,1.26-1.245,1.739c-0.135-0.12-0.435-0.285-0.63-0.375
			c0.945-0.944,1.74-2.354,2.235-3.795l0.69,0.165c-0.195,0.54-0.435,1.096-0.69,1.605h2.145v-1.995h0.705v1.995h3.794v0.66h-3.794
			v2.31h4.47V236.37z M547.177,242.266v-0.556h-5.595v0.601h-0.705v-4.545h7.005v4.5H547.177z M547.177,241.065v-2.67h-5.595v2.67
			H547.177z"/>
		<path fill="#414042" d="M555.892,243.36c0,0.495-0.135,0.72-0.465,0.854c-0.33,0.12-0.9,0.136-1.95,0.12
			c-0.015-0.18-0.12-0.479-0.225-0.675c0.795,0.015,1.455,0.015,1.65,0c0.225-0.015,0.3-0.075,0.3-0.314v-4.125h-2.85
			c-0.12,1.784-0.42,3.689-1.14,5.145c-0.135-0.135-0.435-0.315-0.6-0.36c1.065-2.159,1.155-5.13,1.155-7.35v-5.324h4.125V243.36z
			 M555.202,238.53v-2.955h-2.76v1.08c0,0.57-0.015,1.215-0.045,1.875H555.202z M552.442,232.006v2.88h2.76v-2.88H552.442z
			 M563.932,236.535c-0.435,2.04-1.229,3.735-2.235,5.055c0.78,0.96,1.68,1.71,2.685,2.221c-0.165,0.135-0.375,0.375-0.495,0.555
			c-0.96-0.525-1.83-1.305-2.595-2.25c-0.765,0.885-1.605,1.575-2.49,2.085c-0.09-0.165-0.285-0.39-0.435-0.525
			c0.885-0.465,1.755-1.185,2.52-2.1c-0.93-1.29-1.65-2.835-2.16-4.5h-0.54v7.26h-0.705v-12.959h6.03v2.895
			c0,0.436-0.09,0.646-0.465,0.765c-0.39,0.12-1.095,0.12-2.22,0.12c-0.045-0.225-0.165-0.449-0.27-0.645
			c1.02,0.015,1.755,0.015,1.965,0c0.24,0,0.3-0.061,0.3-0.24v-2.22h-4.635v4.35h5.19l0.135-0.03L563.932,236.535z M559.372,237.075
			c0.45,1.455,1.095,2.82,1.92,3.976c0.795-1.11,1.44-2.445,1.845-3.976H559.372z"/>
		<path fill="#414042" d="M577.837,233.011c-0.45,1.109-1.14,2.01-1.98,2.745c1.035,0.734,2.25,1.29,3.57,1.59
			c-0.165,0.165-0.375,0.42-0.48,0.614c-1.335-0.359-2.565-0.975-3.63-1.77c-0.975,0.72-2.145,1.275-3.405,1.695
			c-0.06-0.136-0.24-0.375-0.39-0.54c-0.3,0.84-0.63,1.665-0.975,2.234l-0.54-0.285c0.375-0.659,0.765-1.68,1.035-2.609h-1.86v6.72
			c0,0.435-0.075,0.63-0.405,0.765c-0.315,0.105-0.84,0.105-1.74,0.105c-0.03-0.165-0.135-0.465-0.24-0.66
			c0.705,0.015,1.29,0.015,1.47,0.015c0.165-0.015,0.225-0.06,0.225-0.21v-5.805c-0.615,1.65-1.515,3.33-2.385,4.275
			c-0.09-0.195-0.3-0.495-0.435-0.63c0.975-0.99,1.98-2.835,2.55-4.575h-2.46v-0.675h5.565l0.105-0.03l0.48,0.165
			c-0.105,0.36-0.24,0.72-0.36,1.095c1.215-0.345,2.31-0.84,3.225-1.484c-0.735-0.646-1.35-1.38-1.815-2.19
			c-0.435,0.51-0.885,0.976-1.35,1.351c-0.12-0.136-0.405-0.346-0.6-0.45c1.185-0.9,2.25-2.25,2.865-3.735l0.705,0.195
			c-0.21,0.495-0.465,0.975-0.765,1.439h5.34v0.646H577.837z M566.962,233.19c0.525,0.226,1.095,0.525,1.62,0.84
			c0.705-0.495,1.455-1.199,1.98-1.845h-4.665v-0.645h5.205l0.12-0.045l0.495,0.314c-0.645,0.93-1.65,1.905-2.58,2.565
			c0.555,0.359,1.035,0.734,1.365,1.064l-0.479,0.555c-0.72-0.734-2.205-1.739-3.495-2.34L566.962,233.19z M578.752,239.131
			c0,0-0.03,0.255-0.03,0.39c-0.3,2.925-0.585,4.05-1.02,4.484c-0.24,0.21-0.465,0.285-0.855,0.315c-0.33,0-0.99,0.015-1.665-0.045
			c-0.015-0.195-0.09-0.495-0.195-0.69c0.705,0.061,1.365,0.075,1.605,0.075c0.255,0,0.39-0.015,0.525-0.135
			c0.315-0.315,0.585-1.29,0.84-3.72h-2.985c-0.525,1.979-1.59,3.6-4.02,4.529c-0.075-0.165-0.3-0.435-0.435-0.569
			c2.205-0.795,3.195-2.235,3.69-3.96h-2.655v-0.675h2.82c0.105-0.511,0.18-1.021,0.24-1.561h0.735
			c-0.06,0.54-0.135,1.065-0.225,1.561H578.752z M573.382,233.025c0.45,0.87,1.11,1.65,1.92,2.325c0.75-0.645,1.35-1.41,1.755-2.34
			h-3.675V233.025z"/>
	</g>
</g>
<g>
	<g>
		<path fill="#4681A0" d="M709.742,14.04c35.152,0,63.648,28.496,63.648,63.647s-28.496,63.647-63.648,63.647
			c-35.151,0-63.647-28.496-63.647-63.647S674.591,14.04,709.742,14.04z"/>
		<path fill="#FFFFFF" d="M727.576,95.19l-0.026-1.908c0.042,0,4.34-0.089,8.55-2.24c5.527-2.823,8.331-7.744,8.331-14.628h1.909
			C746.34,94.74,727.764,95.188,727.576,95.19z"/>
		<path fill="#3F7490" d="M728.849,96.464l-0.026-1.91c0.043,0,4.341-0.088,8.55-2.238c5.527-2.823,8.331-7.745,8.331-14.628h1.91
			C747.613,96.013,729.037,96.461,728.849,96.464z"/>
		<path fill="#D5D5D5" d="M746.658,71.322c2.108,0,3.819,1.71,3.819,3.819s-1.711,3.819-3.819,3.819
			c-2.108,0-3.819-1.71-3.819-3.819S744.55,71.322,746.658,71.322z"/>
		<path fill="#BDBDBD" d="M686.83,91.689h45.826c2.813,0,5.092,2.28,5.092,5.093v12.729c0,2.813-2.279,5.092-5.092,5.092H686.83
			c-2.812,0-5.092-2.279-5.092-5.092V96.782C681.737,93.97,684.018,91.689,686.83,91.689z"/>
		<path fill="#3F7490" d="M707.196,40.772c15.466,0,28.005,12.538,28.005,28.005c0,15.466-12.539,28.005-28.005,28.005
			c-15.466,0-28.005-12.539-28.005-28.005C679.191,53.311,691.73,40.772,707.196,40.772z"/>
		<path fill="#D5D5D5" d="M686.83,87.871h45.826c2.813,0,5.092,2.279,5.092,5.092v12.729c0,2.813-2.279,5.092-5.092,5.092H686.83
			c-2.812,0-5.092-2.279-5.092-5.092V92.963C681.737,90.15,684.018,87.871,686.83,87.871z"/>
		<path fill="#BFBFBF" d="M686.83,87.871l-0.101,0.01c5.111,5.476,12.387,8.901,20.467,8.901c8.086,0,15.366-3.432,20.478-8.911
			H686.83z"/>
		<path fill="#A4A4A4" d="M686.83,91.689c-0.703,0-1.273,0.571-1.273,1.273c0,0.704,0.571,1.273,1.273,1.273
			c0.702,0,1.272-0.569,1.272-1.273C688.102,92.261,687.532,91.689,686.83,91.689z M732.655,94.236c0.704,0,1.273-0.569,1.273-1.273
			c0-0.702-0.569-1.273-1.273-1.273c-0.703,0-1.272,0.571-1.272,1.273C731.383,93.667,731.952,94.236,732.655,94.236z
			 M732.655,104.419c-0.703,0-1.272,0.572-1.272,1.273c0,0.703,0.569,1.272,1.272,1.272c0.704,0,1.273-0.569,1.273-1.272
			C733.929,104.991,733.359,104.419,732.655,104.419z M686.83,104.419c-0.703,0-1.273,0.572-1.273,1.273
			c0,0.703,0.571,1.272,1.273,1.272c0.702,0,1.272-0.569,1.272-1.272C688.102,104.991,687.532,104.419,686.83,104.419z"/>
		<path fill="#F0C75E" d="M709.742,38.227c15.466,0,28.005,12.537,28.005,28.004s-12.539,28.006-28.005,28.006
			c-15.466,0-28.005-12.539-28.005-28.006S694.276,38.227,709.742,38.227z"/>
		<path fill="#D9B455" d="M708.47,63.686c2.108,0,3.818,1.711,3.818,3.818c0,2.108-1.71,3.818-3.818,3.818
			c-2.11,0-3.819-1.71-3.819-3.818C704.651,65.396,706.36,63.686,708.47,63.686z"/>
		<path fill="#F5D88F" d="M709.742,62.412c2.109,0,3.819,1.711,3.819,3.818c0,2.108-1.71,3.819-3.819,3.819
			c-2.109,0-3.818-1.711-3.818-3.819C705.924,64.123,707.633,62.412,709.742,62.412z"/>
		<path fill="#BABABA" d="M747.931,77.688c-2.108,0-3.819-1.709-3.819-3.818c0-0.728,0.213-1.4,0.566-1.979
			c-1.099,0.67-1.84,1.87-1.84,3.251c0,2.109,1.711,3.819,3.819,3.819c1.381,0,2.58-0.741,3.252-1.842
			C749.331,77.474,748.658,77.688,747.931,77.688z"/>
		<path fill="#F7E4B0" d="M709.742,62.412c-1.381,0-2.58,0.741-3.25,1.841c0.577-0.354,1.25-0.567,1.978-0.567
			c2.108,0,3.818,1.711,3.818,3.818c0,0.727-0.214,1.399-0.566,1.978c1.098-0.671,1.839-1.869,1.839-3.251
			C713.561,64.123,711.851,62.412,709.742,62.412z"/>
		<path fill="#DFB957" d="M713.561,87.871c-15.466,0-28.005-12.539-28.005-28.006c0-3.93,0.814-7.672,2.276-11.066
			c-3.812,4.784-6.095,10.84-6.095,17.432c0,15.467,12.539,28.006,28.005,28.006c11.536,0,21.439-6.977,25.729-16.938
			C730.342,83.739,722.437,87.871,713.561,87.871z"/>
	</g>
	<g>
		<path fill="#414042" d="M671.888,179.011c-0.27,2.085-0.735,3.81-1.38,5.189c1.485,1.665,3.705,2.04,6.465,2.055
			c0.435,0,3.735,0,4.334-0.015c-0.12,0.18-0.255,0.495-0.3,0.675h-4.05c-2.925,0-5.175-0.405-6.765-2.1
			c-0.57,1.02-1.23,1.8-1.98,2.399c-0.105-0.149-0.375-0.404-0.555-0.51c0.795-0.585,1.485-1.41,2.055-2.46
			c-0.555-0.734-1.005-1.68-1.365-2.864l0.585-0.256c0.27,1.006,0.645,1.801,1.095,2.46c0.495-1.125,0.87-2.46,1.095-4.02h-2.46
			c0.675-1.08,1.575-2.76,2.265-4.154h-2.91v-0.66h3.99c-0.66,1.305-1.53,2.955-2.22,4.154h1.53l0.135-0.029L671.888,179.011z
			 M676.028,175.756h-3.075v-0.63h3.075v-1.29h0.69v1.29h3.24v1.994h1.155v0.615h-1.155v2.04h-3.24v1.38h3.6v0.615h-3.6v1.5h4.215
			v0.63h-4.215v1.785h-0.69V183.9h-3.975v-0.63h3.975v-1.5h-3.3v-0.615h3.3v-1.38h-3.195v-0.63h3.195v-1.41h-4.125v-0.615h4.125
			V175.756z M676.718,175.756v1.364h2.565v-1.364H676.718z M679.283,177.735h-2.565v1.41h2.565V177.735z"/>
		<path fill="#414042" d="M696.083,185.955v0.705h-13.185v-0.705h7.245c0.87-1.979,1.89-5.34,2.415-7.574l0.825,0.135
			c-0.66,2.31-1.635,5.46-2.475,7.439H696.083z M695.498,177.36h-11.985v-0.72h11.985V177.36z M687.248,185.13
			c-0.255-1.784-0.93-4.515-1.53-6.584l0.705-0.15c0.63,2.085,1.29,4.785,1.56,6.569L687.248,185.13z M689.333,176.325
			c-0.135-0.645-0.435-1.649-0.735-2.414l0.675-0.195c0.3,0.765,0.63,1.755,0.78,2.385L689.333,176.325z"/>
		<path fill="#414042" d="M699.128,179.296v8.055h-0.705v-12.915h5.265v4.86H699.128z M699.128,175.036v1.484h3.87v-1.484H699.128z
			 M702.998,178.695v-1.59h-3.87v1.59H702.998z M706.343,183.556v3.494h-0.675v-3.494h-2.52c-0.075,0.975-0.525,2.64-2.07,3.659
			c-0.12-0.135-0.345-0.345-0.51-0.449c1.44-0.886,1.845-2.295,1.92-3.21h-2.085v-0.66h2.1v-1.92h-1.8v-0.63h7.53v0.63h-1.89v1.92
			h2.25v0.66H706.343z M705.668,182.896v-1.92h-2.505v1.92H705.668z M710.618,186.24c0,0.555-0.135,0.825-0.525,0.945
			c-0.39,0.12-1.125,0.135-2.265,0.135c-0.03-0.195-0.12-0.54-0.24-0.75c0.93,0.015,1.74,0.015,1.995,0
			c0.255,0,0.33-0.09,0.33-0.315v-6.944h-4.695v-4.875h5.399V186.24z M705.908,175.036v1.484h4.005v-1.484H705.908z
			 M709.913,178.695v-1.59h-4.005v1.59H709.913z"/>
		<path fill="#414042" d="M718.583,179.251c0,0,0,0.284-0.015,0.39c-0.12,5.01-0.225,6.614-0.6,7.125
			c-0.21,0.255-0.435,0.359-0.825,0.375c-0.36,0.029-1.005,0.015-1.62-0.016c-0.03-0.21-0.09-0.495-0.21-0.689
			c0.69,0.06,1.335,0.06,1.575,0.06c0.225,0,0.345-0.015,0.465-0.18c0.27-0.345,0.405-1.905,0.51-6.39h-2.505v0.27
			c0,2.49-0.285,5.04-2.34,7.17c-0.12-0.15-0.345-0.345-0.54-0.48c1.95-1.979,2.19-4.47,2.19-6.704v-3.225h-1.95v-0.69h6.645v0.69
			h-4.005v2.295H718.583z M716.063,176.011c-0.165-0.555-0.51-1.41-0.84-2.04l0.615-0.225c0.345,0.645,0.705,1.47,0.885,1.994
			L716.063,176.011z M725.228,177.271c-0.435,2.565-1.095,4.604-2.115,6.27c0.84,1.425,1.92,2.535,3.3,3.195
			c-0.165,0.135-0.39,0.39-0.525,0.6c-1.335-0.689-2.385-1.785-3.21-3.149c-0.945,1.319-2.189,2.354-3.78,3.194
			c-0.09-0.165-0.315-0.495-0.465-0.63c1.68-0.795,2.925-1.859,3.87-3.239c-0.735-1.41-1.26-3.075-1.65-4.92
			c-0.375,0.885-0.795,1.665-1.26,2.324c-0.12-0.135-0.435-0.375-0.6-0.51c1.2-1.604,2.055-4.109,2.55-6.675l0.735,0.136
			c-0.195,0.914-0.42,1.845-0.705,2.715h4.92v0.689H725.228z M721.148,177.271c0,0.061-0.03,0.12-0.045,0.18
			c0.33,2.011,0.855,3.84,1.62,5.37c0.855-1.5,1.395-3.33,1.77-5.55H721.148z"/>
		<path fill="#414042" d="M730.793,178.44c0.36,0.54,1.47,2.43,1.725,2.895l-0.495,0.57c-0.195-0.495-0.795-1.635-1.23-2.444v7.859
			h-0.69v-7.89c-0.54,1.92-1.32,3.885-2.1,5.01c-0.09-0.21-0.285-0.48-0.45-0.646c0.96-1.305,1.965-3.869,2.415-6.06h-1.92v-0.675
			h2.055v-3.3h0.69v3.3h1.785v0.675h-1.785V178.44z M739.253,180.075c-0.42,1.5-1.065,2.805-1.935,3.915
			c1.11,1.2,2.445,2.115,3.975,2.625c-0.18,0.15-0.405,0.42-0.51,0.63c-1.5-0.57-2.82-1.515-3.915-2.7
			c-1.02,1.141-2.295,2.07-3.855,2.806c-0.105-0.15-0.33-0.405-0.48-0.511c1.56-0.734,2.88-1.68,3.87-2.835
			c-0.885-1.095-1.605-2.385-2.13-3.81l0.615-0.194c0.48,1.274,1.14,2.459,1.965,3.465c0.795-1.021,1.35-2.221,1.68-3.556
			L739.253,180.075z M735.743,177.601c-0.615,1.185-1.59,2.46-2.595,3.375c-0.12-0.135-0.345-0.3-0.51-0.405
			c0.99-0.87,1.95-2.16,2.445-3.255L735.743,177.601z M741.113,176.7h-8.16v-0.675h8.16V176.7z M736.928,175.876
			c-0.24-0.525-0.765-1.32-1.275-1.875l0.57-0.3c0.54,0.555,1.08,1.305,1.32,1.845L736.928,175.876z M738.368,177.271
			c0.99,0.975,2.13,2.31,2.655,3.195l-0.555,0.42c-0.495-0.885-1.635-2.28-2.64-3.255L738.368,177.271z"/>
		<path fill="#414042" d="M755.648,174.451v12.899h-0.705v-0.69h-10.919v0.69h-0.69v-12.899H755.648z M754.943,185.985v-10.859
			h-10.919v10.859H754.943z M749.903,184.141c0,0.149,0,0.39,0.03,0.51c-2.925,0.84-3.285,0.945-3.495,1.095
			c-0.045-0.165-0.15-0.42-0.255-0.57c0.21-0.074,0.63-0.255,0.63-0.779v-1.47c-0.615,0.239-1.275,0.449-1.86,0.614
			c-0.075-0.104-0.285-0.359-0.42-0.479c1.29-0.315,2.775-0.811,3.765-1.41h-2.325v-2.295h7.05v2.295h-3.825
			c-0.48,0.36-1.095,0.69-1.755,0.99v2.114L749.903,184.141z M754.028,178.155v0.54h-9.12v-0.54h4.2v-1.14h-3.225v-0.54h3.225v-0.96
			h0.675v0.96h3.36v0.54h-3.36v1.14H754.028z M746.618,181.155h5.745v-1.29h-5.745V181.155z M753.878,182.37
			c-0.585,0.42-1.32,0.795-1.965,1.096c0.795,0.51,1.515,1.05,2.025,1.454l-0.51,0.391c-0.93-0.825-2.805-2.085-4.334-2.94l0.48-0.3
			c0.6,0.315,1.26,0.705,1.905,1.11c0.645-0.33,1.41-0.795,1.86-1.11L753.878,182.37z"/>
	</g>
</g>
<polygon opacity="0.4" fill="#BE1E2D" points="800,500 799.982,223.04 622.982,259.04 474.982,327.04 322.982,349.04 
	175.982,451.04 0,473.04 -0.018,500 "/>
<g opacity="0.6">
	<g>
		
			<line fill="none" stroke="#30070B" stroke-width="2.8346" stroke-miterlimit="10" x1="79.982" y1="474.99" x2="79.982" y2="400.596"/>
		<g>
			<circle fill="#30070B" cx="79.982" cy="474.777" r="4.263"/>
		</g>
		<g>
			<rect x="76.24" y="397.04" fill="#30070B" width="7.485" height="7.485"/>
		</g>
	</g>
</g>
<g opacity="0.6">
	<g>
		
			<line fill="none" stroke="#30070B" stroke-width="2.8346" stroke-miterlimit="10" x1="249.982" y1="441.99" x2="249.982" y2="351.596"/>
		<g>
			<circle fill="#30070B" cx="249.982" cy="441.777" r="4.263"/>
		</g>
		<g>
			<rect x="246.24" y="348.04" fill="#30070B" width="7.485" height="7.485"/>
		</g>
	</g>
</g>
<g opacity="0.6">
	<g>
		
			<line fill="none" stroke="#30070B" stroke-width="2.8346" stroke-miterlimit="10" x1="396.982" y1="400.99" x2="396.982" y2="310.596"/>
		<g>
			<circle fill="#30070B" cx="396.982" cy="400.777" r="4.263"/>
		</g>
		<g>
			<rect x="393.24" y="307.04" fill="#30070B" width="7.485" height="7.485"/>
		</g>
	</g>
</g>
<g opacity="0.6">
	<g>
		
			<line fill="none" stroke="#30070B" stroke-width="2.8346" stroke-miterlimit="10" x1="549.982" y1="368.99" x2="549.982" y2="269.596"/>
		<g>
			<circle fill="#30070B" cx="549.982" cy="368.777" r="4.263"/>
		</g>
		<g>
			<rect x="546.24" y="266.04" fill="#30070B" width="7.485" height="7.485"/>
		</g>
	</g>
</g>
<g opacity="0.6">
	<g>
		
			<line fill="none" stroke="#30070B" stroke-width="2.8346" stroke-miterlimit="10" x1="709.982" y1="290.99" x2="709.982" y2="211.597"/>
		<g>
			<circle fill="#30070B" cx="709.982" cy="290.777" r="4.263"/>
		</g>
		<g>
			<rect x="706.24" y="208.041" fill="#30070B" width="7.485" height="7.485"/>
		</g>
	</g>
</g>
</svg>
