<?xml version="1.0" encoding="utf-8"?>
<!-- Generator: Adobe Illustrator 16.0.0, SVG Export Plug-In . SVG Version: 6.00 Build 0)  -->
<!DOCTYPE svg PUBLIC "-//W3C//DTD SVG 1.1//EN" "http://www.w3.org/Graphics/SVG/1.1/DTD/svg11.dtd">
<svg version="1.1" xmlns="http://www.w3.org/2000/svg" xmlns:xlink="http://www.w3.org/1999/xlink" x="0px" y="0px" width="800px"
	 height="600px" viewBox="0 0 800 600" enable-background="new 0 0 800 600" xml:space="preserve">
<g id="大圖底圖">
</g>
<g id="末頁底圖">
</g>
<g id="文字LOGO">
	<g>
		<path fill="#808285" d="M55.883,256.183v7.729h5.219v-7.729h4.443v10.048l-1.932,2.511H53.372l-1.933-2.319v-10.241H55.883z
			 M55.883,280.337v62.803h-4.443v-65.315l1.933-2.222h10.241l1.932,2.416v65.122h-4.443v-62.803H55.883z"/>
		<path fill="#808285" d="M119.656,343.14v-66.668l4.539-1.159l29.18,66.571c-1.449,0.674-2.898,1.255-4.445,1.932
			c-7.148-17.007-14.105-33.817-21.836-50.727c-0.578-1.159-3.572-10.531-4.056-11.69c0,1.353,1.449,11.304,1.449,12.656v49.083
			H119.656z M163.229,275.603v66.667l-4.539,1.16l-29.374-66.184c1.45-0.677,2.899-1.257,4.446-1.933l22.029,50.339
			c0.579,1.158,3.573,10.53,4.057,11.69c0-1.354-1.449-11.305-1.449-12.656v-49.083H163.229z"/>
		<path fill="#808285" d="M247.194,280.24h-25.411v62.9h-4.831v-64.928l2.222-2.803h28.021V280.24z M227.098,343.14v-38.357
			l2.222-2.9h14.782v4.833c-4.059,0-8.114,0-12.173,0.096v36.329H227.098z"/>
		<path fill="#808285" d="M331.446,343.43c-16.906,0-34.009-13.912-34.009-33.624c0-19.709,17.103-34.299,34.009-34.299
			c16.909,0,34.012,14.59,34.012,34.299C365.458,329.518,348.355,343.43,331.446,343.43z M331.255,280.917
			c-14.493,0-28.696,11.304-28.696,28.503c0,17.198,14.203,28.599,28.696,28.599c14.491,0,29.083-11.401,29.083-28.599
			C360.338,292.221,345.746,280.917,331.255,280.917z M331.446,333.09c-11.884,0-23.476-9.662-23.476-23.574
			c0-13.913,11.592-23.672,23.476-23.672s23.479,9.759,23.479,23.672C354.925,323.428,343.33,333.09,331.446,333.09z
			 M331.545,291.255c-9.469,0-18.454,6.86-18.454,17.972c0,11.111,8.985,18.454,18.454,18.454c9.468,0,18.26-7.342,18.26-18.454
			C349.805,298.115,341.013,291.255,331.545,291.255z"/>
		<path fill="#808285" d="M425.557,343.14v-37.584c0-1.643,0.388-2.9,2.223-2.9h14.977c5.797,0,10.434-3.671,10.434-11.304
			c0-5.411-4.443-10.821-11.207-10.821h-21.352v62.609h-4.928v-65.411c0-1.063,1.158-2.126,2.223-2.126h24.057
			c9.758,0.194,16.031,7.922,15.943,15.749c-0.108,9.468-6.862,16.232-15.072,16.232h-12.367v35.556H425.557z"/>
		<path fill="#808285" d="M537.639,343.042c-8.985,0-18.069-0.096-27.055-0.096l-2.222-2.028l-0.096-62.61l2.222-2.802h10.048
			l2.608,2.416v50.82h14.59v4.832h-17.198l-2.222-2.028v-51.208h-5.217l0.096,57.778c8.115,0,16.328,0.096,24.445,0.096V343.042z"/>
		<path fill="#808285" d="M614.256,280.048l-2.412,7.729l-23.285,55.558l-4.446-1.933l27.923-65.798h4.445l29.467,65.99
			c-1.545,0.677-2.994,1.258-4.443,1.932l-24.734-55.749L614.256,280.048z M594.162,341.208l8.985-21.159
			c0.289-0.677,1.157-1.258,1.933-1.258h18.549c0.967,0,1.837,0.871,2.514,1.643l9.758,20.869c-1.547,0.677-2.996,1.256-4.445,1.933
			l-9.177-19.614h-15.46l-8.213,19.518L594.162,341.208z"/>
		<path fill="#808285" d="M692.329,275.603h56.231v4.831h-56.231V275.603z M692.329,289.613H713.1v53.527h4.832v-55.556
			c0-1.257-0.967-2.802-2.223-2.802h-23.38V289.613z M748.561,289.613h-20.773v53.527h-4.831v-55.556
			c0-1.257,0.966-2.802,2.222-2.802h23.383V289.613z"/>
	</g>
</g>
<g id="圖像LOGO">
</g>
</svg>
