<?xml version="1.0" encoding="UTF-8" standalone="no"?>
<!-- Created with Inkscape (http://www.inkscape.org/) -->
<svg xmlns:rdf="http://www.w3.org/1999/02/22-rdf-syntax-ns#" xmlns="http://www.w3.org/2000/svg" height="87.634" width="697.12" version="1.1" xmlns:cc="http://creativecommons.org/ns#" xmlns:dc="http://purl.org/dc/elements/1.1/" viewBox="0 0 697.12299 87.634004">
 <metadata>
  <rdf:RDF>
   <cc:Work rdf:about="">
    <dc:format>image/svg+xml</dc:format>
    <dc:type rdf:resource="http://purl.org/dc/dcmitype/StillImage"/>
    <dc:title/>
   </cc:Work>
  </rdf:RDF>
 </metadata>
 <g transform="translate(-17.153 -491.4)">
  <g transform="translate(-34.286 235.22)">
   <g fill="#808285">
    <path d="m55.883 256.18v7.729h5.219v-7.729h4.443v10.048l-1.932 2.511h-10.241l-1.933-2.319v-10.241h4.444zm0 24.154v62.803h-4.443v-65.315l1.933-2.222h10.241l1.932 2.416v65.122h-4.443v-62.803h-5.22z"/>
    <path d="m119.66 343.14v-66.668l4.539-1.159 29.18 66.571c-1.449 0.674-2.898 1.255-4.445 1.932-7.148-17.007-14.105-33.817-21.836-50.727-0.578-1.159-3.572-10.531-4.056-11.69 0 1.353 1.449 11.304 1.449 12.656v49.083h-4.831zm43.573-67.537v66.667l-4.539 1.16-29.374-66.184c1.45-0.677 2.899-1.257 4.446-1.933l22.029 50.339c0.579 1.158 3.573 10.53 4.057 11.69 0-1.354-1.449-11.305-1.449-12.656v-49.083h4.83z"/>
    <path d="m247.19 280.24h-25.411v62.9h-4.831v-64.928l2.222-2.803h28.021v4.831zm-20.096 62.9v-38.357l2.222-2.9h14.782v4.833c-4.059 0-8.114 0-12.173 0.096v36.329h-4.831z"/>
    <path d="m331.45 343.43c-16.906 0-34.009-13.912-34.009-33.624 0-19.709 17.103-34.299 34.009-34.299 16.909 0 34.012 14.59 34.012 34.299 0 19.712-17.103 33.624-34.012 33.624zm-0.191-62.513c-14.493 0-28.696 11.304-28.696 28.503 0 17.198 14.203 28.599 28.696 28.599 14.491 0 29.083-11.401 29.083-28.599 0-17.199-14.592-28.503-29.083-28.503zm0.191 52.173c-11.884 0-23.476-9.662-23.476-23.574 0-13.913 11.592-23.672 23.476-23.672s23.479 9.759 23.479 23.672c0 13.912-11.595 23.574-23.479 23.574zm0.099-41.835c-9.469 0-18.454 6.86-18.454 17.972 0 11.111 8.985 18.454 18.454 18.454 9.468 0 18.26-7.342 18.26-18.454s-8.792-17.972-18.26-17.972z"/>
    <path d="m425.56 343.14v-37.584c0-1.643 0.388-2.9 2.223-2.9h14.977c5.797 0 10.434-3.671 10.434-11.304 0-5.411-4.443-10.821-11.207-10.821h-21.352v62.609h-4.928v-65.411c0-1.063 1.158-2.126 2.223-2.126h24.057c9.758 0.194 16.031 7.922 15.943 15.749-0.108 9.468-6.862 16.232-15.072 16.232h-12.367v35.556h-4.931z"/>
    <path d="m537.64 343.04c-8.985 0-18.069-0.096-27.055-0.096l-2.222-2.028-0.096-62.61 2.222-2.802h10.048l2.608 2.416v50.82h14.59v4.832h-17.198l-2.222-2.028v-51.208h-5.217l0.096 57.778c8.115 0 16.328 0.096 24.445 0.096v4.83z"/>
    <path d="m614.26 280.05-2.412 7.729-23.285 55.558-4.446-1.933 27.923-65.798h4.445l29.467 65.99c-1.545 0.677-2.994 1.258-4.443 1.932l-24.734-55.749-2.515-7.729zm-20.094 61.16 8.985-21.159c0.289-0.677 1.157-1.258 1.933-1.258h18.549c0.967 0 1.837 0.871 2.514 1.643l9.758 20.869c-1.547 0.677-2.996 1.256-4.445 1.933l-9.177-19.614h-15.46l-8.213 19.518-4.444-1.932z"/>
    <path d="m692.33 275.6h56.231v4.831h-56.231v-4.831zm0 14.01h20.771v53.527h4.832v-55.556c0-1.257-0.967-2.802-2.223-2.802h-23.38v4.831zm56.232 0h-20.773v53.527h-4.831v-55.556c0-1.257 0.966-2.802 2.222-2.802h23.383v4.831z"/>
   </g>
  </g>
 </g>
</svg>
