<?xml version="1.0" encoding="utf-8"?>
<!-- Generator: Adobe Illustrator 16.0.0, SVG Export Plug-In . SVG Version: 6.00 Build 0)  -->
<!DOCTYPE svg PUBLIC "-//W3C//DTD SVG 1.1//EN" "http://www.w3.org/Graphics/SVG/1.1/DTD/svg11.dtd">
<svg version="1.1" id="圖層_1" xmlns="http://www.w3.org/2000/svg" xmlns:xlink="http://www.w3.org/1999/xlink" x="0px" y="0px"
	 width="100px" height="200px" viewBox="0 0 100 200" enable-background="new 0 0 100 200" xml:space="preserve">
<g>
	<path fill-rule="evenodd" clip-rule="evenodd" fill="#3DB39E" d="M84.866,26.521c-2.39,1.939-4.521,3.681-6.666,5.407
		c-9.021,7.26-18.053,14.508-27.062,21.784c-0.76,0.613-1.264,0.847-2.175,0.107c-10.805-8.76-21.654-17.466-32.488-26.189
		c-0.339-0.273-0.776-0.469-0.955-1.109C38.55,26.521,61.493,26.521,84.866,26.521z"/>
	<path fill-rule="evenodd" clip-rule="evenodd" fill="#3DB39E" d="M15.238,73.479c3.787-3.053,7.244-5.844,10.707-8.627
		c5.168-4.153,10.354-8.283,15.493-12.472c0.764-0.622,1.257-0.714,2.029-0.044c1.642,1.424,3.404,2.708,5.047,4.132
		c1.03,0.893,1.875,0.92,2.925,0.021c1.764-1.515,3.633-2.906,5.422-4.393c0.549-0.457,0.908-0.568,1.537-0.061
		c8.618,6.962,17.262,13.894,25.896,20.835c0.146,0.118,0.253,0.284,0.532,0.608C61.649,73.479,38.676,73.479,15.238,73.479z"/>
	<path fill-rule="evenodd" clip-rule="evenodd" fill="#3DB39E" d="M12.66,72.529c0-15.087,0-29.876,0-44.941
		c9.392,7.554,18.614,14.973,27.941,22.475C31.31,57.534,22.104,64.936,12.66,72.529z"/>
	<path fill-rule="evenodd" clip-rule="evenodd" fill="#3DB39E" d="M87.34,27.783c0,14.83,0,29.553,0,44.527
		c-2.768-2.216-5.388-4.313-8.005-6.411c-6.114-4.904-12.223-9.815-18.343-14.713c-1.463-1.172-1.504-1.215-0.082-2.361
		C69.572,41.84,78.247,34.871,86.921,27.9C86.986,27.848,87.098,27.849,87.34,27.783z"/>
</g>
<g>
	<path fill="#3DB39E" d="M6.243,139.769c0-4.711,3.153-7.408,6.743-7.408c1.843,0,3.325,0.854,4.294,1.842l-1.786,2.166
		c-0.703-0.646-1.443-1.102-2.45-1.102c-1.824,0-3.325,1.634-3.325,4.389c0,2.812,1.292,4.445,3.287,4.445
		c1.121,0,2.032-0.57,2.697-1.292l1.786,2.128c-1.197,1.387-2.773,2.089-4.616,2.089C9.282,147.025,6.243,144.556,6.243,139.769z"/>
	<path fill="#3DB39E" d="M18.099,139.617c0-4.636,2.621-7.257,6.478-7.257s6.479,2.641,6.479,7.257c0,4.635-2.622,7.408-6.479,7.408
		S18.099,144.252,18.099,139.617z M27.597,139.617c0-2.736-1.159-4.351-3.021-4.351s-3.002,1.614-3.002,4.351
		c0,2.754,1.141,4.483,3.002,4.483S27.597,142.371,27.597,139.617z"/>
	<path fill="#3DB39E" d="M33.678,132.626h3.457l3.515,6.763l1.387,3.135h0.096c-0.19-1.501-0.456-3.533-0.456-5.225v-4.673h3.229
		v14.134h-3.458l-3.495-6.82l-1.387-3.097h-0.095c0.151,1.577,0.437,3.515,0.437,5.225v4.692h-3.229V132.626z"/>
	<path fill="#3DB39E" d="M50.929,135.438H47.11v-2.812h11.057v2.812h-3.838v11.322h-3.4V135.438z"/>
	<path fill="#3DB39E" d="M66.148,143.512h-4.18l-0.816,3.248h-3.458l4.389-14.134h4.065l4.389,14.134h-3.572L66.148,143.512z
		 M65.503,140.89l-0.305-1.197c-0.38-1.405-0.74-3.096-1.12-4.54h-0.076c-0.342,1.481-0.722,3.135-1.083,4.54l-0.304,1.197H65.503z"
		/>
	<path fill="#3DB39E" d="M71.146,139.769c0-4.711,3.153-7.408,6.743-7.408c1.843,0,3.325,0.854,4.294,1.842l-1.786,2.166
		c-0.703-0.646-1.443-1.102-2.45-1.102c-1.824,0-3.325,1.634-3.325,4.389c0,2.812,1.292,4.445,3.287,4.445
		c1.121,0,2.032-0.57,2.697-1.292l1.786,2.128c-1.197,1.387-2.773,2.089-4.616,2.089C74.186,147.025,71.146,144.556,71.146,139.769z
		"/>
	<path fill="#3DB39E" d="M86.954,135.438h-3.818v-2.812h11.057v2.812h-3.838v11.322h-3.4V135.438z"/>
	<path fill="#3DB39E" d="M38.353,162.911v-7.484h3.382v7.846c0,2.679,0.798,3.629,2.355,3.629c1.539,0,2.394-0.95,2.394-3.629
		v-7.846h3.268v7.484c0,4.769-1.899,6.915-5.661,6.915C40.31,169.826,38.353,167.68,38.353,162.911z"/>
	<path fill="#3DB39E" d="M51.806,167.794l1.918-2.337c1.007,0.855,2.318,1.444,3.438,1.444c1.254,0,1.843-0.476,1.843-1.235
		c0-0.816-0.778-1.083-1.994-1.596l-1.805-0.76c-1.482-0.589-2.869-1.824-2.869-3.876c0-2.374,2.128-4.273,5.13-4.273
		c1.634,0,3.362,0.626,4.597,1.861l-1.69,2.128c-0.931-0.703-1.805-1.083-2.906-1.083c-1.045,0-1.691,0.418-1.691,1.178
		c0,0.779,0.894,1.083,2.147,1.577l1.767,0.702c1.747,0.703,2.792,1.881,2.792,3.876c0,2.355-1.976,4.426-5.395,4.426
		C55.244,169.826,53.269,169.143,51.806,167.794z"/>
</g>
</svg>
