<?xml version="1.0" encoding="utf-8"?>
<!-- Generator: Adobe Illustrator 16.0.0, SVG Export Plug-In . SVG Version: 6.00 Build 0)  -->
<!DOCTYPE svg PUBLIC "-//W3C//DTD SVG 1.1//EN" "http://www.w3.org/Graphics/SVG/1.1/DTD/svg11.dtd">
<svg version="1.1" id="圖層_1" xmlns="http://www.w3.org/2000/svg" xmlns:xlink="http://www.w3.org/1999/xlink" x="0px" y="0px"
	 width="100px" height="100px" viewBox="0 0 100 100" enable-background="new 0 0 100 100" xml:space="preserve">
<rect fill="#3DB39E" width="100" height="100"/>
<g>
	<path fill-rule="evenodd" clip-rule="evenodd" fill="#FFFFFF" d="M84.866,26.521c-2.39,1.939-4.521,3.681-6.666,5.407
		c-9.021,7.26-18.053,14.508-27.062,21.784c-0.76,0.613-1.264,0.847-2.175,0.107c-10.805-8.76-21.654-17.466-32.488-26.189
		c-0.339-0.273-0.776-0.469-0.955-1.109C38.55,26.521,61.493,26.521,84.866,26.521z"/>
	<path fill-rule="evenodd" clip-rule="evenodd" fill="#FFFFFF" d="M15.238,73.479c3.787-3.053,7.244-5.844,10.707-8.627
		c5.168-4.153,10.354-8.283,15.493-12.472c0.764-0.622,1.257-0.714,2.029-0.044c1.642,1.424,3.404,2.708,5.047,4.132
		c1.03,0.893,1.875,0.92,2.925,0.021c1.764-1.515,3.633-2.906,5.422-4.393c0.549-0.457,0.908-0.568,1.537-0.061
		c8.618,6.962,17.262,13.894,25.896,20.835c0.146,0.118,0.253,0.284,0.532,0.608C61.649,73.479,38.676,73.479,15.238,73.479z"/>
	<path fill-rule="evenodd" clip-rule="evenodd" fill="#FFFFFF" d="M12.66,72.529c0-15.087,0-29.876,0-44.941
		c9.392,7.554,18.614,14.973,27.941,22.475C31.31,57.534,22.104,64.936,12.66,72.529z"/>
	<path fill-rule="evenodd" clip-rule="evenodd" fill="#FFFFFF" d="M87.34,27.783c0,14.83,0,29.553,0,44.527
		c-2.768-2.216-5.388-4.313-8.005-6.411c-6.114-4.904-12.223-9.815-18.343-14.713c-1.463-1.172-1.504-1.215-0.082-2.361
		C69.572,41.84,78.247,34.871,86.921,27.9C86.986,27.848,87.098,27.849,87.34,27.783z"/>
</g>
</svg>
