<?xml version="1.0" encoding="utf-8"?>
<!-- Generator: Adobe Illustrator 16.0.0, SVG Export Plug-In . SVG Version: 6.00 Build 0)  -->
<!DOCTYPE svg PUBLIC "-//W3C//DTD SVG 1.1//EN" "http://www.w3.org/Graphics/SVG/1.1/DTD/svg11.dtd">
<svg version="1.1" id="圖層_1" xmlns="http://www.w3.org/2000/svg" xmlns:xlink="http://www.w3.org/1999/xlink" x="0px" y="0px"
	 width="100px" height="100px" viewBox="0 0 100 100" enable-background="new 0 0 100 100" xml:space="preserve">
<rect fill="#3DB39E" width="100" height="100"/>
<g>
	<path fill-rule="evenodd" clip-rule="evenodd" fill="#FFFFFF" d="M34.957,45.876c-0.05-2.64,1.253-3.866,3.555-4.645
		c4.467-1.51,8.895-2.942,13.689-1.887c4.355,0.957,7.3,4.311,7.025,8.753c-0.209,3.39-1.025,6.762-1.782,10.094
		c-1.018,4.479-2.459,8.871-3.311,13.376c-1.056,5.577,0.54,7.09,6.189,6.439c1.079-0.125,2.138-0.439,3.207-0.668
		c0.506,2.611,0.05,3.358-2.394,4.321c-3.959,1.562-7.913,2.892-12.305,2.594c-6.121-0.414-10.038-4.238-9.264-10.248
		c0.668-5.176,2.262-10.231,3.423-15.346c0.645-2.845,1.478-5.672,1.804-8.554c0.429-3.797-0.963-5.123-4.747-4.935
		C38.396,45.254,36.759,45.617,34.957,45.876z"/>
	<path fill-rule="evenodd" clip-rule="evenodd" fill="#FFFFFF" d="M56.352,31.425c-4.694-0.011-8.318-3.38-8.313-7.728
		c0.005-4.534,3.743-8,8.616-7.993c4.476,0.008,8.354,3.625,8.39,7.825C65.082,27.964,61.26,31.436,56.352,31.425z"/>
</g>
</svg>
