<?xml version="1.0" encoding="utf-8"?>
<!-- Generator: Adobe Illustrator 16.0.0, SVG Export Plug-In . SVG Version: 6.00 Build 0)  -->
<!DOCTYPE svg PUBLIC "-//W3C//DTD SVG 1.1//EN" "http://www.w3.org/Graphics/SVG/1.1/DTD/svg11.dtd">
<svg version="1.1" id="圖層_1" xmlns="http://www.w3.org/2000/svg" xmlns:xlink="http://www.w3.org/1999/xlink" x="0px" y="0px"
	 width="100px" height="200px" viewBox="0 0 100 200" enable-background="new 0 0 100 200" xml:space="preserve">
<rect fill="#3DB39E" width="100" height="100"/>
<g>
	<path fill-rule="evenodd" clip-rule="evenodd" fill="#FFFFFF" d="M34.957,45.876c-0.05-2.64,1.253-3.866,3.555-4.645
		c4.467-1.51,8.895-2.942,13.689-1.887c4.355,0.957,7.3,4.311,7.025,8.753c-0.209,3.39-1.025,6.762-1.782,10.094
		c-1.018,4.479-2.459,8.871-3.311,13.376c-1.056,5.577,0.54,7.09,6.189,6.439c1.079-0.125,2.138-0.439,3.207-0.668
		c0.506,2.611,0.05,3.358-2.394,4.321c-3.959,1.562-7.913,2.892-12.305,2.594c-6.121-0.414-10.038-4.238-9.264-10.248
		c0.668-5.176,2.262-10.231,3.423-15.346c0.645-2.845,1.478-5.672,1.804-8.554c0.429-3.797-0.963-5.123-4.747-4.935
		C38.396,45.254,36.759,45.617,34.957,45.876z"/>
	<path fill-rule="evenodd" clip-rule="evenodd" fill="#FFFFFF" d="M56.352,31.425c-4.694-0.011-8.318-3.38-8.313-7.728
		c0.005-4.534,3.743-8,8.616-7.993c4.476,0.008,8.354,3.625,8.39,7.825C65.082,27.964,61.26,31.436,56.352,31.425z"/>
</g>
<rect y="100" fill="#3DB39E" width="100" height="100"/>
<g>
	<path fill="#FFFFFF" d="M11.259,131.756h9.023v2.812h-5.623v3.097h4.825v2.83h-4.825v5.396h-3.4V131.756z"/>
	<path fill="#FFFFFF" d="M21.861,138.747c0-4.636,2.621-7.257,6.478-7.257s6.479,2.641,6.479,7.257c0,4.635-2.622,7.408-6.479,7.408
		S21.861,143.382,21.861,138.747z M31.359,138.747c0-2.736-1.159-4.351-3.021-4.351s-3.002,1.614-3.002,4.351
		c0,2.754,1.141,4.483,3.002,4.483S31.359,141.501,31.359,138.747z"/>
	<path fill="#FFFFFF" d="M37.44,131.756h3.4v11.284h5.49v2.85H37.44V131.756z"/>
	<path fill="#FFFFFF" d="M48.783,131.756h3.4v11.284h5.49v2.85h-8.891V131.756z"/>
	<path fill="#FFFFFF" d="M58.663,138.747c0-4.636,2.621-7.257,6.478-7.257s6.479,2.641,6.479,7.257c0,4.635-2.622,7.408-6.479,7.408
		S58.663,143.382,58.663,138.747z M68.161,138.747c0-2.736-1.159-4.351-3.021-4.351s-3.002,1.614-3.002,4.351
		c0,2.754,1.141,4.483,3.002,4.483S68.161,141.501,68.161,138.747z"/>
	<path fill="#FFFFFF" d="M72.874,131.756h3.477l0.894,6.439l0.569,4.483h0.076c0.266-1.5,0.551-3.021,0.836-4.483l1.443-6.439h2.85
		l1.482,6.439c0.284,1.444,0.531,2.964,0.816,4.483h0.095c0.171-1.52,0.361-3.021,0.532-4.483l0.912-6.439h3.229l-2.451,14.134
		H83.36l-1.272-6.155c-0.228-1.083-0.418-2.223-0.551-3.286h-0.095c-0.171,1.063-0.342,2.203-0.551,3.286l-1.235,6.155h-4.198
		L72.874,131.756z"/>
	<path fill="#FFFFFF" d="M4.314,154.557h3.4v14.134h-3.4V154.557z"/>
	<path fill="#FFFFFF" d="M10.964,154.557h3.457l3.515,6.763l1.387,3.135h0.096c-0.19-1.501-0.456-3.533-0.456-5.225v-4.673h3.229
		v14.134h-3.458l-3.495-6.82l-1.387-3.097h-0.095c0.151,1.577,0.437,3.515,0.437,5.225v4.692h-3.229V154.557z"/>
	<path fill="#FFFFFF" d="M25.479,154.557h9.023v2.812H28.88v3.097h4.825v2.83H28.88v5.396h-3.4V154.557z"/>
	<path fill="#FFFFFF" d="M36.082,161.548c0-4.636,2.621-7.257,6.478-7.257s6.479,2.641,6.479,7.257c0,4.635-2.622,7.408-6.479,7.408
		S36.082,166.183,36.082,161.548z M45.58,161.548c0-2.736-1.159-4.351-3.021-4.351s-3.002,1.614-3.002,4.351
		c0,2.754,1.141,4.483,3.002,4.483S45.58,164.302,45.58,161.548z"/>
	<path fill="#FFFFFF" d="M51.661,154.557h4.958c3.116,0,5.681,1.102,5.681,4.598c0,3.362-2.603,4.844-5.585,4.844h-1.653v4.692h-3.4
		V154.557z M56.543,161.319c1.653,0,2.451-0.778,2.451-2.165c0-1.425-0.912-1.919-2.546-1.919h-1.387v4.084H56.543z"/>
	<path fill="#FFFFFF" d="M64.714,154.557h3.4v11.284h5.49v2.85h-8.891V154.557z"/>
	<path fill="#FFFFFF" d="M82.554,165.442h-4.18l-0.816,3.248H74.1l4.389-14.134h4.065l4.389,14.134h-3.571L82.554,165.442z
		 M81.908,162.82l-0.305-1.197c-0.38-1.405-0.74-3.096-1.12-4.54h-0.076c-0.342,1.481-0.722,3.135-1.083,4.54l-0.304,1.197H81.908z"
		/>
	<path fill="#FFFFFF" d="M89.527,157.368h-3.818v-2.812h11.057v2.812h-3.838v11.322h-3.4V157.368z"/>
</g>
</svg>
