<?xml version="1.0" encoding="utf-8"?>
<!-- Generator: Adobe Illustrator 16.0.0, SVG Export Plug-In . SVG Version: 6.00 Build 0)  -->
<!DOCTYPE svg PUBLIC "-//W3C//DTD SVG 1.1//EN" "http://www.w3.org/Graphics/SVG/1.1/DTD/svg11.dtd">
<svg version="1.1" id="圖層_1" xmlns="http://www.w3.org/2000/svg" xmlns:xlink="http://www.w3.org/1999/xlink" x="0px" y="0px"
	 width="100px" height="100px" viewBox="0 0 100 100" enable-background="new 0 0 100 100" xml:space="preserve">
<rect fill="#3DB39E" width="100" height="100"/>
<g>
	<path fill-rule="evenodd" clip-rule="evenodd" fill="#FFFFFF" d="M21.984,25.861c3.614-2.973,7.483-5.024,11.747-6.304
		c4.7-1.409,9.509-2.056,14.338-0.979c2.37,0.528,4.64,1.589,6.889,2.557c2.383,1.024,4.684,2.258,7.318,2.515
		c3.387,0.33,6.479-0.729,9.42-2.226c1.631-0.83,3.144-1.899,4.671-2.92c0.554-0.37,1.098-0.536,1.666-0.264
		c0.579,0.278,0.775,0.822,0.773,1.487c-0.014,8.86-0.01,17.722-0.01,26.581c0,3.117-0.014,6.232,0.01,9.349
		c0.008,0.839-0.333,1.383-1.074,1.731c-4.673,2.199-9.543,3.391-14.715,2.543c-2.202-0.362-4.345-1.095-6.519-1.642
		c-3.013-0.756-6.069-1.173-9.165-0.729c-2.612,0.376-4.957,1.518-7.136,2.958c-1.373,0.907-2.644,1.964-3.978,2.932
		c-0.538,0.391-0.562,0.85-0.355,1.419c2.075,5.737,4.143,11.479,6.211,17.218c0.387,1.073,0.093,1.854-0.792,2.132
		c-0.741,0.233-1.474-0.277-1.813-1.223c-2.119-5.924-4.247-11.843-6.368-17.768c-1.764-4.928-3.52-9.858-5.285-14.786
		c-2.32-6.478-4.646-12.951-6.965-19.429c-0.738-2.059-1.47-4.121-2.188-6.186c-0.308-0.886,0.012-1.678,0.758-1.967
		c0.709-0.278,1.38,0.072,1.774,0.974C21.471,24.462,21.694,25.111,21.984,25.861z M35.745,33.296
		c-0.128-0.007-0.277-0.062-0.383-0.015c-3.048,1.297-5.925,2.891-8.481,5.015c-0.171,0.141-0.225,0.584-0.148,0.828
		c0.318,1.032,0.71,2.041,1.075,3.059c1.071,2.986,2.142,5.973,3.259,9.085c0.306-0.21,0.547-0.353,0.761-0.527
		c2.348-1.926,4.793-3.701,7.559-4.994c0.964-0.451,1.019-0.413,1.384,0.55c1.08,2.854,2.214,5.688,3.272,8.553
		c0.195,0.53,0.443,0.613,0.893,0.477c2.894-0.877,5.824-0.753,8.768-0.336c0.253,0.034,0.513,0.029,0.908,0.05
		c-0.956-3.623-1.877-7.116-2.834-10.747c3.036,0.765,5.896,1.483,8.884,2.235c-0.886-3.896-1.73-7.615-2.62-11.528
		c3.415,1.537,6.729,2.081,10.161,1.059c0.071,0.156,0.129,0.227,0.135,0.3c0.268,3.266,0.543,6.53,0.775,9.797
		c0.013,0.186-0.301,0.562-0.476,0.569c-1.829,0.086-3.662,0.147-5.493,0.144c-0.789-0.001-1.578-0.167-2.516-0.275
		c0.141,0.524,0.26,0.926,0.352,1.333c0.643,2.874,1.285,5.749,1.914,8.625c0.099,0.459,0.321,0.67,0.801,0.753
		c1.95,0.338,3.889,0.221,5.817-0.133c0.194-0.035,0.482-0.366,0.477-0.553c-0.025-1.053-0.117-2.105-0.203-3.157
		c-0.166-2.023-0.336-4.048-0.522-6.07c-0.048-0.513,0.103-0.76,0.63-0.928c1.823-0.579,3.624-1.228,5.433-1.852
		c0.521-0.18,0.729-0.514,0.724-1.098c-0.026-3.251-0.012-6.504-0.01-9.755c0-0.417,0-0.834,0-1.445
		c-2.498,1.584-4.912,2.863-7.661,3.651c-0.118-1.42-0.238-2.762-0.344-4.104c-0.135-1.728-0.254-3.457-0.386-5.186
		c-0.034-0.458-0.156-0.784-0.752-0.649c-3.149,0.705-6.229,0.459-9.228-0.744c-0.61-0.244-1.231-0.455-2.058-0.759
		c0.806,3.549,1.563,6.888,2.35,10.359c-3.182-1.383-6.15-2.909-9.665-3.499c1.172,4.416,2.287,8.616,3.449,12.989
		c-3.934-0.709-7.636-0.501-11.298,0.922c-1.586-4.038-3.152-8.025-4.721-12.015c0.245-0.111,0.48-0.247,0.734-0.329
		c3.504-1.13,7.088-1.711,10.778-1.542c0.337,0.016,0.676,0.002,1.096,0.002c-0.873-3.299-1.732-6.464-2.532-9.644
		c-0.192-0.758-0.605-1.021-1.309-0.966c-2.261,0.18-4.542,0.23-6.772,0.6c-1.82,0.303-3.581,0.973-5.354,1.526
		c-0.197,0.063-0.474,0.505-0.415,0.656C33.189,26.831,34.472,30.062,35.745,33.296z"/>
</g>
</svg>
