<?xml version="1.0" encoding="utf-8"?>
<!-- Generator: Adobe Illustrator 16.0.0, SVG Export Plug-In . SVG Version: 6.00 Build 0)  -->
<!DOCTYPE svg PUBLIC "-//W3C//DTD SVG 1.1//EN" "http://www.w3.org/Graphics/SVG/1.1/DTD/svg11.dtd">
<svg version="1.1" id="圖層_1" xmlns="http://www.w3.org/2000/svg" xmlns:xlink="http://www.w3.org/1999/xlink" x="0px" y="0px"
	 width="100px" height="100px" viewBox="0 0 100 100" enable-background="new 0 0 100 100" xml:space="preserve">
<rect fill="#3DB39E" width="100" height="100"/>
<path fill-rule="evenodd" clip-rule="evenodd" fill="#FFFFFF" d="M47.358,80.966c-0.49-0.429-1.144-0.271-1.729-0.284
	c-5.748-0.118-11.475-0.432-17.084-1.522c-3.119-0.606-6.158-1.405-8.576-3.223c-1.097-0.825-1.74-1.832-2-3.045
	c-0.766-3.583,1.104-6.234,4.438-8.415c4.179-2.733,8.927-4.653,13.873-6.298c0.877-0.292,1.785-0.533,2.649-0.85
	c3.019-1.109,3.807-4.254,1.616-6.266c-4.971-4.567-7.613-9.892-7.759-15.947c-0.09-3.747,0.982-7.292,4.159-10.175
	c4.579-4.158,10.48-5.273,17.05-4.231c7.472,1.186,12.428,5.825,13.129,12.176c0.75,6.763-1.956,12.673-7.302,17.83
	c-1.483,1.433-1.676,2.992-1.324,4.666c0.233,1.114,1.243,1.759,2.566,2.117c3.515,0.955,6.925,2.11,10.181,3.539
	c2.566,1.125,5.003,2.397,7.209,3.966c3.105,2.208,4.251,4.909,3.544,8.149c-0.343,1.577-1.538,2.707-3.123,3.585
	c-3.036,1.687-6.533,2.392-10.09,2.904c-4.724,0.681-9.497,0.974-14.296,1.041c-0.553,0.007-1.172-0.132-1.625,0.282
	C51.029,80.966,49.194,80.966,47.358,80.966z M47.269,44.427h5.268c-0.442-4.486,5.37-5.879,5.37-10.604s-3.296-6.729-7.511-6.729
	c-3.06,0-5.642,1.427-7.512,3.569l3.331,3.059c1.054-1.054,2.04-1.769,3.433-1.769c1.394,0,2.446,0.782,2.446,2.278
	C52.094,37.018,46.453,39.194,47.269,44.427z M49.886,54.078c2.073,0,3.603-1.664,3.603-3.771c0-2.073-1.529-3.738-3.603-3.738
	c-2.107,0-3.603,1.665-3.603,3.738C46.283,52.414,47.778,54.078,49.886,54.078z"/>
</svg>
