<?xml version="1.0" encoding="utf-8"?>
<!-- Generator: Adobe Illustrator 16.0.0, SVG Export Plug-In . SVG Version: 6.00 Build 0)  -->
<!DOCTYPE svg PUBLIC "-//W3C//DTD SVG 1.1//EN" "http://www.w3.org/Graphics/SVG/1.1/DTD/svg11.dtd">
<svg version="1.1" id="圖層_1" xmlns="http://www.w3.org/2000/svg" xmlns:xlink="http://www.w3.org/1999/xlink" x="0px" y="0px"
	 width="200px" height="200px" viewBox="0 0 200 200" enable-background="new 0 0 200 200" xml:space="preserve">
<g>
	<path fill="#4681A0" d="M29.29,29.29c39.051-39.051,102.369-39.053,141.421,0c39.052,39.052,39.051,102.37,0,141.421
		c-39.052,39.052-102.369,39.052-141.421,0C-9.763,131.658-9.762,68.341,29.29,29.29z"/>
	<path fill="#3F7490" d="M173.539,131.112l1.414-1.414c2.343-2.342,2.344-6.142,0-8.485l-3.478-3.478
		c3.937-7.537,2.74-17.059-3.594-23.392l-62.225-62.226c-6.334-6.333-15.853-7.527-23.393-3.593l-3.478-3.478
		c-2.343-2.344-6.143-2.342-8.485,0l-1.415,1.414L53.744,11.317C44.946,15.91,36.681,21.898,29.29,29.29
		c-9.517,9.516-16.694,20.475-21.571,32.169l13.086,13.085l-1.415,1.415c-2.342,2.342-2.343,6.142,0,8.485l3.478,3.478
		c-3.935,7.541-2.74,17.059,3.594,23.392l62.226,62.226c6.333,6.334,15.854,7.53,23.393,3.594l3.478,3.478
		c2.344,2.344,6.143,2.342,8.485,0l1.414-1.414l13.085,13.085c11.693-4.878,22.653-12.055,32.17-21.57
		c7.392-7.392,13.38-15.656,17.972-24.455L173.539,131.112z M71.716,29.29l1.414-1.415c0.779-0.779,2.05-0.779,2.829,0l2.9,2.9
		c-0.512,0.419-1.008,0.865-1.486,1.342l-1.414,1.414L71.716,29.29z M166.468,124.042l1.414-1.415
		c0.479-0.478,0.925-0.974,1.343-1.485l2.9,2.9c0.78,0.78,0.779,2.049,0,2.828l-1.414,1.414L166.468,124.042z M122.627,176.367
		l-1.414,1.415c-0.778,0.778-2.048,0.78-2.828,0l-2.9-2.9c0.513-0.419,1.009-0.865,1.486-1.343l1.414-1.414L122.627,176.367z
		 M27.875,81.615l-1.414,1.414c-0.478,0.478-0.923,0.975-1.342,1.486l-2.9-2.9c-0.779-0.779-0.779-2.049,0-2.829l1.414-1.414
		L27.875,81.615z"/>
	<path fill="#CCD0D2" d="M75.958,25.047c0.779-0.779,2.049-0.779,2.828,0l96.167,96.166c0.78,0.78,0.779,2.05,0,2.829
		l-50.911,50.911c-0.779,0.779-2.049,0.78-2.829,0L25.047,78.787c-0.779-0.779-0.779-2.049,0-2.828L75.958,25.047 M73.13,22.218
		L22.218,73.13c-2.342,2.342-2.344,6.142,0,8.485l96.167,96.167c2.344,2.343,6.143,2.342,8.485-0.001l50.911-50.911
		c2.343-2.343,2.344-6.142,0.001-8.485L81.615,22.218C79.271,19.875,75.472,19.876,73.13,22.218z"/>
	<path fill="#C49A6C" d="M57.529,9.446C47.308,14.24,37.733,20.846,29.29,29.29c-8.441,8.441-15.05,18.019-19.843,28.24
		l133.024,133.024c10.221-4.793,19.799-11.402,28.24-19.843c8.443-8.444,15.049-18.02,19.843-28.24L57.529,9.446z"/>
	<path fill="#A97C50" d="M9.446,57.529l133.024,133.024c10.221-4.793,19.799-11.402,28.24-19.843L29.29,29.29
		C20.848,37.73,14.239,47.309,9.446,57.529z"/>
	<path fill="#EDEDED" d="M29.29,80.201L80.201,29.29c7.811-7.812,20.475-7.81,28.284,0l62.226,62.225
		c7.812,7.812,7.812,20.473,0,28.284l-50.912,50.912c-7.811,7.811-20.473,7.812-28.284,0L29.29,108.485
		C21.48,100.676,21.479,88.012,29.29,80.201z"/>
	<path fill="#E1E1E1" d="M29.29,80.201c-7.811,7.811-7.81,20.475,0,28.284l62.225,62.226c7.812,7.812,20.474,7.811,28.284,0
		l25.456-25.456l-90.51-90.51L29.29,80.201z"/>
	<path fill="#324D5B" d="M33.532,84.444l50.912-50.912c5.467-5.467,14.331-5.467,19.798,0l62.226,62.226
		c5.468,5.467,5.468,14.332,0,19.799l-50.911,50.911c-5.468,5.468-14.332,5.468-19.799,0l-62.226-62.226
		C28.064,98.775,28.064,89.911,33.532,84.444z"/>
	<path fill="#2F4956" d="M58.988,58.988L33.532,84.444c-5.467,5.467-5.467,14.331,0,19.798l62.226,62.226
		c5.467,5.468,14.332,5.468,19.799,0l25.455-25.456L58.988,58.988z"/>
	<circle fill="#EDEDED" cx="101.414" cy="101.414" r="12"/>
	<circle fill="#93D3E8" cx="108.485" cy="73.13" r="9"/>
	<circle fill="#3DB39E" cx="73.13" cy="108.485" r="9"/>
	<circle fill="#E2574C" cx="81.615" cy="81.615" r="10"/>
	<circle fill="#26A6D1" cx="126.87" cy="91.515" r="9"/>
	<circle fill="#93D3E8" cx="91.515" cy="126.87" r="9"/>
	<circle fill="#EFC75E" cx="121.213" cy="121.213" r="10"/>
	<circle fill="#EFC75E" cx="91.515" cy="60.402" r="6"/>
	<circle fill="#26A6D1" cx="60.402" cy="91.515" r="6"/>
	<circle fill="#3DB39E" cx="139.598" cy="108.485" r="6"/>
	<circle fill="#E2574C" cx="108.485" cy="139.598" r="6"/>
	<path fill="#2A424D" d="M100,162.226L37.774,100c-5.467-5.468-5.467-14.332,0-19.799l-4.243,4.243
		c-5.467,5.467-5.467,14.331,0,19.798l62.226,62.226c5.467,5.468,14.332,5.468,19.799,0l4.242-4.242
		C114.331,167.693,105.468,167.693,100,162.226z"/>
</g>
</svg>
