<?xml version="1.0" encoding="utf-8"?>
<!-- Generator: Adobe Illustrator 16.0.0, SVG Export Plug-In . SVG Version: 6.00 Build 0)  -->
<!DOCTYPE svg PUBLIC "-//W3C//DTD SVG 1.1//EN" "http://www.w3.org/Graphics/SVG/1.1/DTD/svg11.dtd">
<svg version="1.1" id="圖層_1" xmlns="http://www.w3.org/2000/svg" xmlns:xlink="http://www.w3.org/1999/xlink" x="0px" y="0px"
	 width="200px" height="200px" viewBox="0 0 200 200" enable-background="new 0 0 200 200" xml:space="preserve">
<g>
	<path fill="#EFC75E" d="M120.079,2.037c54.102,11.089,88.974,63.938,77.885,118.042c-11.09,54.104-63.94,88.974-118.043,77.885
		C25.819,186.875-9.053,134.025,2.036,79.921C13.126,25.817,65.977-9.052,120.079,2.037z"/>
	<path fill="#DADFE1" d="M159.74,157.159l-137.149-28.11l-5.498,26.833c14.122,20.952,36.124,36.608,62.828,42.082
		c26.705,5.473,53.092-0.266,74.317-13.973L159.74,157.159z M166.566,123.852L29.418,95.741c0,0-11.06,53.977-7.714,37.651
		c-1.504,7.34,9.75,15.845,25.136,18.998l-0.001,0.002l77.143,15.812v-0.002c17.756,3.64,33.548-0.275,35.283-8.744
		C155.499,177.828,166.566,123.852,166.566,123.852z M171.787,98.381L34.638,70.271c0,0-9.452,46.14-6.106,29.815
		c-1.504,7.339,9.192,15.731,23.89,18.743l-0.001,0.002l76.949,15.771l0.001-0.002c18.552,3.803,34.987,0.02,36.724-8.448
		L171.787,98.381z"/>
	<g>
		<path fill="#E1E5E7" d="M131.596,194.864c7.997-2.674,15.606-6.33,22.646-10.876l17.947-87.566l-19.593-4.016L131.596,194.864z
			 M17.092,155.878c4.683,6.949,10.237,13.303,16.541,18.907l20.196-98.54L34.236,72.23L17.092,155.878z"/>
	</g>
	<path fill="#F2F1EF" d="M149.119,76.375c0.032-9.713-14.75-20.371-34.794-24.479c-15.51-3.179-29.603-1.936-37.017,3.109
		c-1.785-0.659-3.665-1.244-5.699-1.66c-10.653-2.184-20.219,0.597-21.26,5.675c-0.207,1.01-0.29,2.624,0.155,3.66
		c-8.756,0.608-14.942,3.108-15.947,8.012c-1.504,7.339,9.75,15.845,25.137,18.999l-0.001,0.006l77.143,15.811v-0.001
		c17.754,3.639,33.545-0.276,35.281-8.747C173.647,89.284,163.693,80.772,149.119,76.375z"/>
	<path fill="#9ECEC7" d="M105.251,109.242c-1.622-0.332-3.209,0.715-3.541,2.337c-0.333,1.622,0.714,3.209,2.337,3.541
		c1.622,0.333,3.208-0.714,3.541-2.336C107.92,111.161,106.874,109.575,105.251,109.242z M98.425,142.55
		c-1.623-0.332-3.209,0.715-3.542,2.337c-0.332,1.622,0.714,3.209,2.337,3.541c1.622,0.333,3.209-0.714,3.541-2.336
		C101.094,144.469,100.047,142.883,98.425,142.55z M115.109,180.677c-1.623-0.333-3.209,0.714-3.542,2.337
		c-0.332,1.622,0.714,3.208,2.337,3.541c1.622,0.332,3.209-0.714,3.541-2.337C117.778,182.596,116.731,181.009,115.109,180.677z
		 M91.598,175.857c-1.623-0.332-3.209,0.715-3.541,2.337c-0.333,1.622,0.714,3.209,2.336,3.541c1.623,0.333,3.209-0.714,3.542-2.336
		C94.267,177.776,93.22,176.19,91.598,175.857z"/>
	<path fill="#3DB39E" d="M117.007,111.652c-1.622-0.333-3.209,0.714-3.541,2.336c-0.333,1.623,0.714,3.209,2.336,3.542
		c1.623,0.332,3.209-0.715,3.542-2.337C119.676,113.57,118.629,111.984,117.007,111.652z M127.558,119.939
		c1.622,0.332,3.209-0.714,3.541-2.337c0.333-1.622-0.714-3.209-2.336-3.541c-1.623-0.333-3.209,0.714-3.542,2.337
		C124.889,118.021,125.936,119.606,127.558,119.939z M110.18,144.96c-1.622-0.333-3.208,0.714-3.541,2.336
		c-0.332,1.623,0.714,3.209,2.337,3.542c1.622,0.332,3.208-0.715,3.541-2.337C112.85,146.878,111.803,145.292,110.18,144.96z
		 M121.936,147.369c-1.622-0.333-3.209,0.714-3.541,2.337c-0.333,1.622,0.714,3.208,2.336,3.541
		c1.623,0.332,3.209-0.714,3.542-2.337C124.604,149.288,123.559,147.701,121.936,147.369z M103.354,178.268
		c-1.623-0.333-3.209,0.714-3.542,2.336c-0.332,1.623,0.715,3.209,2.337,3.541c1.623,0.333,3.209-0.714,3.541-2.336
		C106.022,180.186,104.976,178.6,103.354,178.268z"/>
	<path fill="#C4C8CA" d="M88.999,103.87L59.61,97.846c-1.081-0.221-2.14,0.475-2.361,1.558l-0.401,1.959
		c-0.222,1.083,0.477,2.14,1.558,2.361l29.389,6.023c1.081,0.222,2.14-0.475,2.361-1.558l0.401-1.96
		C90.778,105.147,90.08,104.092,88.999,103.87z M87.393,111.707l-29.389-6.023c-1.081-0.222-2.14,0.475-2.361,1.558l-0.401,1.959
		c-0.222,1.083,0.477,2.14,1.558,2.361l29.389,6.023c1.081,0.222,2.14-0.475,2.361-1.558l0.401-1.96
		C89.172,112.985,88.474,111.929,87.393,111.707z M82.172,137.178l-29.389-6.023c-1.081-0.222-2.139,0.475-2.361,1.558l-0.401,1.959
		c-0.222,1.083,0.477,2.14,1.558,2.36l29.39,6.024c1.081,0.222,2.139-0.475,2.36-1.558l0.401-1.96
		C83.952,138.455,83.253,137.399,82.172,137.178z M80.565,145.015l-29.389-6.023c-1.081-0.222-2.139,0.475-2.36,1.558l-0.402,1.959
		c-0.222,1.083,0.477,2.14,1.558,2.361l29.39,6.023c1.081,0.222,2.139-0.475,2.36-1.558l0.402-1.96
		C82.346,146.293,81.646,145.236,80.565,145.015z M75.346,170.485l-29.39-6.023c-1.081-0.222-2.139,0.475-2.36,1.558l-0.401,1.959
		c-0.223,1.083,0.477,2.14,1.558,2.36l29.389,6.024c1.081,0.222,2.139-0.475,2.361-1.558l0.401-1.96
		C77.125,171.763,76.427,170.707,75.346,170.485z M73.739,178.322l-29.39-6.023c-1.08-0.222-2.139,0.475-2.36,1.558l-0.401,1.959
		c-0.223,1.083,0.477,2.14,1.558,2.361l29.389,6.023c1.081,0.222,2.139-0.475,2.361-1.558l0.401-1.96
		C75.519,179.6,74.82,178.544,73.739,178.322z"/>
	<path fill="#CECDCB" d="M107.229,64.733c-10.822-2.218-20.387-0.143-21.601,5.781s6.763,11.594,17.585,13.812
		c10.821,2.218,20.491-0.37,21.601-5.78C125.922,73.136,118.051,66.951,107.229,64.733z M115.315,74.242l-12.455,3.835
		c-0.519,0.157-1.167,0.12-1.765-0.045c-0.707-0.043-1.45-0.279-1.928-0.684l-3.913-3.318c-0.721-0.61-0.574-1.326,0.328-1.603
		c0.898-0.277,2.211-0.008,2.932,0.601l2.934,2.487l11.273-3.471c0.897-0.274,2.205-0.006,2.922,0.599
		C116.361,73.248,116.214,73.965,115.315,74.242z"/>
	<path fill="#AEB2B4" d="M159.74,157.159l-1.257,6.112l0.781-3.813c-1.735,8.469-17.527,12.384-35.283,8.744v0.002l-77.143-15.812
		l0.001-0.002c-15.386-3.153-26.64-11.658-25.136-18.998l-0.63,3.077l1.521-7.42l-0.004-0.001l-2.354,11.484
		c3.719,6.464,13.368,12.208,26,14.797l77.142,15.813c14.568,2.984,27.684,1.079,34.369-4.268L159.74,157.159z M166.566,123.852
		l-1.361,6.621l0.887-4.322c-1.736,8.469-18.172,12.251-36.722,8.449l-0.001,0.002L52.418,118.83l0.001-0.002
		c-14.696-3.013-25.394-11.403-23.89-18.743l-0.717,3.496l1.607-7.839l-0.002,0l-2.355,11.491
		c3.625,6.388,12.887,12.102,24.754,14.534l76.95,15.774c15.472,3.169,29,1.418,35.807-3.966L166.566,123.852z"/>
	<g>
		<path fill="#BFC2C4" d="M165.205,130.473l0.887-4.322c-1.269,6.186-10.394,9.854-22.443,9.91l-0.624,3.047
			c9.269,0.077,16.947-1.894,21.549-5.532l1.993-9.724l-0.002-0.001L165.205,130.473z M44.887,119.878l0.608-2.972
			c-10.967-3.853-18.219-10.698-16.964-16.821l-0.686,3.344l1.576-7.688l-0.004-0.001l-2.355,11.491
			C29.945,112.31,36.399,116.958,44.887,119.878z"/>
	</g>
	<g>
		<path fill="#BFC2C4" d="M158.573,162.833l0.691-3.375c-1.301,6.345-10.49,10.132-22.482,10.104l-0.611,2.983
			c9.182,0.092,16.933-1.957,21.577-5.67l1.992-9.716l-0.002-0.001L158.573,162.833z M38.081,153.08l0.61-2.979
			c-11.003-4.005-18.209-10.744-16.986-16.71l-0.603,2.939l1.492-7.282l-0.003-0.001l-2.354,11.482
			C23.104,145.519,29.51,150.069,38.081,153.08z"/>
	</g>
</g>
</svg>
