<?xml version="1.0" encoding="utf-8"?>
<!-- Generator: Adobe Illustrator 16.0.0, SVG Export Plug-In . SVG Version: 6.00 Build 0)  -->
<!DOCTYPE svg PUBLIC "-//W3C//DTD SVG 1.1//EN" "http://www.w3.org/Graphics/SVG/1.1/DTD/svg11.dtd">
<svg version="1.1" id="圖層_1" xmlns="http://www.w3.org/2000/svg" xmlns:xlink="http://www.w3.org/1999/xlink" x="0px" y="0px"
	 width="200px" height="200px" viewBox="0 0 200 200" enable-background="new 0 0 200 200" xml:space="preserve">
<g>
	<path fill="#82D2ED" d="M0,100C0,44.771,44.771,0,100,0s100,44.771,100,100s-44.771,100-100,100S0,155.229,0,100z"/>
	<path fill="#324D5B" d="M46,154h108c4.418,0,8-3.582,8-8V21.57C144.957,8.078,123.428,0,100,0S55.044,8.078,38,21.57V146
		C38,150.418,41.582,154,46,154z"/>
	<path fill="#2B414D" d="M52,108v46h4v-44h88v44h4V12.262C133.75,4.449,117.396,0,100,0S66.25,4.449,52,12.262V108z"/>
	<g>
		<circle fill="#3A5461" cx="100" cy="132" r="12"/>
		<path fill="#3A5461" d="M82,136v-8c0-1.104-0.895-2-2-2h-4c-1.104,0-2,0.896-2,2v8c0,1.104,0.896,2,2,2h4
			C81.105,138,82,137.104,82,136z M70,136v-8c0-1.104-0.894-2-2-2h-4c-1.104,0-2,0.896-2,2v8c0,1.104,0.896,2,2,2h4
			C69.106,138,70,137.104,70,136z M130,128v8c0,1.104,0.895,2,2,2h4c1.105,0,2-0.896,2-2v-8c0-1.104-0.895-2-2-2h-4
			C130.895,126,130,126.896,130,128z M118,128v8c0,1.104,0.895,2,2,2h4c1.105,0,2-0.896,2-2v-8c0-1.104-0.895-2-2-2h-4
			C118.895,126,118,126.896,118,128z"/>
	</g>
	<path fill="#2B414D" d="M96,132c0-2.207,1.793-4,4-4s4,1.793,4,4s-1.793,4-4,4S96,134.207,96,132z"/>
</g>
<g>
	<path fill-rule="evenodd" clip-rule="evenodd" fill="#82D2ED" d="M81.043,60.37c0.168-0.773,0.397-1.529,0.67-2.271
		c1.202-3.282,3.127-6.068,5.77-8.356c1.794-1.553,3.808-2.742,6.025-3.582c1.201-0.455,2.436-0.786,3.7-0.997
		c1.46-0.244,2.929-0.333,4.408-0.247c0.066,0.004,0.12-0.014,0.177-0.041c1.568-0.73,3.181-1.343,4.837-1.839
		c1.156-0.347,2.324-0.649,3.515-0.854c1-0.173,2.011-0.211,3.024-0.165c0.843,0.039,1.675,0.151,2.489,0.38
		c0.843,0.237,1.631,0.588,2.322,1.134c0.984,0.777,1.565,1.8,1.82,3.018c0.189,0.905,0.188,1.817,0.081,2.731
		c-0.204,1.758-0.749,3.421-1.409,5.052c-0.104,0.261-0.216,0.52-0.33,0.777c-0.035,0.076-0.027,0.132,0.012,0.204
		c0.844,1.539,1.475,3.162,1.89,4.868c0.28,1.157,0.455,2.331,0.528,3.52c0.067,1.063,0.042,2.123-0.055,3.182
		c-0.017,0.181-0.048,0.36-0.06,0.541c-0.007,0.081-0.042,0.097-0.108,0.09c-0.035-0.003-0.07,0-0.104,0c-9.437,0-18.873,0-28.308,0
		c-0.165,0-0.166,0-0.161,0.167c0.066,2.273,0.95,4.188,2.568,5.768c1.218,1.189,2.674,1.96,4.328,2.349
		c1.758,0.412,3.502,0.353,5.22-0.207c2.122-0.69,3.799-1.966,4.981-3.87c0.034-0.054,0.067-0.079,0.136-0.079
		c3.461,0.001,6.921,0.001,10.382,0.001c0.016,0,0.031,0.002,0.063,0.003c-0.043,0.123-0.084,0.24-0.129,0.356
		c-1.248,3.275-3.214,6.043-5.895,8.297c-2.201,1.85-4.691,3.161-7.462,3.938c-1.318,0.37-2.662,0.599-4.029,0.69
		c-1.182,0.079-2.361,0.058-3.54-0.069c-2.142-0.23-4.191-0.794-6.151-1.685c-0.154-0.07-0.308-0.143-0.459-0.22
		c-0.064-0.033-0.117-0.034-0.182,0c-1.271,0.652-2.581,1.212-3.927,1.688c-1.176,0.415-2.374,0.752-3.604,0.965
		c-0.978,0.169-1.961,0.253-2.952,0.17c-0.98-0.083-1.915-0.321-2.753-0.864c-0.877-0.568-1.463-1.369-1.837-2.333
		c-0.312-0.803-0.455-1.641-0.509-2.496c-0.094-1.493,0.072-2.968,0.338-4.434c0.191-1.06,0.438-2.106,0.733-3.141
		c0.145-0.504,0.373-0.979,0.587-1.458c1.723-3.849,3.852-7.461,6.32-10.875c1.229-1.7,2.55-3.328,3.961-4.881
		c1.121-1.232,2.296-2.41,3.531-3.528c0.03-0.028,0.07-0.049,0.093-0.105c-0.132,0.033-0.239,0.096-0.35,0.149
		c-1.19,0.573-2.288,1.296-3.34,2.088c-1.764,1.328-3.369,2.831-4.905,4.411c-0.634,0.651-1.25,1.316-1.855,1.993
		c-0.025,0.028-0.056,0.053-0.084,0.079C81.053,60.379,81.047,60.375,81.043,60.37z M100.785,62.03c2.978,0,5.955-0.001,8.933,0.001
		c0.095,0.001,0.131-0.012,0.125-0.123c-0.046-0.886-0.223-1.745-0.557-2.565c-0.944-2.316-2.609-3.92-4.903-4.871
		c-1.855-0.768-3.778-0.907-5.733-0.46c-2.142,0.49-3.906,1.595-5.243,3.348c-1.022,1.339-1.58,2.857-1.673,4.543
		c-0.007,0.117,0.034,0.128,0.131,0.128C94.838,62.029,97.812,62.03,100.785,62.03z M81.627,71.519
		c-0.312,0.641-0.599,1.268-0.862,1.905c-0.671,1.617-1.237,3.265-1.483,5.007c-0.123,0.868-0.152,1.737,0.012,2.605
		c0.179,0.94,0.613,1.718,1.4,2.289c0.822,0.596,1.75,0.857,2.75,0.901c0.84,0.037,1.664-0.074,2.478-0.269
		c1.338-0.32,2.604-0.832,3.827-1.452c0.198-0.1,0.394-0.207,0.608-0.32c-2.048-1.221-3.813-2.738-5.308-4.564
		C83.553,75.797,82.416,73.77,81.627,71.519z M107.818,46.232c4.141,1.655,7.388,4.362,9.779,8.117
		c0.02-0.044,0.035-0.075,0.047-0.106c0.159-0.426,0.315-0.853,0.455-1.286c0.392-1.21,0.712-2.436,0.762-3.716
		c0.028-0.708-0.042-1.403-0.301-2.069c-0.502-1.286-1.866-2.354-3.298-2.596c-1.013-0.171-2.016-0.087-3.014,0.109
		c-1.024,0.202-2.013,0.523-2.98,0.909C108.781,45.788,108.302,45.997,107.818,46.232z M91.617,51.656
		c-0.003-0.002-0.006-0.007-0.009-0.007c-0.002,0-0.005,0.004-0.007,0.006c0.002,0.002,0.004,0.006,0.006,0.006
		C91.611,51.662,91.613,51.659,91.617,51.656z"/>
	<path fill-rule="evenodd" clip-rule="evenodd" fill="#82D2ED" d="M81.056,60.383c-0.003,0.008-0.003,0.023-0.017,0.015
		c-0.003-0.002,0.002-0.019,0.004-0.028C81.047,60.375,81.053,60.379,81.056,60.383z"/>
	
		<rect x="91.604" y="51.652" transform="matrix(0.8575 -0.5145 0.5145 0.8575 -13.5218 54.494)" fill-rule="evenodd" clip-rule="evenodd" fill="#82D2ED" width="0.011" height="0.009"/>
</g>
</svg>
