<?xml version="1.0" encoding="utf-8"?>
<!-- Generator: Adobe Illustrator 16.0.0, SVG Export Plug-In . SVG Version: 6.00 Build 0)  -->
<!DOCTYPE svg PUBLIC "-//W3C//DTD SVG 1.1//EN" "http://www.w3.org/Graphics/SVG/1.1/DTD/svg11.dtd">
<svg version="1.1" id="圖層_1" xmlns="http://www.w3.org/2000/svg" xmlns:xlink="http://www.w3.org/1999/xlink" x="0px" y="0px"
	 width="200px" height="200px" viewBox="0 0 200 200" enable-background="new 0 0 200 200" xml:space="preserve">
<g>
	<path fill="#3DB39E" d="M37.53,21.914C80.655-12.588,143.585-5.597,178.086,37.528c34.502,43.126,27.511,106.055-15.614,140.558
		c-43.126,34.5-106.055,27.51-140.557-15.616C-12.586,119.344-5.596,56.416,37.53,21.914z"/>
	<path fill="#37A18E" d="M90.228,87.177c-1.306,1.77-3.788,2.151-5.556,0.856L43.143,57.542c-1.765-1.297-2.14-3.78-0.837-5.548
		L76.566,5.511c22.842-5.412,47-2.591,67.998,7.94L90.228,87.177z M91.881,160.283c-4.702,3.761-10.192,5.856-15.769,6.409
		l-1.087,9.802c-0.386,3.455-3.498,5.944-6.952,5.562c-3.456-0.385-5.947-3.499-5.561-6.951l1.09-9.827
		c-5.288-1.768-10.148-5.004-13.89-9.679c-10.35-12.938-8.252-31.817,4.686-42.168c12.938-10.35,31.816-8.253,42.167,4.685
		C106.915,131.053,104.818,149.932,91.881,160.283z"/>
	<path fill="#324D5B" d="M90.54,84.366c-1.305,1.77-3.789,2.151-5.556,0.856L43.453,54.73c-1.762-1.297-2.139-3.781-0.836-5.548
		L76.878,2.699c22.842-5.411,47-2.59,67.999,7.941L90.54,84.366z"/>
	<path fill="#F2F1EF" d="M92.817,151.85c-4.702,3.762-10.191,5.856-15.768,6.408l-1.088,9.803c-0.385,3.454-3.498,5.945-6.951,5.562
		c-3.456-0.385-5.948-3.498-5.562-6.952l1.091-9.826c-5.289-1.768-10.149-5.003-13.89-9.68
		c-10.351-12.938-8.253-31.816,4.684-42.166c12.938-10.351,31.817-8.253,42.168,4.685C107.853,122.62,105.755,141.499,92.817,151.85
		z"/>
	<path fill="#9B481A" d="M60.332,111.244c9.488-7.59,23.333-6.052,30.923,3.437c7.591,9.487,6.053,23.331-3.435,30.922
		c-9.488,7.59-23.332,6.052-30.924-3.436C49.307,132.679,50.845,118.835,60.332,111.244z"/>
	<path fill="#E4E7E7" d="M180.515,159.323l-50.71-19.784c-2.08-0.809-3.108-3.153-2.29-5.233l31.359-78.15
		c0.813-2.082,3.158-3.109,5.239-2.299l29.727,11.598C205.384,96.798,200.484,132.25,180.515,159.323L180.515,159.323z"/>
	<g>
		<path fill="#D7D8D8" d="M193.45,65.302l-3.8-1.482l-33.686,85.923l3.803,1.485L193.45,65.302z M140.761,143.813l3.8,1.483
			l33.684-85.925l-3.798-1.48L140.761,143.813z M199.761,93.931c-0.177-2.951-0.483-5.891-0.921-8.824l-27.668,70.569l3.802,1.485
			L199.761,93.931L199.761,93.931z"/>
	</g>
	<path fill="#CCD0D2" d="M126.699,124.062c-1.797-0.681-3.758,0.021-4.379,1.563c-0.621,1.545,0.335,3.355,2.131,4.036l8.365,3.179
		c1.797,0.68,3.761-0.021,4.379-1.563c0.623-1.546-0.332-3.354-2.131-4.036L126.699,124.062z M131.201,112.867
		c-1.799-0.682-3.76,0.017-4.381,1.563c-0.623,1.544,0.331,3.353,2.13,4.034l8.365,3.177c1.799,0.683,3.759-0.021,4.38-1.563
		c0.622-1.549-0.332-3.354-2.13-4.034L131.201,112.867z M135.697,101.668c-1.797-0.681-3.759,0.019-4.378,1.565
		c-0.622,1.545,0.33,3.352,2.129,4.033l8.366,3.179c1.798,0.682,3.758-0.021,4.379-1.563c0.621-1.547-0.332-3.355-2.127-4.035
		L135.697,101.668z M140.196,90.471c-1.797-0.681-3.759,0.019-4.379,1.564c-0.623,1.544,0.331,3.352,2.13,4.034l8.366,3.176
		c1.796,0.685,3.757-0.019,4.379-1.562c0.62-1.547-0.335-3.354-2.128-4.036L140.196,90.471z M144.694,79.273
		c-1.798-0.681-3.759,0.019-4.38,1.565c-0.619,1.546,0.333,3.352,2.131,4.034l8.367,3.176c1.795,0.685,3.758-0.018,4.378-1.563
		c0.622-1.548-0.334-3.353-2.128-4.035L144.694,79.273z M149.194,68.077c-1.797-0.684-3.761,0.017-4.382,1.564
		c-0.619,1.546,0.334,3.35,2.13,4.031l8.368,3.178c1.795,0.685,3.757-0.018,4.38-1.563c0.62-1.547-0.333-3.353-2.13-4.035
		L149.194,68.077z M162.06,60.056l-8.369-3.175c-1.796-0.685-3.759,0.016-4.379,1.561c-0.621,1.547,0.334,3.353,2.13,4.034
		l8.367,3.178c1.798,0.683,3.757-0.02,4.38-1.564C164.81,62.543,163.855,60.737,162.06,60.056z"/>
	<path fill="#8B4117" d="M60.957,118.429c9.487-7.591,23.333-6.053,30.924,3.435c2.005,2.508,3.355,5.321,4.109,8.243
		c0.412-5.367-1.109-10.894-4.735-15.426c-7.59-9.488-21.435-11.026-30.923-3.437c-6.98,5.584-9.64,14.551-7.543,22.682
		C53.242,128.063,56.004,122.392,60.957,118.429z"/>
	<path fill="#D0D3D3" d="M131.01,136.014c-1.705-0.663-2.686-2.361-2.536-4.096l-0.959,2.388c-0.818,2.08,0.21,4.425,2.29,5.233
		l50.71,19.784c0.788-1.07,1.512-2.176,2.253-3.269L131.01,136.014z"/>
	<g>
		<path fill="#B9BCBE" d="M145.936,141.793l-3.809-1.474l-1.366,3.493l3.8,1.483L145.936,141.793z M176.377,153.578l-3.805-1.473
			l-1.4,3.571l3.8,1.481L176.377,153.578z M161.157,147.686l-3.805-1.473l-1.388,3.53l3.803,1.485L161.157,147.686z"/>
	</g>
	<g>
		<path fill="#B7BBBD" d="M144.063,104.844l-0.538-0.204l-2.195,5.619l0.487,0.184c1.722,0.654,3.57,0.03,4.274-1.374l0.172-0.438
			C146.695,107.145,145.77,105.49,144.063,104.844z M134.831,133.05c1.068-0.175,1.977-0.809,2.366-1.776
			c0.623-1.546-0.332-3.354-2.131-4.035l-0.322-0.122l-1.998,5.12L134.831,133.05z M137.316,121.641
			c1.797,0.679,3.759-0.021,4.378-1.565c0.623-1.548-0.33-3.353-2.127-4.034l-0.431-0.163l-2.195,5.618L137.316,121.641z
			 M162.06,60.056l-0.973-0.368l-2.194,5.617l0.916,0.349c1.209,0.46,2.479,0.285,3.378-0.342l1.106-2.83
			C164.051,61.447,163.244,60.505,162.06,60.056z M148.562,93.646l-0.646-0.242l-2.194,5.617l0.592,0.224
			c1.501,0.572,3.105,0.165,3.96-0.878l0.588-1.507C150.939,95.54,150.046,94.209,148.562,93.646z M157.561,71.253l-0.861-0.326
			l-2.194,5.617l0.808,0.307c1.287,0.489,2.649,0.26,3.553-0.472l0.971-2.485C159.662,72.776,158.828,71.734,157.561,71.253z
			 M153.063,82.451l-0.756-0.289l-2.194,5.621l0.7,0.265c1.375,0.522,2.844,0.231,3.733-0.626l0.827-2.112
			C155.287,84.113,154.414,82.965,153.063,82.451z"/>
	</g>
	<path fill="#324D5B" d="M46.624,15.447c1.345,7.719,2.532,15.211,10.882,18.686l1.557-4.266c-6.876-2.858-7.553-9.245-8.838-16.613
		C49.012,13.952,47.816,14.693,46.624,15.447z"/>
	<g>
		<path fill="#2D4552" d="M100.15,28.39c0.904,0.665,2.172,0.475,2.836-0.428l3.6-4.902c0.663-0.903,0.467-2.175-0.436-2.842
			l-4.91-3.618c-0.905-0.665-2.175-0.477-2.838,0.427l-3.599,4.902c-0.663,0.904-0.466,2.176,0.436,2.843L100.15,28.39z
			 M73.855,36.717l-4.911-3.619c-0.903-0.666-2.172-0.476-2.836,0.426l-3.602,4.903c-0.663,0.903-0.465,2.173,0.438,2.841
			l4.909,3.617c0.904,0.667,2.174,0.476,2.838-0.427l3.6-4.901C74.955,38.654,74.758,37.383,73.855,36.717z M93.055,10.571
			l-4.91-3.619c-0.904-0.666-2.173-0.476-2.836,0.427l-3.601,4.904c-0.664,0.902-0.465,2.173,0.437,2.84l4.911,3.619
			c0.902,0.666,2.173,0.475,2.837-0.427l3.601-4.902C94.155,12.508,93.958,11.236,93.055,10.571z M119.35,2.243
			c0.668,0.495,1.536,0.513,2.211,0.125c-0.936-0.207-1.876-0.393-2.816-0.572L119.35,2.243z M108.003,3.956L104.4,8.86
			c-0.66,0.9-0.465,2.173,0.437,2.84l4.91,3.618c0.906,0.663,2.176,0.474,2.838-0.427l3.601-4.904
			c0.661-0.903,0.467-2.174-0.437-2.84l-4.909-3.62C109.936,2.863,108.664,3.053,108.003,3.956z M58.254,57.959
			c0.905,0.664,2.175,0.475,2.837-0.427l3.601-4.904c0.661-0.903,0.467-2.174-0.436-2.843l-4.912-3.619
			c-0.905-0.664-2.174-0.474-2.836,0.428l-3.604,4.903c-0.66,0.903-0.465,2.173,0.438,2.842L58.254,57.959z M91.744,2.048l4.91,3.62
			c0.904,0.664,2.175,0.473,2.836-0.429l3.603-4.901l0.121-0.261c-4.085-0.133-8.18-0.026-12.263,0.341
			C90.954,1.039,91.203,1.65,91.744,2.048z M77.786,62.278c0.663-0.901,0.466-2.173-0.438-2.839l-4.908-3.618
			c-0.906-0.665-2.176-0.476-2.84,0.427l-3.599,4.903c-0.661,0.902-0.467,2.174,0.435,2.841l4.911,3.619
			c0.906,0.664,2.176,0.475,2.837-0.428L77.786,62.278z M133.645,10.261l-4.91-3.618c-0.904-0.667-2.173-0.474-2.836,0.428
			L98.297,44.655c-0.662,0.904-0.466,2.174,0.438,2.842l4.912,3.619c0.902,0.666,2.172,0.476,2.835-0.427l27.602-37.586
			C134.744,12.198,134.549,10.928,133.645,10.261L133.645,10.261z M90.548,41.462c0.905,0.667,2.176,0.475,2.838-0.426l3.6-4.902
			c0.663-0.903,0.468-2.176-0.435-2.842l-4.912-3.619c-0.903-0.664-2.174-0.476-2.834,0.426l-3.602,4.904
			c-0.662,0.901-0.468,2.173,0.436,2.841L90.548,41.462z M82.698,65.897l-3.603,4.901c-0.662,0.904-0.467,2.175,0.438,2.842
			l4.91,3.617c0.904,0.667,2.172,0.476,2.834-0.427l3.603-4.902c0.663-0.903,0.468-2.173-0.438-2.841l-4.909-3.618
			C84.63,64.804,83.361,64.994,82.698,65.897z M80.949,54.536c0.904,0.665,2.174,0.474,2.838-0.427l3.6-4.905
			c0.662-0.904,0.465-2.173-0.437-2.84l-4.91-3.619c-0.904-0.664-2.174-0.475-2.837,0.427l-3.6,4.904
			c-0.664,0.901-0.469,2.175,0.435,2.84L80.949,54.536z M83.455,23.642l-4.911-3.618c-0.904-0.665-2.173-0.476-2.835,0.426
			l-3.604,4.904c-0.66,0.903-0.465,2.173,0.438,2.84l4.91,3.62c0.904,0.665,2.175,0.474,2.837-0.427l3.602-4.903
			C84.554,25.581,84.358,24.309,83.455,23.642z M94.043,64.187c0.905,0.665,2.174,0.475,2.837-0.428l3.603-4.902
			c0.662-0.904,0.467-2.174-0.438-2.841l-4.911-3.619c-0.902-0.666-2.174-0.473-2.835,0.427l-3.602,4.905
			c-0.662,0.901-0.467,2.175,0.438,2.839L94.043,64.187z"/>
	</g>
	<g>
		<path fill="#475F6C" d="M100.462,25.578c0.904,0.665,2.173,0.475,2.837-0.427l3.599-4.903c0.664-0.903,0.467-2.175-0.435-2.841
			l-4.911-3.619c-0.904-0.665-2.175-0.477-2.837,0.428l-3.599,4.903c-0.663,0.903-0.466,2.175,0.436,2.842L100.462,25.578z
			 M93.368,7.76l-4.912-3.62c-0.903-0.666-2.171-0.475-2.835,0.427l-3.601,4.904c-0.663,0.903-0.465,2.173,0.437,2.84l4.91,3.619
			c0.903,0.666,2.174,0.475,2.838-0.428l3.6-4.901C94.468,9.697,94.271,8.426,93.368,7.76z M96.967,2.857
			c0.904,0.665,2.175,0.474,2.836-0.428l1.775-2.416c-2.724-0.045-5.448,0.044-8.17,0.222L96.967,2.857L96.967,2.857z
			 M58.566,55.149c0.906,0.663,2.175,0.473,2.837-0.428l3.601-4.904c0.66-0.903,0.467-2.174-0.437-2.843l-4.91-3.619
			c-0.907-0.664-2.175-0.474-2.837,0.427l-3.604,4.904c-0.662,0.903-0.465,2.173,0.438,2.842L58.566,55.149z M109.312,0.46
			c-0.38,0.126-0.741,0.335-0.996,0.684l-3.603,4.905c-0.661,0.9-0.465,2.173,0.437,2.84l4.911,3.619
			c0.905,0.663,2.174,0.473,2.836-0.428l3.602-4.904c0.66-0.903,0.466-2.174-0.437-2.84l-4.909-3.62L110.898,0.6L109.312,0.46z
			 M74.167,33.906l-4.911-3.619c-0.902-0.667-2.171-0.476-2.835,0.426l-3.602,4.902c-0.662,0.904-0.466,2.173,0.438,2.841
			l4.909,3.618c0.904,0.667,2.174,0.474,2.837-0.428l3.601-4.901C75.268,35.843,75.07,34.572,74.167,33.906z M133.957,7.449
			l-3.791-2.794c-1.093-0.345-2.195-0.652-3.299-0.959c-0.25,0.139-0.476,0.319-0.656,0.564L98.609,41.844
			c-0.662,0.904-0.467,2.174,0.438,2.841l4.912,3.62c0.902,0.666,2.171,0.476,2.834-0.427l27.602-37.586
			C135.057,9.386,134.861,8.117,133.957,7.449z M90.86,38.651c0.905,0.667,2.177,0.476,2.838-0.425l3.6-4.903
			c0.663-0.902,0.468-2.175-0.436-2.842l-4.91-3.618c-0.904-0.665-2.175-0.476-2.836,0.426l-3.601,4.904
			c-0.662,0.901-0.467,2.173,0.435,2.841L90.86,38.651z M83.768,20.831l-4.911-3.619c-0.904-0.665-2.173-0.475-2.835,0.427
			l-3.604,4.904c-0.661,0.902-0.465,2.173,0.439,2.84l4.909,3.619c0.904,0.666,2.175,0.474,2.837-0.427l3.602-4.903
			C84.866,22.771,84.671,21.497,83.768,20.831z M83.011,63.086l-3.603,4.902c-0.662,0.903-0.467,2.174,0.438,2.841l4.91,3.617
			c0.904,0.667,2.171,0.476,2.835-0.427l3.601-4.903c0.664-0.903,0.469-2.173-0.437-2.841l-4.909-3.617
			C84.942,61.994,83.674,62.183,83.011,63.086z M74.498,64.371l3.603-4.905c0.662-0.901,0.466-2.173-0.438-2.839l-4.907-3.619
			c-0.907-0.665-2.177-0.475-2.84,0.428l-3.6,4.902c-0.661,0.903-0.466,2.174,0.435,2.842l4.911,3.618
			C72.565,65.463,73.838,65.274,74.498,64.371z M94.356,61.376c0.904,0.665,2.173,0.474,2.837-0.428l3.601-4.903
			c0.663-0.904,0.467-2.174-0.438-2.842l-4.911-3.618c-0.902-0.666-2.175-0.474-2.835,0.426l-3.602,4.906
			c-0.663,0.9-0.468,2.174,0.437,2.838L94.356,61.376z M81.262,51.724c0.904,0.665,2.174,0.476,2.837-0.427l3.601-4.905
			c0.663-0.903,0.465-2.172-0.436-2.839l-4.912-3.619c-0.904-0.665-2.173-0.475-2.837,0.427l-3.599,4.903
			c-0.664,0.902-0.468,2.176,0.436,2.841L81.262,51.724z"/>
	</g>
</g>
</svg>
