<?xml version="1.0" encoding="utf-8"?>
<!-- Generator: Adobe Illustrator 16.0.0, SVG Export Plug-In . SVG Version: 6.00 Build 0)  -->
<!DOCTYPE svg PUBLIC "-//W3C//DTD SVG 1.1//EN" "http://www.w3.org/Graphics/SVG/1.1/DTD/svg11.dtd">
<svg version="1.1" id="圖層_1" xmlns="http://www.w3.org/2000/svg" xmlns:xlink="http://www.w3.org/1999/xlink" x="0px" y="0px"
	 width="200px" height="200px" viewBox="0 0 200 200" enable-background="new 0 0 200 200" xml:space="preserve">
<g>
	<path fill="#E2574C" d="M121.848,2.416c53.894,12.066,87.803,65.538,75.736,119.432c-12.065,53.894-65.537,87.803-119.432,75.736
		C24.259,185.519-9.65,132.047,2.416,78.153C14.481,24.258,67.953-9.65,121.848,2.416z"/>
	<path fill="#CB4E44" d="M173.74,32.479c-1.654-1.812-3.369-3.566-5.161-5.254l-24.419-5.467l2.309-10.311
		c-1.213-0.634-2.444-1.238-3.689-1.826l-2.522,11.263L97.32,11.271l2.521-11.263c-1.375,0.001-2.749,0.022-4.116,0.078
		l-2.309,10.311L68.998,4.93c-2.339,0.764-4.64,1.619-6.91,2.552l10.938,2.449l-4.37,19.517L37.01,22.363
		c-1.297,1.05-2.566,2.13-3.807,3.247l7.256,1.625L36.09,46.751l-18.059-4.043c-0.819,1.172-1.622,2.355-2.394,3.563l46.901,10.5
		L58.17,76.289L6.446,64.708c-0.471,1.255-0.935,2.513-1.36,3.794l24.887,5.572l-4.37,19.517L0.719,88.021
		c-0.162,1.341-0.279,2.677-0.388,4.012l51.722,11.58l-4.369,19.517l-46.902-10.5c0.182,1.424,0.402,2.836,0.646,4.243l18.059,4.043
		l-4.369,19.517l-7.256-1.624c0.646,1.538,1.332,3.061,2.06,4.56l31.646,7.085l-4.37,19.518l-10.938-2.449
		c1.657,1.81,3.373,3.565,5.163,5.255l24.419,5.467l-2.309,10.31c1.213,0.636,2.446,1.24,3.689,1.828l2.522-11.264l42.937,9.612
		l-2.521,11.265c1.377-0.002,2.75-0.025,4.117-0.081l2.308-10.31l24.419,5.467c2.341-0.765,4.641-1.621,6.908-2.552l-3.129-0.701
		l4.369-19.517l23.84,5.337c1.297-1.046,2.566-2.131,3.807-3.246l-7.256-1.625l4.369-19.517l18.059,4.043
		c0.818-1.17,1.622-2.353,2.394-3.563l-39.095-8.752l4.369-19.518l43.917,9.832c0.471-1.253,0.935-2.513,1.358-3.795l-24.885-5.57
		l4.37-19.518l24.884,5.571c0.164-1.34,0.28-2.675,0.39-4.012l-43.917-9.832l4.37-19.517l39.095,8.753
		c-0.183-1.422-0.404-2.834-0.646-4.244l-18.059-4.043l4.369-19.517l7.256,1.625c-0.646-1.539-1.333-3.057-2.06-4.56l-23.839-5.337
		l4.369-19.517L173.74,32.479z M123.77,21.292l42.938,9.613l-4.369,19.517L119.4,40.809L123.77,21.292z M70.229,132.275
		l42.938,9.613l-4.37,19.517l-42.937-9.612L70.229,132.275z M51.587,124.003l4.369-19.517l42.937,9.612l-4.369,19.517
		L51.587,124.003z M98.427,134.489l4.37-19.517l42.937,9.612l-4.369,19.518L98.427,134.489z M119.284,114.564l-42.938-9.612
		l4.369-19.517l42.938,9.613L119.284,114.564z M62.073,77.162l4.369-19.517l42.938,9.613l-4.369,19.517L62.073,77.162z
		 M108.914,87.649l4.369-19.517l42.938,9.613l-4.37,19.517L108.914,87.649z M129.771,67.724l-42.938-9.613l4.37-19.517l42.937,9.613
		L129.771,67.724z M76.93,10.805l42.937,9.613l-4.369,19.517L72.56,30.322L76.93,10.805z M39.993,47.625l4.369-19.517L87.3,37.721
		l-4.37,19.517L39.993,47.625z M29.506,94.465l4.37-19.517l42.937,9.613l-4.369,19.517L29.506,94.465z M19.02,141.306l4.369-19.517
		l42.938,9.612l-4.369,19.518L19.02,141.306z M84.037,180.456L41.1,170.844l4.37-19.518l42.937,9.613L84.037,180.456z
		 M130.877,190.942L87.94,181.33l4.369-19.517l42.938,9.612L130.877,190.942z M160.007,152.375l-4.369,19.517l-42.938-9.612
		l4.37-19.517L160.007,152.375z M170.494,105.534l-4.37,19.518l-42.937-9.613l4.369-19.517L170.494,105.534z M180.98,58.694
		l-4.369,19.517l-42.938-9.613l4.369-19.517L180.98,58.694z"/>
	<path fill="#C04A41" d="M96.358,70.492c22.636,5.067,36.878,27.526,31.81,50.162c-5.067,22.635-27.525,36.877-50.161,31.81
		c-22.635-5.068-36.877-27.526-31.81-50.162C51.266,79.666,73.724,65.424,96.358,70.492z"/>
	<path fill="#AD423A" d="M46.767,122.924c0.431,1.518,0.971,2.995,1.565,4.449l17.994,4.028l-3.239,14.469
		c1.152,0.808,2.354,1.558,3.595,2.252l3.548-15.847l42.938,9.613l-0.692,3.089c2.314-1.745,4.467-3.713,6.386-5.913l-20.434-4.575
		l4.37-19.517l25.371,5.681c0.295-1.317,0.51-2.635,0.678-3.947l-5.658-1.268l3.834-17.126c-0.846-2.549-1.929-5.001-3.233-7.333
		l-14.874-3.33l2.365-10.564c-1.152-0.809-2.354-1.556-3.596-2.252l-2.673,11.943l-42.198-9.447
		c-1.391,0.991-2.732,2.048-3.994,3.205l17.994,4.029l-4.369,19.517l-25.176-5.636c-0.408,1.26-0.775,2.542-1.07,3.859l5.855,1.312
		l-4.369,19.517L46.767,122.924z M80.716,85.435l42.938,9.613l-4.369,19.517l-42.938-9.612L80.716,85.435z M55.956,104.486
		l42.937,9.612l-4.369,19.517l-42.937-9.612L55.956,104.486z"/>
	<path fill="#F1CF76" d="M142.207,9.348l-29.122,55.654l7.088,3.708l29.153-55.713C147.018,11.688,144.639,10.476,142.207,9.348z"/>
	<path fill="#F1ABA6" d="M179.094,96.997l-9.723-15.331l-25.586,4.439l6.447,10.162l-18.406,4.498l38.596,8.785l-7.505-11.832
		L179.094,96.997L179.094,96.997z M112.388,133.872l7.217,17.647l-11.915,0.173l11.482,23.548l17.975-0.259l-8.93-13.76
		l13.871-0.201L112.388,133.872z M71.584,52.348L54.789,32.396l-17.373,5.355l11.969,11.03l-13.408,4.133l35.334,18.327
		L60.067,55.896L71.584,52.348z M19.807,108.666l10.53,9.141l-15.749,4.674l13.646,11.846l24.03-10.464l-9.047-7.85l16.944-8.74
		L19.807,108.666L19.807,108.666z"/>
	<g>
		<path fill="#DEBF6D" d="M121.169,49.555l-1.933,3.696l8.092,1.79l1.935-3.698L121.169,49.555z M116.522,58.438l-1.935,3.698
			l8.092,1.786l1.935-3.696L116.522,58.438z M125.818,40.669l-1.935,3.697l8.094,1.789l1.932-3.694L125.818,40.669z M135.054,23.019
			l-1.935,3.697l8.094,1.79l1.932-3.695L135.054,23.019z M139.702,14.136l-1.935,3.697l8.092,1.789l1.935-3.697L139.702,14.136z
			 M130.467,31.789l-1.935,3.694l8.092,1.79l1.935-3.695L130.467,31.789z"/>
	</g>
	<g>
		<path fill="#E5A7A2" d="M115.114,166.919l19.656,4.4l-3.113-4.796l-18.787-4.206L115.114,166.919z M55.295,107.44l-4.132,0.144
			l-1.096,4.895l4.635-2.391L55.295,107.44z M137.146,174.981l-2.004-3.089l-0.7,3.128L137.146,174.981z M64.222,67.566l1.028-4.595
			l-3.139-4.286l-1.563,6.976L64.222,67.566z M170.42,109.549l-0.609-0.961l-0.176,0.781L170.42,109.549z M159.041,83.456
			l-4.266,0.742l-2.925,13.063l-2.97-0.665l-8.755,2.139l27.314,6.116l-3.029-4.778l-8.657-1.938L159.041,83.456z M18.396,125.785
			l3.432,2.979l1.562-6.976l22.214,4.973l6.219-2.706l-0.234-0.053l0.136-0.61l-3.432-2.978l-0.607,2.714l-20.11-4.502l-8.115,2.41
			L18.396,125.785z M37.986,38.279l3.398,3.128l1.173-5.239l-4.402,1.358L37.986,38.279z M60.068,55.902l7.104-2.193l-19.561-4.379
			l-7.703,2.375l20.439,4.576L60.068,55.902z M110.982,151.645l-1.043,4.66l2.808,5.765l2.348-10.482L110.982,151.645z
			 M114.073,137.992l2.626,6.425l0.371-1.654l6.678,1.495l-5.938-5.429L114.073,137.992z"/>
	</g>
	<path fill="#324D5B" d="M109.176,59.015c22.635,5.067,36.877,27.526,31.81,50.161s-27.526,36.877-50.161,31.81
		s-36.877-27.526-31.81-50.161C64.082,68.189,86.541,53.947,109.176,59.015z"/>
	<path fill="#3C5663" d="M123.013,88.756c2.157,0.483,3.512,2.624,3.029,4.777s-2.62,3.513-4.777,3.029
		c-2.153-0.482-3.512-2.624-3.029-4.777C118.718,89.632,120.858,88.274,123.013,88.756z"/>
	<path fill="#2F4856" d="M98.427,134.489c-22.635-5.067-36.877-27.526-31.81-50.161c1.673-7.471,5.269-14,10.112-19.25
		c-8.683,5.784-15.256,14.764-17.715,25.746c-5.067,22.635,9.175,45.094,31.81,50.161c15.164,3.395,30.221-1.904,40.052-12.561
		C121.664,134.561,110.08,137.099,98.427,134.489z"/>
</g>
</svg>
