<?xml version="1.0" encoding="utf-8"?>
<!-- Generator: Adobe Illustrator 16.0.0, SVG Export Plug-In . SVG Version: 6.00 Build 0)  -->
<!DOCTYPE svg PUBLIC "-//W3C//DTD SVG 1.1//EN" "http://www.w3.org/Graphics/SVG/1.1/DTD/svg11.dtd">
<svg version="1.1" id="圖層_1" xmlns="http://www.w3.org/2000/svg" xmlns:xlink="http://www.w3.org/1999/xlink" x="0px" y="0px"
	 width="200px" height="200px" viewBox="0 0 200 200" enable-background="new 0 0 200 200" xml:space="preserve">
<g>
	<path fill="#324D5B" d="M100,0c55.229,0,100,44.771,100,100s-44.771,100-100,100S0,155.229,0,100S44.771,0,100,0z"/>
	<path fill="#2B424D" d="M42,50v104h142.146C194.164,138.422,200,119.898,200,100c0-18.219-4.898-35.289-13.412-50H42z"/>
	<path fill="#ECF0F1" d="M42,46v104h144.588C195.102,135.289,200,118.219,200,100c0-19.898-5.836-38.422-15.854-54H42z"/>
	<path fill="#BFBFBF" d="M78.033,124.021h39.959v5.963H78.033v-5.961V124.021z"/>
	<path fill="#26A6D1" d="M158.035,102.027h7.961v7.963h-7.961V102.027z"/>
	<path fill="#F4B459" d="M158.035,112.027h7.961v7.963h-7.961V112.027z"/>
	<path fill="#E2574C" d="M158.035,122.027h7.961v7.963h-7.961V122.027z"/>
	<path fill="#BFBFBF" d="M158.035,64.021v5.963h23.959v-5.963H158.035z M158.035,79.859h23.959v-5.838h-23.959V79.859z
		 M173.992,84.021h-15.959v5.838h15.959V84.021z M167.941,109.99h12.105v-7.963h-12.105V109.99z M167.941,119.99h12.105v-7.963
		h-12.105V119.99z M167.941,129.99h12.105v-7.963h-12.105V129.99z"/>
	<path fill="#576E79" d="M184.146,46c-6.66-10.359-15.168-19.408-25.076-26.674L42,46H184.146z"/>
	<path fill="#233640" d="M56.668,171.598c-1.244-1.512-1.244-1.512-0.41-7.125c1.424-6.281,2.713-2.381,4.748-14.914
		c1.709-10.523-1.936-19.564-13.006-19.564c-11.068,0-14.715,9.041-13.006,19.564c2.035,12.533,3.324,8.633,4.748,14.914
		c0.834,5.615,0.834,5.615-0.41,7.125c-1.17,1.422-3.082,2.52-5.393,3.445c9.268,8.164,20.049,14.656,31.885,18.959H90
		c0,0-0.986-5.988-1.197-7.07C87.023,177.789,62.564,178.758,56.668,171.598z"/>
	<path fill="#44545C" d="M42,131.992c11.07,0,14.715,9.043,13.006,19.566c-2.033,12.531-3.324,8.633-4.748,14.914
		c-0.834,5.613-0.834,5.613,0.41,7.123c5.896,7.16,30.355,6.189,32.135,15.334c0.129,0.67,0.557,3.225,0.865,5.07H90
		c0,0-0.986-5.988-1.197-7.07c-1.779-9.145-26.238-8.174-32.135-15.334c-1.244-1.512-1.244-1.512-0.41-7.123
		c1.424-6.281,2.713-2.383,4.748-14.914c1.709-10.523-1.936-19.566-13.006-19.566c-3.189,0-5.744,0.77-7.75,2.092
		C40.814,132.031,41.391,131.992,42,131.992z"/>
	<path fill="#233640" d="M159.018,169.797c-1.006-1.227-1.006-1.227-0.332-5.791c1.152-5.104,2.199-1.934,3.842-12.119
		c1.385-8.547-1.564-15.895-10.527-15.895s-11.91,7.348-10.527,15.895c1.643,10.186,2.689,7.016,3.842,12.119
		c0.674,4.563,0.674,4.563-0.332,5.791c-4.771,5.82-24.572,5.031-26.014,12.457c-0.17,0.879-0.969,5.748-0.969,5.748l15.061,6.377
		c12.826-4.492,24.465-11.508,34.301-20.477C163.756,172.895,160.578,171.703,159.018,169.797z"/>
	<path fill="#44545C" d="M139.787,172.9c-5.906,2.146-14.441,3.146-18.535,6.146C127.219,176.879,135.781,175.891,139.787,172.9z
		 M159.018,169.797c-1.006-1.227-1.006-1.227-0.332-5.791c1.152-5.104,2.199-1.934,3.842-12.119
		c1.385-8.547-1.564-15.895-10.527-15.895c-3.066,0-5.412,0.875-7.137,2.35c0.953-0.225,1.994-0.35,3.137-0.35
		c8.961,0,11.912,7.348,10.527,15.895c-1.643,10.186-2.689,7.016-3.842,12.119c-0.674,4.563-0.674,4.563,0.332,5.791
		c1.746,2.127,5.508,3.371,9.643,4.457c0.91-0.773,1.82-1.547,2.703-2.354C163.756,172.895,160.578,171.703,159.018,169.797z"/>
	<path fill="#233640" d="M65.332,193.82C76.133,197.813,87.811,200,100,200c15.438,0,30.055-3.504,43.109-9.75
		c-8.27-2.064-16.076-4.314-19.52-8.457c-1.805-2.172-1.805-2.172-0.594-10.238c2.066-9.033,3.938-3.426,6.895-21.438
		c2.479-15.129-2.814-28.129-18.891-28.129s-21.369,13-18.891,28.129c2.957,18.012,4.828,12.404,6.895,21.438
		c1.211,8.066,1.211,8.066-0.594,10.238C93.051,188.24,77.125,190.104,65.332,193.82z"/>
	<path fill="#44545C" d="M123.59,181.793c-1.805-2.172-1.805-2.172-0.594-10.238c2.066-9.033,3.938-3.426,6.895-21.438
		c2.479-15.129-2.814-28.129-18.891-28.129c-4.109,0-7.504,0.859-10.256,2.375c1.334-0.223,2.73-0.375,4.256-0.375
		c16.076,0,21.371,13,18.891,28.129c-2.959,18.012-4.828,12.404-6.895,21.438c-1.211,8.066-1.211,8.066,0.594,10.238
		c3.574,4.299,11.85,6.559,20.465,8.691c1.707-0.703,3.395-1.441,5.053-2.234C134.84,188.186,127.033,185.936,123.59,181.793z"/>
	<g>
		<path fill="#E2574C" d="M110.448,92.132v5.972H96.962v-13.89l13.016-4.361V67.642H89.646V60.86h33.823v26.578L110.448,92.132z
			 M96.962,112v-11.142h13.486V112H96.962z"/>
	</g>
</g>
</svg>
