<?xml version="1.0" encoding="utf-8"?>
<!-- Generator: Adobe Illustrator 16.0.0, SVG Export Plug-In . SVG Version: 6.00 Build 0)  -->
<!DOCTYPE svg PUBLIC "-//W3C//DTD SVG 1.1//EN" "http://www.w3.org/Graphics/SVG/1.1/DTD/svg11.dtd">
<svg version="1.1" id="圖層_1" xmlns="http://www.w3.org/2000/svg" xmlns:xlink="http://www.w3.org/1999/xlink" x="0px" y="0px"
	 width="200px" height="200px" viewBox="0 0 200 200" enable-background="new 0 0 200 200" xml:space="preserve">
<g>
	<path fill="#2EA9D3" d="M83.24,1.415c54.447-9.256,106.09,27.378,115.346,81.826s-27.379,106.089-81.826,115.346
		C62.313,207.842,10.671,171.207,1.414,116.76C-7.842,62.312,28.793,10.67,83.24,1.415z M83.24,1.415
		c54.447-9.256,106.09,27.378,115.346,81.826s-27.379,106.089-81.826,115.346C62.313,207.842,10.671,171.207,1.414,116.76
		C-7.842,62.312,28.793,10.67,83.24,1.415z"/>
	<path fill="#2998BD" d="M83.911,5.358C59.907,9.438,39.372,21.764,24.7,38.93l22.261,130.948l6.881-7.257l8.893,4.575l6.882-7.256
		l8.893,4.574l6.881-7.256l8.893,4.574l6.881-7.256l8.893,4.574l6.882-7.256l8.892,4.574l6.882-7.256l8.893,4.574l6.881-7.256
		l8.893,4.574l6.881-7.256l8.893,4.574L150.89,17.478C131.367,6.125,107.914,1.277,83.911,5.358z"/>
	<path fill="#F2F1EF" d="M83.24,1.415C59.237,5.495,38.702,17.821,24.029,34.987l22.262,130.947l6.881-7.256l8.893,4.575
		l6.881-7.256l8.893,4.574l6.881-7.256l8.893,4.574l6.882-7.256l8.893,4.574l6.881-7.256l8.893,4.574l6.881-7.256l8.893,4.574
		l6.882-7.256l8.893,4.574l6.881-7.256l8.893,4.574L150.219,13.534C130.696,2.182,107.244-2.666,83.24,1.415z"/>
	<path fill="#E4665C" d="M110.123,121.45l-0.552-3.246c1.066-0.055,1.808,0.37,2.621,0.232c0.954-0.163,1.414-1.12,1.252-2.071
		c-0.299-1.758-3.07-1.888-4.475-1.7l-0.129-0.755c-0.112-0.662-0.194-1.147-0.822-1.041c-0.628,0.107-0.546,0.592-0.433,1.255
		l0.128,0.755c-2.709,0.785-4.594,3.218-4.063,6.341c0.595,3.492,3.494,3.653,5.814,3.958l0.693,4.076
		c-1.373,0.083-2.667-0.501-3.664-0.332c-0.955,0.163-1.427,1.047-1.266,1.998c0.357,2.1,3.632,2.098,5.522,1.823l0.129,0.757
		c0.096,0.563,0.195,1.147,0.822,1.041c0.628-0.106,0.528-0.692,0.433-1.254l-0.132-0.78c2.865-0.741,4.881-3.241,4.329-6.489
		C115.664,122.094,112.496,121.752,110.123,121.45z M108.793,121.225c-0.793-0.166-1.342-0.449-1.45-1.082
		c-0.132-0.78,0.315-1.384,0.978-1.698L108.793,121.225z M111.396,128.944l-0.605-3.562c0.938,0.167,1.646,0.524,1.783,1.329
		C112.736,127.663,112.332,128.536,111.396,128.944z M128.559,126.154l-4.253,0.723c1.535-2.947,4.563-6.929,3.986-10.322
		c-0.527-3.1-3.164-4.686-6.023-4.2c-2.857,0.486-5.045,3.396-4.522,6.473c0.162,0.949,0.884,1.681,1.999,1.491
		c2.233-0.38,0.28-4.117,2.955-4.572c0.953-0.162,1.824,0.594,1.995,1.597c0.148,0.876-0.119,1.702-0.429,2.408
		c-1.31,2.982-3.03,5.538-4.549,8.282c-0.182,0.33-0.411,0.823-0.324,1.335c0.19,1.123,1.063,1.476,2.086,1.302l7.766-1.32
		c0.884-0.15,1.59-0.771,1.399-1.894C130.454,126.335,129.583,125.979,128.559,126.154z M140.64,117.671
		c1.134-1.074,1.533-2.521,1.271-4.062c-0.324-1.904-2.361-4.194-5.712-3.625c-2.58,0.438-4.718,2.912-4.394,4.816
		c0.153,0.903,0.863,1.712,1.82,1.549c1.579-0.269,0.872-2.61,3.078-2.986c1.048-0.178,1.798,0.422,1.955,1.352
		c0.461,2.71-3.136,1.538-2.7,4.101c0.489,2.881,4.016-0.304,4.596,3.112c0.221,1.294-0.59,2.434-1.799,2.64
		c-2.629,0.446-2.74-2.471-4.323-2.201c-0.835,0.142-1.671,0.987-1.509,1.938c0.328,1.929,2.919,4.225,6.358,3.64
		c3.302-0.562,5.44-3.461,4.942-6.39C143.891,119.629,142.451,118.189,140.64,117.671z"/>
	<path fill="#D9D8D7" d="M55.952,103.431l86.755-14.748l0.671,3.943l-86.756,14.748L55.952,103.431z"/>
	<path fill="#868686" d="M47.563,54.087l70.981-12.067l-1.34-7.881L46.224,46.206L47.563,54.087z M104.113,52.596l-55.208,9.385
		l1.34,7.881l55.208-9.386L104.113,52.596z M52.927,85.635l67.038-11.396l-1.34-7.879L51.588,77.756L52.927,85.635z M125.094,32.806
		l1.348,7.926l7.887-1.341l-1.348-7.926L125.094,32.806z M129.123,56.506l7.887-1.341l-1.348-7.926l-7.887,1.341L129.123,56.506z
		 M131.804,72.28l7.888-1.341l-1.348-7.927l-7.888,1.341L131.804,72.28z"/>
	<g>
		<path fill="#E4665C" d="M58.184,9.157c-2.553,1.173-5.047,2.439-7.467,3.81l2.691,15.835l7.887-1.34L58.184,9.157z M65.771,6.056
			c-1.282,0.465-2.553,0.953-3.808,1.469l3.274,19.266l3.944-0.67L65.771,6.056z M47.034,15.171
			c-1.864,1.165-3.688,2.386-5.463,3.666l1.979,11.641l5.915-1.006L47.034,15.171z M75.412,3.098
			c-1.961,0.496-3.898,1.04-5.807,1.645l3.521,20.707l5.915-1.006L75.412,3.098z M83.24,1.415c-1.322,0.225-2.626,0.495-3.926,0.771
			l3.67,21.588l3.943-0.67L83.24,1.415z M119.855,1.992c-1.388-0.281-2.782-0.529-4.186-0.753l2.805,16.501l3.943-0.67
			L119.855,1.992z M124.073,2.937l2.289,13.463l3.943-0.67l-1.979-11.641C126.92,3.672,125.5,3.292,124.073,2.937z M95.195,0.135
			c-2.652,0.13-5.317,0.36-7.994,0.709l3.67,21.589l7.887-1.341L95.195,0.135z M103.295,0.038c-1.35-0.042-2.706-0.047-4.064-0.033
			l3.471,20.417l3.945-0.671L103.295,0.038z M111.516,0.667c-1.369-0.159-2.741-0.297-4.124-0.398l3.198,18.812l3.941-0.67
			L111.516,0.667z"/>
	</g>
</g>
</svg>
