<?xml version="1.0" encoding="utf-8"?>
<?xml-stylesheet type="text/css" href="../../css/animate.min.css"?>
<!DOCTYPE svg PUBLIC "-//W3C//DTD SVG 1.1//EN" "http://www.w3.org/Graphics/SVG/1.1/DTD/svg11.dtd">
<svg version="1.1" id="圖層_1" xmlns="http://www.w3.org/2000/svg" xmlns:xlink="http://www.w3.org/1999/xlink" x="0px" y="0px"
 viewBox="0 0 662.069 332.138" enable-background="new 0 0 662.069 332.138"
xml:space="preserve">
<g id="conv1">
<g>
<path fill="#808080" d="M88.718,82.643c-1.248,1.742-2.529,3.047-3.845,3.915l-0.506-0.575c1.514-0.999,2.736-2.229,3.669-3.688 L88.718,82.643z M94.563,81.245h-9.046v-5.75h9.046V81.245z M93.848,80.543v-4.377h-7.616v4.377H93.848z M95.815,86.052 l-0.556,0.544c-1.055-1.291-2.394-2.556-4.017-3.795l0.48-0.506C93.671,83.876,95.036,85.129,95.815,86.052z"/>
<path fill="#808080" d="M111.26,85.155h-4.182v1.391h-0.676v-5.73h-1.436v3.188c0,0.916-0.286,1.554-0.854,1.917 c-0.569,0.362-1.27,0.56-2.1,0.594l-0.26-0.594c1.48-0.144,2.296-0.557,2.448-1.24c-1.75,0.139-3.127,0.234-4.13,0.285 l-0.133-0.626c1.906-0.072,3.357-0.159,4.352-0.259c0.021-0.22,0.026-0.413,0.014-0.582h-3.771v-0.569h3.771v-0.683h-4.017 v-0.588h4.017v-0.841h-2.967v-2.138h8.603v2.138h-2.86v0.841h3.859v0.588h-3.859v0.854h3.574v0.569h-3.574v0.879h4.182V85.155z M111.26,78.07H99.988v-0.557h5.351v-0.854h-3.51c-0.531,0.35-0.845,0.544-0.942,0.582l-0.481-0.532 c0.877-0.35,1.545-0.881,2.005-1.593l0.608,0.284c-0.093,0.194-0.26,0.424-0.5,0.69h2.821v-0.937h0.69v0.937h4.377v0.569h-4.377 v0.854h5.231V78.07z M109.243,80.233v-0.999h-7.206v0.999H109.243z"/>
<path fill="#808080" d="M124.927,84.692h-5.143l0.322,0.424c-1.337,0.675-2.754,1.168-4.25,1.48l-0.335-0.614 c1.388-0.232,2.705-0.662,3.954-1.291h-2.012v-4.744h7.464V84.692z M119.24,78.721h-3.624V78.07h3.624V78.721z M119.138,76.387 h-3.264v-0.62h3.264V76.387z M124.255,81.295v-0.74h-6.104v0.74H124.255z M124.255,82.681v-0.803h-6.104v0.803H124.255z M124.255,84.079v-0.816h-6.104v0.816H124.255z M126.869,79.133l-0.286,0.632c-1.656-0.244-2.947-0.748-3.871-1.512 c-0.742,0.713-1.731,1.204-2.966,1.474l-0.348-0.62c1.589-0.244,2.685-0.892,3.288-1.941l0.709,0.126 c-0.026,0.105-0.125,0.274-0.298,0.506C123.971,78.515,125.228,78.96,126.869,79.133z M126.596,76.76 c-0.439,0.62-0.843,1.109-1.214,1.468l-0.493-0.468c0.333-0.337,0.647-0.704,0.942-1.101h-4.739 c-0.349,0.443-0.743,0.831-1.183,1.164l-0.449-0.449c0.742-0.556,1.369-1.318,1.88-2.284l0.632,0.222l-0.412,0.715h5.035V76.76z M126.792,86.015l-0.309,0.594c-1.261-0.472-2.515-0.835-3.758-1.087l0.323-0.583C124.393,85.213,125.641,85.572,126.792,86.015z "/>
<path fill="#808080" d="M135.342,77.153h-4.302v-0.639h2.012c-0.118-0.32-0.305-0.708-0.562-1.164l0.588-0.284 c0.257,0.455,0.48,0.938,0.67,1.448h1.594V77.153z M134.969,79.044h-3.618v-0.639h3.618V79.044z M134.931,80.897h-3.58v-0.613 h3.58V80.897z M134.931,86.312h-0.689v-0.778h-2.1v0.98h-0.684v-4.339h3.473V86.312z M134.241,84.907v-2.093h-2.1v2.093H134.241z M142.711,83.592c-0.093,0.826-0.254,1.509-0.483,2.049c-0.23,0.54-0.49,0.809-0.781,0.809c-0.452,0-0.759-0.452-0.924-1.356 c-0.165-0.905-0.247-1.656-0.247-2.255v-6.673h-2.586v4.067h2.042v0.62h-2.042v5.693h-0.677v-5.693h-1.499v-0.62h1.499v-4.067 h-1.398v-0.62h5.326v6.838c0,1.113,0.067,1.951,0.199,2.511c0.133,0.561,0.229,0.841,0.288,0.841c0.06,0,0.168-0.274,0.33-0.822 c0.16-0.548,0.267-1.111,0.322-1.689L142.711,83.592z"/>
<path fill="#808080" d="M150.811,80.802c-0.498,0.224-1.041,0.449-1.632,0.677v4.168c0,0.245-0.098,0.457-0.291,0.636 c-0.194,0.179-0.741,0.256-1.639,0.23l-0.271-0.721c0.261,0.013,0.508,0.019,0.74,0.019c0.362,0,0.586-0.026,0.67-0.079 c0.084-0.052,0.127-0.145,0.127-0.275v-3.732c-0.469,0.161-1.042,0.338-1.721,0.532l-0.234-0.614 c0.722-0.215,1.374-0.421,1.956-0.62v-2.916h-1.854v-0.671h1.854v-2.283h0.664v2.283h1.461v0.671h-1.461v2.644 c0.363-0.11,0.841-0.299,1.436-0.57L150.811,80.802z M157.972,85.983l-0.386,0.588c-1.371-0.603-2.45-1.261-3.238-1.973 c-1.101,0.771-2.383,1.425-3.847,1.96c-0.005,0.004-0.007,0.004-0.01,0c-0.002-0.004-0.01-0.012-0.021-0.025 c-0.013-0.013-0.047-0.058-0.102-0.136s-0.15-0.225-0.284-0.439c1.349-0.417,2.609-1.024,3.783-1.822 c-0.864-0.982-1.508-2.188-1.93-3.618h-0.594V79.86h2.682v-2.113h-2.865v-0.658h2.865v-1.936h0.696v1.936h3.018v0.658h-3.018 v2.113h2.423v0.658c-0.257,0.948-0.579,1.698-0.964,2.249c-0.386,0.55-0.819,1.023-1.3,1.42 C155.604,84.861,156.635,85.46,157.972,85.983z M156.473,80.518h-3.821c0.375,1.256,0.954,2.323,1.733,3.2 C155.426,82.884,156.122,81.817,156.473,80.518z"/>
<path fill="#808080" d="M168.248,78.563l-0.531,0.431c-0.139-0.258-0.304-0.517-0.493-0.778 c-1.565,0.223-3.176,0.377-4.833,0.462l-0.247-0.557c0.792-0.611,1.488-1.588,2.087-2.929l0.67,0.171 c-0.51,1.08-1.076,1.961-1.695,2.644c1.354-0.11,2.55-0.233,3.586-0.374c-0.227-0.32-0.589-0.727-1.087-1.22l0.588-0.373 C167.264,77.018,167.915,77.859,168.248,78.563z M167.407,85.768c0,0.215-0.08,0.396-0.237,0.543 c-0.159,0.148-0.333,0.23-0.525,0.247c-0.193,0.017-0.604,0.026-1.237,0.026l-0.272-0.652c0.206,0.013,0.409,0.019,0.606,0.019 c0.417,0,0.686-0.015,0.807-0.044c0.12-0.03,0.181-0.107,0.181-0.234v-2.106c-1.24,0.561-2.258,0.979-3.056,1.252l-0.298-0.437 c-0.096,0.768-0.301,1.493-0.614,2.176l-0.594-0.341c0.396-1.021,0.594-2.052,0.594-3.093v-3.485h4.644V85.768z M166.731,82.839 v-2.555h-3.278v0.923c0.895,0.161,1.831,0.416,2.809,0.765l-0.31,0.583c-1-0.333-1.833-0.563-2.499-0.69v1.259 c0,0.362-0.017,0.716-0.05,1.062C164.247,83.925,165.355,83.476,166.731,82.839z M173.467,84.313 c-0.042,0.654-0.133,1.131-0.272,1.433c-0.139,0.301-0.303,0.496-0.491,0.584s-0.539,0.133-1.053,0.133l-1.942-0.025 c-0.291,0-0.525-0.083-0.702-0.25c-0.177-0.167-0.265-0.389-0.265-0.667V80.65h0.657v1.878h3.721v0.62h-3.721v2.309 c0,0.249,0.156,0.374,0.469,0.374c1.316,0,2.066-0.011,2.252-0.032c0.186-0.021,0.333-0.107,0.443-0.256 c0.108-0.149,0.195-0.615,0.259-1.395L173.467,84.313z M173.328,80.12h-3.771c-0.235,0-0.43-0.085-0.579-0.253 c-0.15-0.168-0.225-0.369-0.225-0.601v-4.029h0.645v1.62h3.707v0.62h-3.707v1.695c0,0.207,0.116,0.31,0.348,0.31h3.581V80.12z"/>
<path fill="#808080" d="M48.613,99.302c-0.587,1.058-1.208,1.974-1.867,2.745l-0.531-0.411c0.67-0.75,1.275-1.631,1.815-2.644 L48.613,99.302z M57.5,98.511H46.24v-0.646h1.924v-2.214H46.5v-0.664h1.664v-1.569h0.658v1.569h1.67v-1.569h0.664v1.569h1.682 v-1.569h0.646v1.569h1.727v-1.569h0.632v1.569h1.398v0.664h-1.398v2.214H57.5V98.511z M57.043,92.875h-8.854 c-0.304,0.346-0.745,0.728-1.323,1.145l-0.518-0.468c0.868-0.582,1.809-1.529,2.821-2.84l0.664,0.247 c-0.312,0.426-0.658,0.858-1.037,1.296h8.248V92.875z M50.491,97.866v-2.214h-1.67v2.214H50.491z M51.01,101.92l-0.658,0.126 c-0.026-0.945-0.161-1.889-0.405-2.833l0.652-0.146C50.834,99.996,50.972,100.946,51.01,101.92z M52.837,97.866v-2.214h-1.682 v2.214H52.837z M54.26,101.832l-0.632,0.241c-0.181-0.755-0.519-1.687-1.012-2.796l0.62-0.234 C53.637,99.856,53.979,100.786,54.26,101.832z M55.21,97.866v-2.214h-1.727v2.214H55.21z M57.487,101.75l-0.595,0.31 c-0.392-0.902-0.923-1.813-1.594-2.732l0.62-0.31C56.602,100.008,57.124,100.919,57.487,101.75z"/>
<path fill="#808080" d="M64.538,97.695c-0.789,1.843-1.554,3.289-2.296,4.339l-0.57-0.411c0.788-1.063,1.562-2.497,2.321-4.302 L64.538,97.695z M64.525,95.639l-0.481,0.519c-0.473-0.536-1.184-1.099-2.138-1.689l0.412-0.532 C63.359,94.596,64.095,95.163,64.525,95.639z M64.765,92.426l-0.474,0.481c-0.599-0.62-1.3-1.178-2.101-1.676l0.423-0.506 C63.454,91.239,64.171,91.806,64.765,92.426z M73.046,96.569h-4.068c-0.919,1.83-1.859,3.308-2.821,4.434 c1.852-0.207,3.587-0.502,5.206-0.886c-0.452-0.755-0.917-1.432-1.397-2.03l0.568-0.342c1.118,1.497,1.942,2.823,2.473,3.979 l-0.569,0.405c-0.24-0.574-0.487-1.054-0.74-1.442c-1.906,0.426-4.035,0.776-6.389,1.05l-0.272-0.696 c0.396-0.164,0.893-0.683,1.493-1.556c0.599-0.874,1.151-1.845,1.658-2.916h-3.176v-0.645h3.719v-2.556h-3.117v-0.645h3.117 v-2.012h0.664v2.012h3.069v0.645h-3.069v2.556h3.651V96.569z"/>
<path fill="#808080" d="M88.591,97.36h-4.264v3.523c0,0.11,0.049,0.191,0.145,0.244c0.097,0.053,0.591,0.08,1.481,0.08 c0.792,0,1.266-0.031,1.419-0.092c0.154-0.061,0.25-0.699,0.288-1.914l0.696,0.26c-0.026,1.122-0.16,1.807-0.405,2.056 c-0.244,0.248-0.862,0.373-1.853,0.373c-1.122,0-1.758-0.027-1.908-0.082c-0.149-0.055-0.276-0.163-0.38-0.322 c-0.103-0.161-0.154-0.361-0.154-0.602V97.36h-2.101c0.009,2.488-1.265,4.055-3.82,4.7l-0.456-0.607 c2.45-0.54,3.629-1.904,3.536-4.093h-3.524v-0.658h11.298V97.36z M88.122,95.083h-0.708v-2.309h-8.951v2.309h-0.728v-2.979h4.807 c-0.337-0.675-0.554-1.099-0.65-1.272l0.714-0.233c0.321,0.557,0.567,1.058,0.741,1.505h4.775V95.083z M86.502,94.811h-7.135 v-0.639h7.135V94.811z"/>
<path fill="#808080" d="M104.085,98.037H92.864v-0.639h3.137c-0.143-0.27-0.41-0.611-0.803-1.025l0.417-0.385h-2.656v-0.582 h5.192V94.33h-4.56v-0.594h4.56v-0.962H93.27v-0.607h10.442v0.607h-4.889v0.962h4.561v0.594h-4.561v1.075h5.199v0.582h-2.732 l0.474,0.455c-0.125,0.19-0.354,0.508-0.682,0.955h3.004V98.037z M102.789,102.104h-0.646v-0.613h-7.331v0.613h-0.676v-3.175 h8.653V102.104z M102.144,100.87v-1.309h-7.331v1.309H102.144z M97.064,91.585l-0.62,0.297c-0.241-0.312-0.557-0.616-0.948-0.912 l0.62-0.322C96.537,90.948,96.853,91.26,97.064,91.585z M101.183,95.987H95.78c0.392,0.438,0.742,0.909,1.05,1.41h3.385 C100.514,97.061,100.836,96.59,101.183,95.987z M101.416,90.946c-0.333,0.4-0.696,0.717-1.088,0.949l-0.689-0.354 c0.379-0.186,0.774-0.492,1.183-0.917L101.416,90.946z"/>
<path fill="#808080" d="M119.643,96.506h-11.222v-0.728h11.222V96.506z"/>
<path fill="#808080" d="M126.586,90.845c-0.051,0.265-0.177,0.736-0.379,1.41l-0.304,1.013v8.824h-0.664v-7.167 c-0.452,0.915-0.789,1.516-1.012,1.803l-0.386-0.626c0.835-1.333,1.539-3.138,2.113-5.415L126.586,90.845z M134.803,102.091 h-0.676v-0.873h-6.244v0.873h-0.676V91.167h7.596V102.091z M134.114,100.586v-8.754h-6.231v8.754H134.114z M133.544,94.457h-2.27 v1.493h1.568v3.523h-3.688v-3.523h1.473v-1.493h-2.163v-0.658h2.15v-1.271h0.658v1.271h2.27V94.457z M132.172,98.796v-2.202 h-2.36v2.202H132.172z"/>
<path fill="#808080" d="M140.797,100.377v4.244h-1.056V94.406h1.056v1.24h0.032c0.553-0.937,1.359-1.404,2.423-1.404 c0.89,0,1.592,0.311,2.107,0.933c0.514,0.623,0.771,1.464,0.771,2.527c0,1.164-0.288,2.099-0.863,2.805 c-0.576,0.707-1.355,1.06-2.337,1.06c-0.911,0-1.611-0.396-2.101-1.189H140.797z M140.797,98.568c0,0.586,0.196,1.083,0.588,1.49 c0.393,0.406,0.875,0.61,1.449,0.61c0.687,0,1.228-0.266,1.622-0.797c0.395-0.532,0.592-1.265,0.592-2.201 c0-0.789-0.186-1.408-0.557-1.857s-0.866-0.674-1.481-0.674c-0.641,0-1.17,0.227-1.588,0.681 c-0.417,0.453-0.626,1.032-0.626,1.736V98.568z"/>
<path fill="#808080" d="M154.116,95.487c-0.194-0.147-0.474-0.221-0.841-0.221c-0.493,0-0.899,0.235-1.217,0.705 c-0.319,0.471-0.479,1.087-0.479,1.851v3.58h-1.056v-6.996h1.056v1.449h0.032c0.161-0.498,0.405-0.884,0.733-1.158 c0.33-0.274,0.692-0.411,1.089-0.411c0.299,0,0.527,0.032,0.683,0.095V95.487z"/>
<path fill="#808080" d="M157.277,97.993c0-1.164,0.317-2.08,0.952-2.749c0.635-0.668,1.498-1.002,2.59-1.002 c1.029,0,1.836,0.322,2.419,0.967c0.585,0.646,0.876,1.537,0.876,2.676c0,1.105-0.316,1.995-0.948,2.669 c-0.632,0.675-1.47,1.012-2.511,1.012c-1.008,0-1.824-0.325-2.445-0.974C157.588,99.942,157.277,99.077,157.277,97.993z M158.353,97.948c0,0.826,0.216,1.486,0.648,1.979c0.433,0.494,1.009,0.74,1.731,0.74c0.733,0,1.301-0.24,1.704-0.721 c0.403-0.48,0.604-1.155,0.604-2.024c0-0.89-0.199-1.576-0.597-2.059c-0.399-0.483-0.969-0.725-1.711-0.725 c-0.727,0-1.304,0.25-1.733,0.75C158.567,96.389,158.353,97.075,158.353,97.948z"/>
<path fill="#808080" d="M169.564,101.099c0,1.146-0.231,2.033-0.692,2.66c-0.462,0.626-1.117,0.939-1.964,0.939 c-0.312,0-0.62-0.074-0.924-0.221v-1c0.342,0.203,0.664,0.304,0.968,0.304c1.041,0,1.562-0.831,1.562-2.493v-6.882h1.05V101.099z M168.369,91.888c0-0.198,0.065-0.366,0.195-0.503c0.131-0.137,0.295-0.206,0.495-0.206c0.198,0,0.365,0.069,0.503,0.208 c0.137,0.139,0.205,0.306,0.205,0.5c0,0.186-0.068,0.348-0.205,0.487c-0.138,0.139-0.305,0.209-0.503,0.209 c-0.203,0-0.369-0.067-0.497-0.202C168.432,92.247,168.369,92.082,168.369,91.888z"/>
<path fill="#808080" d="M180.038,98.164h-4.959c0.021,0.805,0.234,1.422,0.639,1.853c0.405,0.43,0.959,0.645,1.664,0.645 c0.789,0,1.516-0.263,2.183-0.791v1.012c-0.612,0.456-1.421,0.683-2.429,0.683c-0.974,0-1.743-0.318-2.306-0.955 c-0.563-0.637-0.845-1.533-0.845-2.688c0-1.063,0.305-1.942,0.914-2.638c0.609-0.696,1.372-1.043,2.286-1.043 c0.898,0,1.599,0.294,2.101,0.885c0.501,0.59,0.753,1.413,0.753,2.467V98.164z M178.949,97.233 c-0.003-0.658-0.162-1.169-0.474-1.534c-0.312-0.365-0.75-0.547-1.31-0.547c-0.51,0-0.958,0.184-1.344,0.55 c-0.386,0.367-0.63,0.877-0.731,1.531H178.949z"/>
<path fill="#808080" d="M189.086,101.073c-0.543,0.329-1.176,0.493-1.896,0.493c-0.991,0-1.792-0.323-2.401-0.97
c-0.609-0.647-0.914-1.49-0.914-2.527c0-1.16,0.33-2.087,0.987-2.783c0.658-0.696,1.532-1.043,2.625-1.043
c0.603,0,1.142,0.113,1.614,0.341v1.107c-0.524-0.367-1.082-0.551-1.677-0.551c-0.716,0-1.307,0.259-1.773,0.775
c-0.466,0.516-0.7,1.203-0.7,2.059c0,0.835,0.217,1.493,0.652,1.973c0.435,0.481,1.018,0.721,1.752,0.721
c0.62,0,1.198-0.204,1.733-0.614V101.073z"/>
<path fill="#808080" d="M196.568,101.332c-0.257,0.148-0.597,0.222-1.019,0.222c-1.201,0-1.803-0.677-1.803-2.03v-4.207h-1.214 v-0.911h1.214v-1.721l1.051-0.342v2.062h1.771v0.911h-1.771v4.017c0,0.477,0.079,0.816,0.239,1.019 c0.161,0.202,0.428,0.303,0.804,0.303c0.291,0,0.534-0.078,0.728-0.233V101.332z"/>
<path fill="#808080" d="M205.857,97.594c-0.312-0.165-0.467-0.374-0.467-0.626c0-0.123,0.052-0.248,0.157-0.376 c0.106-0.129,0.255-0.193,0.449-0.193c0.405,0,0.608,0.266,0.608,0.797c0,0.435-0.255,0.854-0.766,1.259l-0.272-0.209 C205.76,97.988,205.857,97.771,205.857,97.594z"/>
<path fill="#808080" d="M64.635,112.595h-5.364c-0.186,0.485-0.362,0.877-0.532,1.176h5.042v2.891 c0,0.603-0.449,0.905-1.348,0.905c-0.186,0-0.42-0.013-0.702-0.038l-0.19-0.633c0.252,0.026,0.504,0.038,0.753,0.038 c0.388,0,0.622-0.026,0.702-0.079s0.121-0.142,0.121-0.269v-2.208h-2.315v3.036h-0.632v-3.036h-2.296v3.023H57.24v-3.023h-2.346 v3.27h-0.632v-3.877h3.781c0.17-0.32,0.342-0.712,0.519-1.176h-5.187V112h11.259V112.595z M64.362,110.9h-0.645v-2.126h-4.383 v2.884h-0.646v-2.884h-4.365v2.139h-0.65v-2.733h5.016v-0.974h-4.598v-0.582h9.804v0.582h-4.561v0.974h5.028V110.9z M58.196,110.925c-0.848,0.262-1.863,0.438-3.043,0.531l-0.31-0.588c1.092-0.038,2.124-0.192,3.093-0.462L58.196,110.925z M58.158,109.603l-0.26,0.57c-1.062-0.253-2.026-0.396-2.891-0.431l0.234-0.557C56.309,109.258,57.28,109.397,58.158,109.603z M63.199,109.742c-0.861,0.224-1.87,0.358-3.03,0.405l-0.26-0.594c0.864,0.008,1.866-0.109,3.005-0.354L63.199,109.742z M63.3,110.951l-0.284,0.557c-0.912-0.245-1.93-0.422-3.055-0.531l0.322-0.557C61.501,110.588,62.507,110.765,63.3,110.951z"/>
<path fill="#808080" d="M80.181,113.582h-3.004c-0.469,0.801-0.966,1.449-1.493,1.942c1.771,0.527,3.201,1.04,4.288,1.538 l-0.386,0.587c-1.42-0.662-2.924-1.202-4.51-1.619c-1.433,0.886-3.342,1.415-5.725,1.588l-0.36-0.683 c2.121-0.118,3.847-0.51,5.18-1.176c-1.214-0.3-2.384-0.555-3.511-0.766c0.522-0.459,1.027-0.929,1.513-1.41h-3.264v-0.626h3.865 c0.308-0.299,0.643-0.683,1.006-1.151l0.702,0.208c-0.139,0.194-0.394,0.509-0.765,0.942h3.005 c0.067-0.105,0.181-0.337,0.341-0.696l0.684,0.063c-0.034,0.126-0.12,0.338-0.259,0.632h2.694V113.582z M80.067,107.27h-3.681 v1.284h2.966v3.029h-9.557v-3.029h2.967v-1.284h-3.669v-0.658h10.975V107.27z M72.762,110.938v-1.752h-2.284v1.752H72.762z M76.374,113.582h-3.24c-0.34,0.363-0.691,0.707-1.05,1.031c0.916,0.198,1.867,0.428,2.853,0.689 C75.502,114.809,75.98,114.235,76.374,113.582z M75.696,108.554v-1.284h-2.264v1.284H75.696z M75.696,110.938v-1.752h-2.264 v1.752H75.696z M78.682,110.938v-1.752h-2.296v1.752H78.682z"/>
<path fill="#808080" d="M95.713,112.166l-0.31,0.677c-2.13-0.426-3.888-1.057-5.276-1.892c-1.48,0.776-3.261,1.402-5.345,1.879 l-0.354-0.69c1.855-0.341,3.531-0.881,5.029-1.619c-0.983-0.696-1.736-1.348-2.258-1.955c-0.75,0.544-1.493,1.027-2.227,1.449 l-0.494-0.506c1.771-0.974,3.246-2.092,4.422-3.353l0.594,0.36c-0.22,0.275-0.426,0.491-0.62,0.652h5.073v0.67 c-0.81,1.017-1.862,1.918-3.157,2.707C92.069,111.275,93.71,111.815,95.713,112.166z M94.239,117.637h-0.714v-0.86h-6.54v0.86 h-0.728v-4.51h7.982V117.637z M93.524,116.081v-2.283h-6.54v2.283H93.524z M93.056,107.838H88.11 c-0.102,0.114-0.217,0.221-0.348,0.323c0.62,0.708,1.409,1.371,2.366,1.986C91.316,109.439,92.293,108.669,93.056,107.838z"/>
<path fill="#808080" d="M111.246,109.084h-7.059c0,0.679-0.021,1.43-0.063,2.252h5.542c-0.009,1.265-0.084,2.438-0.229,3.521 c-0.143,1.082-0.282,1.758-0.417,2.03c-0.134,0.272-0.325,0.467-0.572,0.585c-0.247,0.118-0.787,0.177-1.622,0.177 c-0.287,0-0.568-0.004-0.841-0.012l-0.203-0.728c0.405,0.025,0.808,0.038,1.208,0.038c0.624,0,1.001-0.034,1.129-0.102 c0.128-0.067,0.23-0.182,0.306-0.345c0.076-0.162,0.176-0.72,0.3-1.673c0.125-0.953,0.2-1.891,0.225-2.815h-4.896 c-0.164,2.256-1.377,4.116-3.636,5.579l-0.557-0.544c0.784-0.443,1.493-1.036,2.127-1.781c0.635-0.744,1.042-1.537,1.218-2.378 c0.177-0.841,0.266-2.109,0.266-3.805h-3.417v-0.702h5.415c-0.345-0.675-0.76-1.293-1.246-1.854l0.658-0.31 c0.486,0.556,0.942,1.278,1.374,2.164h4.99V109.084z"/>
<path fill="#808080" d="M120.636,109.122c-0.236,0.068-0.5,0.125-0.79,0.171c-0.098,2.223-0.46,3.945-1.089,5.168 c0.632,0.51,1.229,1.046,1.791,1.606l-0.532,0.519c-0.456-0.506-0.986-1.012-1.593-1.518c-0.519,0.78-1.314,1.617-2.385,2.511 l-0.507-0.487c1.109-0.873,1.887-1.68,2.335-2.422c-0.439-0.367-1.078-0.803-1.917-1.31c0.321-1.319,0.568-2.513,0.741-3.58 c-0.556,0.046-0.926,0.069-1.107,0.069v-0.651c0.464-0.013,0.867-0.046,1.208-0.102c0.125-0.797,0.242-1.725,0.348-2.783h0.688 c-0.046,0.662-0.154,1.564-0.322,2.707c0.426-0.039,0.988-0.129,1.684-0.272c0.012-0.409,0.012-0.812,0-1.208h0.682 c0.021,0.456,0.026,0.81,0.014,1.063c0.189-0.025,0.44-0.086,0.752-0.184V109.122z M119.163,109.445 c-0.531,0.11-1.112,0.192-1.739,0.247c-0.232,1.345-0.464,2.455-0.696,3.327c0.531,0.329,1.021,0.67,1.473,1.025 C118.783,112.816,119.103,111.284,119.163,109.445z M126.842,112.235h-2.809v4.231c0,0.468-0.124,0.774-0.37,0.917 c-0.247,0.144-0.716,0.216-1.407,0.216c-0.304,0-0.601-0.011-0.893-0.032l-0.234-0.708c0.422,0.046,0.863,0.069,1.323,0.069 c0.354,0,0.585-0.024,0.692-0.073c0.107-0.049,0.161-0.134,0.161-0.256v-4.364h-3.093v-0.677h3.093v-1.519 c0.895-0.915,1.649-1.847,2.264-2.796h-5.111v-0.67h5.914v0.733c-0.514,0.856-1.294,1.858-2.34,3.005v1.246h2.809V112.235z"/>
<path fill="#808080" d="M142.362,113.81h-4.946v2.803c0,0.282-0.077,0.504-0.23,0.667c-0.155,0.162-0.402,0.257-0.744,0.285 c-0.342,0.027-0.794,0.041-1.36,0.041c-0.271,0-0.521-0.004-0.753-0.013l-0.285-0.708c0.371,0.017,0.757,0.025,1.157,0.025 c0.785,0,1.234-0.033,1.35-0.098c0.116-0.065,0.175-0.188,0.175-0.37v-2.632h-5.624v-0.696h5.624v-2.321h-4.737v-0.671h4.737 v-2.296c-1.519,0.172-3.038,0.271-4.561,0.297l-0.298-0.658c3.888-0.071,6.958-0.456,9.21-1.151l0.405,0.594 c-1.252,0.358-2.609,0.626-4.067,0.803v2.41h4.194v0.671h-4.194v2.321h4.946V113.81z"/>
<path fill="#808080" d="M150.368,112.077c-0.32,0.165-0.791,0.375-1.41,0.632v3.877c0,0.671-0.333,1.006-1,1.006 c-0.359,0-0.64-0.004-0.841-0.013l-0.209-0.657c0.337,0.025,0.583,0.038,0.74,0.038c0.443,0,0.664-0.156,0.664-0.468v-3.498 c-0.333,0.135-0.864,0.321-1.594,0.557l-0.221-0.62c0.696-0.215,1.3-0.435,1.815-0.658v-3.024h-1.651v-0.645h1.651v-2.303h0.646 v2.303h1.346v0.645h-1.346v2.764c0.54-0.223,0.989-0.432,1.346-0.626L150.368,112.077z M157.959,113.063h-6.876v-2.764 l-0.842,0.753l-0.455-0.468c1.092-0.932,1.809-1.7,2.15-2.303l0.595,0.247c-0.117,0.198-0.217,0.354-0.297,0.468h1.79 c-0.062-0.122-0.162-0.287-0.296-0.493l0.606-0.171l0.361,0.664h3.137v0.525h-3.018v0.626h2.638v0.507h-2.638v0.67h2.638v0.506 h-2.638v0.715h3.145V113.063z M157.389,108.123h-6.699v-1.41h0.626v0.867h2.423v-1.278h0.62v1.278h2.423v-0.867h0.606V108.123z M157.598,116.821c0,0.531-0.264,0.797-0.79,0.797h-0.481l-0.152-0.595c0.553,0.046,0.829-0.053,0.829-0.297v-2.562h-1.632v0.31 c0,0.109,0.072,0.164,0.215,0.164h0.95v0.519h-1.089c-0.43,0-0.645-0.181-0.645-0.544v-0.449h-1.196 c-0.308,0.797-0.881,1.37-1.72,1.721l-0.368-0.456c0.806-0.342,1.304-0.763,1.493-1.265h-1.682v3.454h-0.64v-3.972h6.908V116.821 z M154.201,110.147v-0.607h-2.448l-0.076,0.089v0.518H154.201z M154.201,111.324v-0.67h-2.523v0.67H154.201z M154.201,112.544 v-0.715h-2.523v0.715H154.201z M155.707,117.169h-3.137v-1.594h3.137V117.169z M155.137,116.688v-0.62h-1.986v0.62H155.137z"/>
<path fill="#808080" d="M173.453,113.81h-4.946v2.803c0,0.282-0.077,0.504-0.231,0.667c-0.155,0.162-0.401,0.257-0.743,0.285 c-0.342,0.027-0.794,0.041-1.36,0.041c-0.271,0-0.521-0.004-0.753-0.013l-0.285-0.708c0.371,0.017,0.757,0.025,1.157,0.025 c0.785,0,1.234-0.033,1.35-0.098c0.116-0.065,0.174-0.188,0.174-0.37v-2.632h-5.623v-0.696h5.623v-2.321h-4.737v-0.671h4.737 v-2.296c-1.518,0.172-3.038,0.271-4.56,0.297l-0.298-0.658c3.888-0.071,6.958-0.456,9.209-1.151l0.405,0.594 c-1.252,0.358-2.608,0.626-4.067,0.803v2.41h4.194v0.671h-4.194v2.321h4.946V113.81z"/>
<path fill="#808080" d="M189.05,110.015l-0.437,0.569c-2.177-0.907-3.935-2.058-5.276-3.454 c-1.168,1.176-2.916,2.332-5.244,3.466l-0.43-0.582c2.36-1.004,4.248-2.294,5.661-3.871l0.658,0.259 c-0.034,0.097-0.098,0.191-0.19,0.284C185.146,108.049,186.899,109.158,189.05,110.015z M187.418,117.637h-0.684v-0.86h-6.774 v0.86h-0.702v-5.149h8.16V117.637z M186.734,116.093v-2.916h-6.774v2.916H186.734z M186.709,110.691h-6.711v-0.689h6.711V110.691 z"/>
<path fill="#808080" d="M196.864,106.403c-0.273,0.62-0.531,1.181-0.771,1.683l-0.36,0.715v8.817h-0.697v-7.578 c-0.737,1.042-1.239,1.704-1.505,1.987l-0.374-0.652c1.232-1.438,2.25-3.169,3.056-5.193L196.864,106.403z M204.531,108.693 h-4.105v2.258h3.535v0.658h-3.535v2.422h3.783v0.677h-3.783v2.91h-0.689v-8.925h-1.203c-0.421,0.978-1.035,1.99-1.84,3.036 l-0.456-0.557c1.067-1.315,1.907-2.992,2.518-5.028l0.607,0.259c-0.076,0.287-0.258,0.826-0.544,1.619h5.712V108.693z"/>
</g>
<polyline fill="none" stroke="#989898" stroke-miterlimit="10" stroke-dasharray="4" points="19.603,128.469 217.413,128.469 233.332,151.896"/>
</g>
<g id="conv2">
<g>
<path fill="#808080" d="M449.879,125.303l-0.495,0.455c-0.763-0.886-1.496-1.611-2.2-2.176c-0.569,0.801-1.224,1.551-1.961,2.251 h3.682v0.645h-1.594v1.443h2.188v0.632h-2.188v3.928c0.928-0.194,1.717-0.385,2.371-0.575l0.013,0.677 c-1.531,0.422-3.323,0.801-5.376,1.139l-0.185-0.67c0.811-0.118,1.646-0.257,2.505-0.417v-4.08h-2.232v-0.632h2.232v-1.443 h-1.453v-0.594c-0.249,0.236-0.513,0.458-0.791,0.664l-0.374-0.601c1.493-1.219,2.524-2.423,3.093-3.612l0.601,0.322 c-0.096,0.189-0.162,0.306-0.195,0.348C448.497,123.833,449.284,124.599,449.879,125.303z M445.823,131.805l-0.626,0.158 c-0.156-1.05-0.354-1.876-0.595-2.479l0.583-0.228C445.501,130.037,445.714,130.886,445.823,131.805z M449.334,129.37 c-0.143,0.768-0.36,1.463-0.651,2.087l-0.62-0.222c0.286-0.607,0.506-1.286,0.657-2.037L449.334,129.37z M455.406,127.245h-2.523 v6.597h-0.69v-6.597h-2.435v-0.671h2.435v-4.08h0.69v4.08h2.523V127.245z"/>
<path fill="#808080" d="M465.95,132.742c-1.709,0.299-3.726,0.548-6.047,0.746l-0.198-0.658c0.882-0.051,1.857-0.132,2.93-0.247 v-1.733h-2.512v-0.651h2.512v-1.474h-2.759v-0.639h1.696c-0.195-0.653-0.414-1.231-0.658-1.733h-1.05v-0.607h1.892v-3.238h0.656 v3.238h1.146v-3.238h0.659v3.238h1.657v0.607h-0.981c-0.195,0.591-0.42,1.168-0.676,1.733h1.543v0.639h-2.474v1.474h2.188v0.651 h-2.188v1.645c0.835-0.093,1.722-0.232,2.664-0.417V132.742z M461.224,124.955l-0.581,0.271c-0.195-0.7-0.466-1.361-0.815-1.986 l0.542-0.272C460.724,123.58,461.009,124.242,461.224,124.955z M464.178,126.353h-2.524c0.225,0.519,0.432,1.097,0.62,1.733 h1.228C463.804,127.407,464.031,126.83,464.178,126.353z M466.341,123.152c-0.281,0.789-0.623,1.484-1.023,2.087l-0.544-0.342 c0.483-0.789,0.806-1.457,0.962-2.005L466.341,123.152z M470.964,125.992h-1.188v6.655c0,0.303-0.07,0.544-0.215,0.721 c-0.145,0.177-0.305,0.294-0.486,0.351c-0.183,0.057-0.551,0.085-1.107,0.085c-0.296,0-0.569-0.01-0.823-0.032l-0.259-0.67 c0.452,0.025,1.016,0.038,1.697,0.038c0.354,0,0.529-0.181,0.529-0.544v-6.604h-2.834v-0.651h2.834v-2.821h0.664v2.821h1.188 V125.992z M468.221,130.332l-0.633,0.31c-0.312-1.029-0.749-2.054-1.311-3.074l0.557-0.322 C467.314,128.046,467.776,129.075,468.221,130.332z"/>
<path fill="#808080" d="M480.639,127.232l-0.397,0.543c-0.564-0.641-1.204-1.219-1.917-1.733v3.416h-0.651v-3.454 c-0.64,1.033-1.318,1.875-2.031,2.523l-0.466-0.48c0.837-0.738,1.65-1.789,2.434-3.15h-2.29v-0.62h2.354v-1.841h0.651v1.841 h2.056v0.62h-2.056v0.392C479.184,125.851,479.958,126.499,480.639,127.232z M477.51,130.534 c-0.447,1.084-1.019,2.013-1.714,2.79l-0.521-0.443c0.625-0.717,1.17-1.599,1.639-2.644L477.51,130.534z M483.879,131.919 c0,0.417-0.073,0.786-0.223,1.106c-0.146,0.32-0.356,0.518-0.625,0.592c-0.271,0.073-0.847,0.11-1.733,0.11 c-1.309,0-2.092-0.068-2.355-0.203s-0.396-0.388-0.396-0.759v-2.929h0.656v2.783c0,0.194,0.071,0.321,0.213,0.38 s0.744,0.088,1.812,0.088c0.925,0,1.452-0.027,1.584-0.083c0.135-0.054,0.239-0.236,0.317-0.543s0.117-0.574,0.117-0.797 L483.879,131.919z M482.245,131.692l-0.557,0.386c-0.327-0.62-0.764-1.267-1.309-1.942l0.521-0.405 C481.442,130.347,481.892,131,482.245,131.692z M485.99,129.395h-4.919v-6.331h4.919V129.395z M485.346,124.93v-1.247h-3.63 v1.247H485.346z M485.346,126.859v-1.335h-3.63v1.335H485.346z M485.346,128.788v-1.322h-3.63v1.322H485.346z M486.301,132.995 l-0.569,0.379c-0.405-0.852-0.979-1.779-1.721-2.783l0.557-0.38C485.331,131.274,485.91,132.202,486.301,132.995z"/>
<path fill="#808080" d="M495.763,131.147c-1.595,0.94-2.99,1.634-4.189,2.081l-0.371-0.632c0.13-0.144,0.195-0.32,0.195-0.532 v-5.054h3.042v-3.473h-3.547v-0.671h4.23v4.808h-3.054v4.586c0.942-0.371,2.104-0.963,3.483-1.777L495.763,131.147z M502.12,133.241l-0.413,0.651c-1.416-0.687-2.492-1.436-3.225-2.245c-0.882,0.801-1.997,1.533-3.348,2.194l-0.437-0.613 c1.325-0.616,2.434-1.313,3.327-2.093c-0.627-0.932-1.084-1.978-1.372-3.138l0.664-0.184c0.271,1.101,0.662,2.035,1.177,2.802 c0.975-1.185,1.531-2.956,1.67-5.313h-2.707c-0.371,1.113-0.845,2.098-1.424,2.954l-0.593-0.374 c1.027-1.458,1.662-3.287,1.904-5.483l0.656,0.132c-0.068,0.691-0.188,1.39-0.361,2.094h4.341v0.677h-1.113 c-0.186,2.631-0.83,4.587-1.931,5.87C499.713,132,500.774,132.689,502.12,133.241z"/>
<path fill="#808080" d="M517.563,129.775h-11.223v-0.639h3.137c-0.142-0.27-0.41-0.611-0.803-1.024l0.417-0.386h-2.656v-0.582 h5.193v-1.075h-4.561v-0.594h4.561v-0.962h-4.883v-0.607h10.443v0.607h-4.89v0.962h4.561v0.594H512.3v1.075h5.2v0.582h-2.732 l0.474,0.455c-0.127,0.19-0.354,0.508-0.684,0.955h3.006V129.775z M516.267,133.842h-0.646v-0.613h-7.331v0.613h-0.677v-3.175 h8.654V133.842z M515.62,132.608v-1.309h-7.331v1.309H515.62z M510.542,123.323l-0.62,0.297 c-0.241-0.312-0.557-0.616-0.949-0.912l0.62-0.322C510.015,122.686,510.33,122.999,510.542,123.323z M514.66,127.726h-5.402 c0.391,0.438,0.742,0.909,1.05,1.41h3.384C513.991,128.799,514.313,128.328,514.66,127.726z M514.893,122.684 c-0.332,0.4-0.696,0.717-1.087,0.949l-0.69-0.354c0.381-0.186,0.773-0.492,1.184-0.917L514.893,122.684z"/>
<path fill="#808080" d="M526.347,133.539h-0.651v-1.113h-2.796v1.373h-0.659v-9.185h1.204c0.324-0.578,0.632-1.32,0.923-2.227 l0.645,0.133c-0.151,0.456-0.444,1.153-0.879,2.094h2.214V133.539z M525.695,128.048v-2.783h-2.796v2.783H525.695z M525.695,131.768v-3.068h-2.796v3.068H525.695z M532.836,124.626c-0.049,1.94-0.145,3.743-0.281,5.408 c-0.137,1.666-0.275,2.646-0.415,2.942c-0.139,0.294-0.317,0.504-0.534,0.629c-0.218,0.124-0.628,0.187-1.235,0.187 c-0.267,0-0.613-0.007-1.045-0.02l-0.208-0.657c0.354,0.012,0.735,0.019,1.146,0.019c0.383,0,0.63-0.004,0.737-0.013 c0.107-0.008,0.22-0.062,0.337-0.161c0.119-0.1,0.202-0.215,0.254-0.348c0.051-0.133,0.117-0.63,0.202-1.49 c0.083-0.861,0.154-1.809,0.208-2.844c0.056-1.035,0.095-2.04,0.122-3.014h-3.379c-0.451,0.898-0.975,1.751-1.569,2.562 l-0.53-0.373c1.133-1.488,1.936-3.148,2.41-4.978l0.656,0.171c-0.21,0.691-0.447,1.351-0.708,1.979H532.836z M530.453,130.433 l-0.545,0.386c-0.417-0.961-1.045-1.967-1.879-3.017l0.557-0.361C529.361,128.377,529.984,129.375,530.453,130.433z"/>
<path fill="#808080" d="M541.761,132.868c0,0.249-0.073,0.464-0.217,0.646c-0.142,0.181-0.469,0.272-0.979,0.272 c-0.259,0-0.549-0.017-0.874-0.051l-0.22-0.67c0.361,0.038,0.706,0.057,1.03,0.057c0.269,0,0.444-0.026,0.522-0.079 s0.117-0.159,0.117-0.319v-3.365h-2.227c-0.153,1.859-0.469,3.344-0.949,4.454l-0.581-0.437c0.649-1.467,0.974-3.388,0.974-5.762 v-4.82h3.403V132.868z M541.141,128.725v-2.385h-2.126l-0.039,2.385H541.141z M541.141,125.689v-2.252h-2.126v2.252H541.141z M548.768,133.298l-0.398,0.582c-0.915-0.502-1.652-1.029-2.214-1.582c-0.464,0.472-1.099,0.976-1.904,1.512l-0.505-0.475 c0.852-0.527,1.504-1.029,1.955-1.505c-0.806-0.987-1.411-2.343-1.816-4.068h-0.361v6.048h-0.645v-11.007h5.554 c-0.098,1.354-0.21,2.233-0.337,2.638c-0.129,0.404-0.358,0.661-0.688,0.768c-0.327,0.107-0.93,0.146-1.809,0.117l-0.22-0.677 c0.244,0.021,0.49,0.032,0.74,0.032c0.517,0,0.863-0.029,1.039-0.085c0.176-0.057,0.293-0.2,0.354-0.43 c0.061-0.23,0.127-0.807,0.192-1.73h-4.182v3.682h4.702c-0.186,1.986-0.728,3.544-1.621,4.674 C547.153,132.341,547.874,132.843,548.768,133.298z M547.479,127.763h-2.93c0.359,1.493,0.891,2.667,1.594,3.523 C546.849,130.367,547.293,129.193,547.479,127.763z"/>
<path fill="#808080" d="M557.893,126.663c-0.059,1.105-0.396,2.099-1.013,2.98l-0.493-0.468c0.371-0.561,0.632-1.183,0.778-1.866 h-1.208v5.687c0,0.168-0.068,0.344-0.205,0.528c-0.137,0.184-0.486,0.275-1.047,0.275c-0.215,0-0.413-0.013-0.594-0.038 l-0.381-0.696c0.549,0.042,0.977,0.063,1.284,0.063c0.063,0,0.132-0.032,0.202-0.095c0.071-0.063,0.107-0.126,0.107-0.19v-4.674 c-0.627,1.585-1.283,2.823-1.967,3.713l-0.442-0.519c0.759-0.987,1.445-2.339,2.063-4.055h-2.012v-0.646h2.863 c-0.54-0.62-1.203-1.202-1.992-1.746l0.474-0.43c0.31,0.211,0.698,0.512,1.172,0.905c0.598-0.684,1.071-1.335,1.423-1.955h-3.486 v-0.645h4.227v0.645c-0.428,0.784-0.981,1.58-1.663,2.385l0.442,0.493l-0.398,0.348H557.893z M563.459,129.629 c-0.024,0.881-0.096,1.676-0.207,2.385c-0.115,0.708-0.23,1.136-0.348,1.284c-0.114,0.147-0.261,0.275-0.434,0.382 c-0.176,0.107-0.732,0.146-1.668,0.117l-0.31-0.696c0.266,0.021,0.554,0.032,0.866,0.032c0.471,0,0.754-0.023,0.845-0.069 s0.161-0.115,0.212-0.206c0.049-0.091,0.11-0.377,0.176-0.858c0.068-0.48,0.13-1.056,0.184-1.727h-2.163 c-0.361,1.666-1.433,2.855-3.213,3.567l-0.493-0.531c0.713-0.219,1.357-0.613,1.937-1.18c0.576-0.567,0.944-1.186,1.105-1.857 h-2.056v-0.645h2.215c0.063-0.342,0.1-0.774,0.114-1.297l0.649,0.026c0,0.316-0.034,0.74-0.107,1.271H563.459z M564.226,128.061 l-0.374,0.582c-0.996-0.295-1.926-0.757-2.79-1.385c-0.811,0.599-1.638,1.052-2.485,1.36l-0.456-0.557 c0.815-0.245,1.618-0.654,2.409-1.228c-0.529-0.531-0.918-1.012-1.162-1.442l0.569-0.323c0.295,0.51,0.661,0.959,1.101,1.347 c0.591-0.506,1.047-1.202,1.372-2.087h-2.771c-0.552,0.7-1.058,1.231-1.519,1.593l-0.498-0.461 c0.959-0.759,1.772-1.775,2.434-3.049l0.645,0.247c-0.153,0.321-0.356,0.662-0.605,1.024h3.933v0.646h-0.915 c-0.339,1.003-0.85,1.834-1.53,2.492C562.377,127.382,563.259,127.795,564.226,128.061z"/>
<path fill="#808080" d="M573.944,129.333c-0.312-0.165-0.467-0.374-0.467-0.626c0-0.123,0.052-0.248,0.156-0.376 c0.107-0.129,0.257-0.193,0.449-0.193c0.405,0,0.608,0.266,0.608,0.797c0,0.435-0.254,0.854-0.765,1.259l-0.273-0.209 C573.849,129.727,573.944,129.509,573.944,129.333z"/>
<path fill="#808080" d="M391.133,143.904l-0.53,0.468c-0.312-0.603-0.608-1.105-0.887-1.505v6.49h-0.67v-6.446 c-0.545,1.214-1.104,2.185-1.683,2.91l-0.456-0.557c0.734-0.877,1.435-2.188,2.101-3.935h-1.727v-0.638h1.765v-2.708h0.67v2.708 h1.399v0.638h-1.399v0.374C390.272,142.449,390.745,143.182,391.133,143.904z M398.369,148.844l-0.386,0.569 c-1.404-0.679-2.5-1.423-3.288-2.233c-0.941,0.923-2.128,1.664-3.562,2.22l-0.392-0.569c1.568-0.615,2.739-1.336,3.511-2.163 c-0.611-0.814-1.151-1.881-1.62-3.201l0.595-0.272c0.523,1.379,1.012,2.353,1.469,2.922c0.606-0.869,1.102-1.851,1.485-2.948 l0.613,0.323c-0.435,1.164-0.979,2.222-1.638,3.176C395.797,147.38,396.867,148.105,398.369,148.844z M398.034,140.095h-6.736 v-0.67h3.1c-0.102-0.409-0.278-0.816-0.531-1.221l0.645-0.247c0.168,0.282,0.391,0.772,0.664,1.468h2.859V140.095z M394.125,140.962c-0.699,1.109-1.461,2.039-2.284,2.79l-0.518-0.494c0.729-0.619,1.463-1.514,2.201-2.682L394.125,140.962z M398.293,143.284l-0.543,0.43c-0.549-0.831-1.291-1.7-2.228-2.606l0.519-0.443C396.885,141.462,397.636,142.334,398.293,143.284 z"/>
<path fill="#808080" d="M413.813,140.823h-7.059c0,0.679-0.021,1.43-0.063,2.252h5.541c-0.008,1.265-0.084,2.438-0.228,3.521 c-0.143,1.082-0.282,1.758-0.418,2.03c-0.134,0.272-0.324,0.467-0.572,0.585c-0.246,0.118-0.787,0.177-1.622,0.177 c-0.287,0-0.567-0.004-0.841-0.012l-0.203-0.728c0.405,0.025,0.809,0.038,1.209,0.038c0.623,0,1.001-0.034,1.129-0.102 c0.128-0.067,0.23-0.182,0.307-0.345c0.075-0.162,0.176-0.72,0.3-1.673c0.125-0.953,0.2-1.892,0.225-2.815h-4.896 c-0.164,2.256-1.377,4.116-3.637,5.579l-0.557-0.544c0.784-0.443,1.493-1.036,2.128-1.781c0.635-0.744,1.041-1.537,1.218-2.378 c0.177-0.841,0.267-2.109,0.267-3.805h-3.417v-0.702h5.415c-0.346-0.675-0.761-1.293-1.246-1.854l0.657-0.31 c0.486,0.556,0.942,1.278,1.373,2.164h4.99V140.823z"/>
<path fill="#808080" d="M420.991,143.049l-0.418,0.531c-0.633-0.543-1.478-1.109-2.537-1.695l0.431-0.531 C419.352,141.814,420.194,142.379,420.991,143.049z M421.351,145.111c-0.919,1.742-1.863,3.167-2.834,4.276l-0.468-0.543 c0.975-1.13,1.885-2.518,2.733-4.163L421.351,145.111z M421.647,139.659l-0.424,0.557c-0.678-0.573-1.539-1.122-2.58-1.644 l0.43-0.55C420.153,138.59,421.012,139.136,421.647,139.659z M429.447,148.8l-0.397,0.626c-1.455-0.456-2.679-1.004-3.67-1.645 c-1.159,0.696-2.511,1.216-4.055,1.562l-0.348-0.62c1.628-0.358,2.893-0.807,3.795-1.347c-1.151-0.945-1.945-1.929-2.384-2.954 h-0.519v-0.646h6.623v0.569c-0.507,1.181-1.351,2.195-2.53,3.042C427.097,148.042,428.259,148.513,429.447,148.8z M428.79,139.318c-0.038,1.434-0.166,2.399-0.386,2.896c-0.22,0.498-0.632,0.746-1.234,0.746c-0.771,0-1.319-0.003-1.645-0.012 l-0.271-0.689c0.384,0.017,0.729,0.025,1.037,0.025c0.67,0,1.064-0.021,1.183-0.062c0.118-0.042,0.215-0.121,0.288-0.234 s0.14-0.338,0.196-0.674s0.101-0.779,0.13-1.331h-4.055c-0.443,1.13-1.073,2.165-1.892,3.105l-0.569-0.449 c1.168-1.345,1.938-2.902,2.31-4.668l0.682,0.133c-0.032,0.186-0.14,0.59-0.322,1.215H428.79z M427.677,144.422h-4.549 c0.443,0.911,1.189,1.767,2.24,2.568C426.493,146.185,427.263,145.329,427.677,144.422z"/>
<path fill="#808080" d="M444.93,140.171h-6.413c-0.317,0.54-0.635,1.025-0.956,1.455h6.37v6.749c0,0.379-0.12,0.64-0.36,0.781 c-0.24,0.142-0.809,0.211-1.701,0.211c-0.342,0-0.677-0.012-1.006-0.038l-0.322-0.67c0.392,0.033,0.812,0.05,1.258,0.05 c0.708,0,1.129-0.03,1.263-0.091c0.133-0.061,0.198-0.172,0.198-0.332v-1.689h-6.375c-0.229,1.143-0.707,2.085-1.437,2.828 l-0.645-0.38c1.07-0.953,1.606-2.627,1.606-5.022c0-0.253-0.006-0.574-0.02-0.962c-0.839,0.831-1.619,1.487-2.34,1.967 l-0.52-0.512c1.806-1.21,3.198-2.659,4.182-4.346h-4.055v-0.67h4.447c0.249-0.447,0.499-0.957,0.752-1.531l0.695,0.196 c-0.247,0.553-0.467,0.997-0.657,1.335h6.034V140.171z M443.26,145.965v-1.556h-6.205c0,0.667-0.021,1.185-0.062,1.556H443.26z M443.26,143.739v-1.48h-6.166v1.48H443.26z"/>
<path fill="#808080" d="M454.219,142.233h-3.82v7.046h-0.664v-10.93h4.484V142.233z M453.543,139.944v-0.974h-3.145v0.974 H453.543z M453.543,141.614v-1.062h-3.145v1.062H453.543z M458.57,145.965h-2.049v3.043h-0.671v-3.043h-1.967 c-0.054,1.202-0.59,2.237-1.606,3.106l-0.652-0.373c1.009-0.843,1.539-1.755,1.595-2.733h-2.1v-0.645h2.15v-1.493h-1.708v-0.619 h6.503v0.619h-1.544v1.493h2.049V145.965z M455.851,145.32v-1.493h-1.903v1.493H455.851z M459.905,148.325 c0,0.359-0.103,0.603-0.308,0.734c-0.202,0.131-0.568,0.196-1.097,0.196c-0.219,0-0.459-0.004-0.72-0.013l-0.261-0.683 c0.215,0.034,0.69,0.051,1.423,0.051c0.19,0,0.286-0.095,0.286-0.285v-6.091h-3.784v-3.884h4.46V148.325z M459.229,139.944 v-0.974h-3.094v0.974H459.229z M459.229,141.614v-1.062h-3.094v1.062H459.229z"/>
<path fill="#808080" d="M470.112,140.64h-3.264c0,0.557-0.008,1.179-0.024,1.866h2.592c0,1.568-0.039,2.935-0.117,4.096 c-0.078,1.162-0.168,1.844-0.271,2.046c-0.103,0.202-0.249,0.354-0.439,0.456c-0.19,0.101-0.547,0.152-1.069,0.152 c-0.156,0-0.371-0.004-0.645-0.013l-0.222-0.683c0.312,0.025,0.612,0.038,0.905,0.038c0.391,0,0.635-0.039,0.732-0.117 s0.164-0.183,0.203-0.313c0.039-0.13,0.092-0.785,0.16-1.964c0.071-1.178,0.094-2.19,0.074-3.033h-1.943 c-0.078,2.315-0.586,4.377-1.517,6.187l-0.571-0.437c0.41-0.775,0.735-1.585,0.975-2.428c0.241-0.843,0.386-1.772,0.437-2.787 c0.052-1.015,0.083-2.036,0.096-3.064h-1.455v-0.645h2.505c-0.156-0.515-0.408-1.094-0.752-1.74l0.645-0.247 c0.266,0.49,0.542,1.151,0.83,1.987h2.136V140.64z M476.047,148.749l-0.425,0.594c-1.177-0.611-2.119-1.322-2.827-2.132 c-0.625,0.726-1.494,1.436-2.607,2.132l-0.461-0.513c1.188-0.712,2.075-1.444,2.656-2.194c-0.525-0.852-0.921-1.836-1.182-2.954 l0.664-0.177c0.22,0.983,0.537,1.828,0.954,2.537c0.786-1.252,1.235-3.049,1.348-5.39h-2.227c-0.358,1.24-0.871,2.41-1.542,3.511 l-0.569-0.386c1.021-1.569,1.694-3.525,2.023-5.87l0.657,0.171c-0.13,0.801-0.264,1.444-0.398,1.929h3.86v0.645h-1.113 c-0.166,2.526-0.711,4.525-1.634,5.997C473.892,147.488,474.831,148.188,476.047,148.749z"/>
<path fill="#808080" d="M485.463,144.175l-0.532,0.443c-0.349-0.691-0.815-1.4-1.396-2.125v6.851h-0.671v-6.579 c-0.662,1.248-1.399,2.29-2.215,3.125l-0.441-0.588c0.986-0.923,1.867-2.222,2.644-3.896h-2.321v-0.645h2.334v-2.695h0.671v2.695 h1.917v0.645h-1.917v0.089C484.364,142.468,485.007,143.362,485.463,144.175z M491.073,149.343h-0.669v-1.1h-3.82v1.1h-0.691 v-10.88h5.181V149.343z M490.404,141.494v-2.366h-3.82v2.366H490.404z M490.404,144.498v-2.354h-3.82v2.354H490.404z M490.404,147.585v-2.436h-3.82v2.436H490.404z"/>
<path fill="#808080" d="M500.882,141.74h-3.82v7.603h-0.664V138.35h4.484V141.74z M500.235,139.722v-0.765h-3.174v0.765H500.235z M500.235,141.133v-0.803h-3.174v0.803H500.235z M501.28,145.238l-0.525,0.259l-0.183-0.36l-2.671,0.348l-0.171-0.532 c0.415-0.223,0.954-0.628,1.621-1.214l-1.475,0.203l-0.171-0.513c0.686-0.447,1.255-0.961,1.701-1.543l0.62,0.285 c-0.383,0.421-0.786,0.797-1.208,1.126l1.157-0.171c0.207-0.156,0.417-0.363,0.632-0.62l0.596,0.272 c-0.991,0.966-1.763,1.653-2.316,2.062l1.423-0.196c-0.093-0.168-0.178-0.302-0.259-0.399l0.532-0.233 C500.851,144.391,501.082,144.8,501.28,145.238z M500.867,146.421c0,0.847-0.171,1.469-0.515,1.866 c-0.342,0.396-0.908,0.685-1.697,0.866l-0.417-0.556c1.138-0.232,1.779-0.668,1.929-1.31h-2.005v-1.531h0.618v0.949h1.423 c0.022-0.11,0.032-0.261,0.032-0.455v-0.583h0.632V146.421z M505.442,145.2l-0.506,0.323c-0.132-0.203-0.222-0.339-0.273-0.412 l-3.041,0.272l-0.135-0.506c0.41-0.203,0.915-0.574,1.519-1.113l-1.479,0.139l-0.151-0.475c0.687-0.405,1.235-0.911,1.643-1.518 l0.608,0.272c-0.303,0.367-0.669,0.734-1.101,1.101l1.127-0.114c0.105-0.088,0.291-0.266,0.557-0.531l0.542,0.259 c-0.534,0.577-1.22,1.193-2.056,1.847l1.582-0.139c-0.07-0.135-0.189-0.278-0.354-0.43l0.532-0.297 C504.793,144.249,505.122,144.689,505.442,145.2z M504.563,147.288h-2.114v1.784h-0.625v-3.403h0.625v1.038h1.499v-0.949h0.615 V147.288z M506.543,148.584c0,0.236-0.075,0.424-0.229,0.563c-0.151,0.139-0.322,0.208-0.51,0.208 c-0.677,0-1.084-0.008-1.229-0.025l-0.285-0.67c0.278,0.025,0.554,0.038,0.83,0.038c0.373,0,0.598-0.02,0.669-0.061 c0.073-0.04,0.107-0.115,0.107-0.225v-6.673h-3.853v-3.391h4.499V148.584z M505.896,139.722v-0.765h-3.162v0.765H505.896z M505.896,141.133v-0.803h-3.162v0.803H505.896z"/>
<path fill="#808080" d="M525.134,148.686h-1.196l-1.062-2.783h-4.198l-0.994,2.783h-1.201l3.77-9.798h1.094L525.134,148.686z M522.509,144.916l-1.569-4.232c-0.041-0.118-0.09-0.333-0.145-0.645h-0.031c-0.047,0.287-0.1,0.501-0.158,0.645l-1.551,4.232 H522.509z"/>
<path fill="#808080" d="M530.26,144.966v3.719h-1.074v-9.798h2.645c1.025,0,1.826,0.255,2.404,0.766 c0.576,0.51,0.867,1.227,0.867,2.151c0,0.961-0.342,1.737-1.021,2.328c-0.679,0.59-1.517,0.869-2.51,0.835H530.26z M530.26,139.88v4.08h1.229c0.806,0,1.421-0.183,1.843-0.547c0.425-0.365,0.638-0.885,0.638-1.559 c0-1.316-0.776-1.974-2.329-1.974H530.26z"/>
<path fill="#808080" d="M541.607,139.83h-0.97v7.914h0.97v0.942h-3.013v-0.942h0.969v-7.914h-0.969v-0.942h3.013V139.83z"/>
<path fill="#808080" d="M557.104,146.965c-1.746,0.456-3.662,0.869-5.749,1.24l-0.159-0.658c2.054-0.35,4.001-0.765,5.845-1.246 L557.104,146.965z M562.468,146.636c-0.049,0.396-0.169,0.888-0.354,1.477s-0.365,0.941-0.541,1.057 c-0.179,0.116-0.352,0.174-0.521,0.174c-0.388,0-0.811-0.258-1.271-0.775c-0.459-0.517-0.786-1.022-0.979-1.515 c-0.776,0.826-1.613,1.543-2.512,2.15l-0.469-0.506c1.135-0.772,2.041-1.571,2.72-2.397c-0.467-2.079-0.708-4.052-0.721-5.92 h-6.488v-0.633h6.444c-0.024-0.443-0.039-1.012-0.039-1.708h0.664c0,0.784,0.015,1.354,0.039,1.708h3.885v0.633h-3.833 c0.078,1.961,0.278,3.688,0.593,5.18c0.677-0.97,1.289-2.269,1.841-3.896l0.62,0.221c-0.539,1.708-1.281,3.224-2.227,4.548 c0.203,0.633,0.491,1.164,0.867,1.594c0.376,0.431,0.654,0.646,0.835,0.646c0.07,0,0.142-0.036,0.21-0.107 c0.065-0.072,0.168-0.335,0.305-0.791c0.137-0.456,0.252-0.977,0.34-1.562L562.468,146.636z M556.447,145.459h-4.333v-3.536 h4.333V145.459z M555.771,144.801v-2.22h-2.969v2.22H555.771z M561.545,139.128l-0.529,0.423 c-0.415-0.426-0.806-0.744-1.177-0.955l0.466-0.468C560.703,138.364,561.115,138.698,561.545,139.128z"/>
<path fill="#808080" d="M578.165,148.502l-0.227,0.639h-4.277c-1.108,0-2.009-0.145-2.7-0.433s-1.32-0.766-1.885-1.433 c-0.43,0.649-1.052,1.322-1.867,2.018l-0.506-0.493c1.372-1.038,2.295-2.354,2.771-3.948l0.664,0.165 c-0.152,0.573-0.386,1.128-0.703,1.664c0.856,1.058,1.804,1.636,2.841,1.732v-4.118h-5.485v-0.651h11.286v0.651h-5.129v1.658 h4.414v0.645h-4.414v1.866c0.383,0.026,0.811,0.038,1.281,0.038H578.165z M576.444,142.625h-7.964v-4.301h7.964V142.625z M575.731,140.108v-1.151h-6.555v1.151H575.731z M575.731,141.987v-1.202h-6.555v1.202H575.731z"/>
<path fill="#808080" d="M594.349,148.686h-1.05v-1.202h-0.027c-0.518,0.911-1.323,1.366-2.414,1.366 c-0.887,0-1.592-0.315-2.114-0.945s-0.784-1.481-0.784-2.552c0-1.147,0.293-2.072,0.879-2.774s1.36-1.053,2.322-1.053 s1.665,0.381,2.111,1.145h0.027v-4.339h1.05V148.686z M593.299,144.473c0-0.573-0.195-1.059-0.586-1.455 c-0.391-0.397-0.867-0.595-1.434-0.595c-0.7,0-1.25,0.259-1.647,0.775c-0.398,0.516-0.599,1.216-0.599,2.097 c0,0.806,0.193,1.45,0.574,1.933c0.381,0.482,0.896,0.724,1.54,0.724c0.62,0,1.133-0.227,1.541-0.68 c0.405-0.454,0.61-1.032,0.61-1.736V144.473z"/>
<path fill="#808080" d="M599.399,142.189c0.686-0.443,1.472-0.664,2.358-0.664c1.623,0,2.436,0.862,2.436,2.587v4.573h-1.057 v-1.101h-0.039c-0.483,0.844-1.201,1.265-2.15,1.265c-0.691,0-1.235-0.184-1.634-0.553c-0.4-0.37-0.598-0.858-0.598-1.465 c0-1.294,0.767-2.051,2.302-2.271l2.112-0.304c0-1.215-0.483-1.822-1.455-1.822c-0.848,0-1.606,0.289-2.275,0.867V142.189z M601.416,145.365c-0.599,0.08-1.016,0.225-1.25,0.433c-0.232,0.209-0.35,0.531-0.35,0.964c0,0.351,0.125,0.635,0.376,0.854 c0.252,0.22,0.579,0.329,0.984,0.329c0.559,0,1.025-0.2,1.396-0.601c0.371-0.401,0.557-0.9,0.557-1.5v-0.708L601.416,145.365z"/>
<path fill="#808080" d="M612.099,148.616c-0.259,0.148-0.598,0.222-1.021,0.222c-1.201,0-1.802-0.677-1.802-2.031v-4.206h-1.216 v-0.911h1.216v-1.721l1.05-0.342v2.062h1.772v0.911h-1.772v4.017c0,0.477,0.081,0.816,0.239,1.019 c0.161,0.202,0.43,0.303,0.806,0.303c0.291,0,0.532-0.078,0.728-0.234V148.616z"/>
<path fill="#808080" d="M616.371,142.189c0.686-0.443,1.472-0.664,2.358-0.664c1.623,0,2.437,0.862,2.437,2.587v4.573h-1.058 v-1.101h-0.039c-0.483,0.844-1.201,1.265-2.15,1.265c-0.691,0-1.235-0.184-1.634-0.553c-0.4-0.37-0.598-0.858-0.598-1.465 c0-1.294,0.767-2.051,2.302-2.271l2.112-0.304c0-1.215-0.483-1.822-1.455-1.822c-0.848,0-1.606,0.289-2.275,0.867V142.189z M618.388,145.365c-0.599,0.08-1.016,0.225-1.25,0.433c-0.232,0.209-0.35,0.531-0.35,0.964c0,0.351,0.125,0.635,0.376,0.854 c0.252,0.22,0.579,0.329,0.984,0.329c0.559,0,1.025-0.2,1.396-0.601c0.371-0.401,0.557-0.9,0.557-1.5v-0.708L618.388,145.365z"/>
<path fill="#808080" d="M631.067,144.878c-0.312-0.165-0.466-0.374-0.466-0.626c0-0.123,0.051-0.248,0.156-0.376 c0.107-0.129,0.256-0.193,0.448-0.193c0.405,0,0.608,0.266,0.608,0.797c0,0.435-0.254,0.854-0.765,1.259l-0.272-0.209 C630.973,145.272,631.067,145.055,631.067,144.878z"/>
<path fill="#808080" d="M447.968,162.251c-0.755,0.354-1.976,0.862-3.663,1.524l-0.183-0.67c0.885-0.325,1.474-0.546,1.765-0.664 v-4.789h-1.657v-0.639h1.657v-3.289h0.658v3.289h1.138v0.639h-1.138v4.491c0.202-0.063,0.65-0.249,1.347-0.557L447.968,162.251z M454.938,159.259h-6.748v-3.916h6.748V159.259z M454.489,164.889h-0.664v-0.582h-4.479v0.582h-0.677v-4.776h5.819V164.889z M451.225,158.607v-2.631h-2.371v2.631H451.225z M450.693,154.711l-0.519,0.411c-0.357-0.54-0.682-0.953-0.974-1.24l0.544-0.379 C450.091,153.84,450.407,154.243,450.693,154.711z M453.825,161.833v-1.075h-4.479v1.075H453.825z M453.825,163.661v-1.195 h-4.479v1.195H453.825z M450.574,157.962l-0.582,0.234c-0.131-0.541-0.325-1.042-0.582-1.506l0.532-0.272 C450.224,156.976,450.436,157.49,450.574,157.962z M454.28,158.607v-2.631h-2.41v2.631H454.28z M453.972,153.844 c-0.334,0.506-0.705,0.928-1.115,1.265l-0.543-0.398c0.514-0.464,0.877-0.867,1.088-1.208L453.972,153.844z M453.724,156.627 c-0.147,0.565-0.419,1.122-0.815,1.67l-0.519-0.271c0.304-0.459,0.571-1.013,0.803-1.658L453.724,156.627z"/>
<path fill="#808080" d="M465.342,155.514c0.024,1.864-0.012,3.691-0.114,5.481c-0.101,1.79-0.184,2.802-0.249,3.036 c-0.066,0.234-0.21,0.437-0.438,0.607c-0.225,0.171-0.632,0.256-1.218,0.256c-0.228,0-0.513-0.011-0.853-0.032l-0.171-0.683 c0.425,0.025,0.781,0.038,1.067,0.038c0.381,0,0.632-0.048,0.754-0.145s0.205-0.237,0.252-0.42 c0.046-0.184,0.112-1.181,0.195-2.993c0.08-1.811,0.112-3.302,0.09-4.475h-2.139c-0.017,3.47-0.814,6.382-2.396,8.735 l-0.518-0.519c1.442-2.151,2.188-4.89,2.238-8.217h-2.043v-0.671h2.067c0.044-0.7,0.071-1.349,0.083-1.948h0.684l-0.063,1.948 H465.342z M470.642,164.889h-0.7v-1.019h-2.683v1.019h-0.708v-10.165h4.091V164.889z M469.941,163.168v-7.762h-2.683v7.762 H469.941z"/>
<path fill="#808080" d="M480.253,157.778h-3.82v7.047h-0.664v-10.93h4.484V157.778z M479.577,155.489v-0.974h-3.145v0.974 H479.577z M479.577,157.159v-1.062h-3.145v1.062H479.577z M484.606,161.511h-2.051v3.043h-0.669v-3.043h-1.968 c-0.054,1.202-0.591,2.237-1.606,3.106l-0.652-0.373c1.009-0.843,1.538-1.755,1.595-2.733h-2.1v-0.645h2.15v-1.493h-1.708v-0.619 h6.503v0.619h-1.545v1.493h2.051V161.511z M481.887,160.866v-1.493h-1.904v1.493H481.887z M485.941,163.87 c0,0.359-0.103,0.603-0.308,0.733c-0.205,0.131-0.571,0.197-1.099,0.197c-0.217,0-0.459-0.004-0.72-0.013l-0.259-0.683 c0.215,0.034,0.688,0.051,1.423,0.051c0.19,0,0.283-0.095,0.283-0.285v-6.092h-3.781v-3.883h4.46V163.87z M485.263,155.489 v-0.974h-3.093v0.974H485.263z M485.263,157.159v-1.062h-3.093v1.062H485.263z"/>
<path fill="#808080" d="M496.097,154.502c-0.81,1.054-2.009,1.981-3.598,2.783h2.978v2.657h-2.592l-0.171,1.423h2.763 c0,1.038-0.039,1.767-0.119,2.188c-0.08,0.422-0.195,0.719-0.344,0.892c-0.152,0.173-0.318,0.286-0.501,0.338 s-0.698,0.079-1.545,0.079c-0.342,0-0.684-0.009-1.025-0.025l-0.159-0.67l2.176,0.038c0.322,0.012,0.544-0.136,0.668-0.446 c0.125-0.31,0.182-0.896,0.174-1.755h-2.81l0.273-2.694h2.561v-1.373h-2.485v-0.582c-0.427,0.203-0.835,0.374-1.228,0.513 l-0.391-0.583c0.698-0.202,1.421-0.521,2.163-0.955c-0.283-0.282-0.679-0.562-1.189-0.841l0.359-0.494 c0.571,0.329,1.04,0.66,1.411,0.993c0.793-0.51,1.382-1.005,1.765-1.486h-3.252v-0.645h4.118V154.502z M501.917,164.427 l-0.456,0.506c-0.732-0.594-1.507-1.148-2.322-1.663c-0.889,0.721-1.833,1.275-2.832,1.663l-0.469-0.506 c0.806-0.261,1.724-0.767,2.759-1.518l-2.126-1.271l0.378-0.462h-0.568v-0.664h4.727c-0.306,0.898-0.767,1.676-1.387,2.333 C500.286,163.221,501.053,163.748,501.917,164.427z M501.563,159.878h-1.411c-0.195,0-0.361-0.062-0.503-0.189 c-0.142-0.126-0.213-0.297-0.213-0.512v-1.24h-1.606c-0.063,0.953-0.464,1.691-1.201,2.214l-0.557-0.456 c0.771-0.506,1.155-1.31,1.15-2.41h2.866V159c0,0.152,0.095,0.228,0.285,0.228h1.189V159.878z M502.005,157.248l-0.31,0.582 c-2.227-0.771-3.882-2.131-4.966-4.08l0.615-0.259c0.261,0.456,0.549,0.866,0.864,1.234c0.402-0.338,0.769-0.705,1.101-1.101 l0.596,0.272c-0.352,0.451-0.769,0.888-1.26,1.309c0.347,0.363,0.638,0.616,0.874,0.759c0.53-0.388,0.994-0.789,1.385-1.202 l0.532,0.348c-0.447,0.489-0.896,0.9-1.348,1.234C500.67,156.701,501.31,157.003,502.005,157.248z M500.037,161.176h-3.098 c0.812,0.451,1.53,0.881,2.15,1.29C499.444,162.133,499.759,161.703,500.037,161.176z"/>
<path fill="#808080" d="M510.801,164.629h-0.651v-1.113h-2.796v1.373h-0.659v-9.185h1.204c0.324-0.578,0.632-1.32,0.923-2.227 l0.645,0.132c-0.151,0.456-0.444,1.154-0.879,2.094h2.214V164.629z M510.149,159.139v-2.783h-2.796v2.783H510.149z M510.149,162.858v-3.068h-2.796v3.068H510.149z M517.29,155.717c-0.049,1.939-0.145,3.743-0.281,5.408 c-0.137,1.666-0.275,2.646-0.415,2.941c-0.139,0.295-0.317,0.505-0.534,0.629c-0.218,0.124-0.628,0.187-1.235,0.187 c-0.267,0-0.613-0.007-1.045-0.02l-0.208-0.658c0.354,0.012,0.735,0.019,1.146,0.019c0.383,0,0.63-0.004,0.737-0.013 c0.107-0.009,0.22-0.062,0.337-0.161c0.119-0.1,0.202-0.215,0.254-0.348c0.051-0.133,0.117-0.63,0.202-1.49 c0.083-0.86,0.154-1.808,0.208-2.843c0.056-1.035,0.095-2.04,0.122-3.014h-3.379c-0.452,0.898-0.974,1.751-1.569,2.562 l-0.53-0.373c1.133-1.488,1.936-3.148,2.409-4.979l0.657,0.171c-0.21,0.692-0.447,1.352-0.708,1.98H517.29z M514.907,161.523 l-0.545,0.386c-0.417-0.961-1.045-1.967-1.88-3.017l0.557-0.361C513.815,159.468,514.438,160.465,514.907,161.523z"/>
<path fill="#808080" d="M527.214,164.035c0,0.24-0.073,0.439-0.223,0.597c-0.146,0.158-0.352,0.242-0.612,0.25 c-0.262,0.008-0.537,0.012-0.83,0.012c-0.239,0-0.464-0.006-0.669-0.019l-0.242-0.696c0.335,0.034,0.874,0.051,1.621,0.051 c0.071,0,0.137-0.034,0.195-0.102c0.059-0.067,0.088-0.141,0.088-0.221v-1.879h-2.941c-0.223,1.177-0.638,2.161-1.245,2.954 l-0.518-0.468c0.82-1.079,1.232-2.637,1.232-4.674v-2.865h4.144V164.035z M533.097,155.849H521.85v-0.645h11.247V155.849z M526.542,161.391v-1.588h-2.803c0,0.333-0.024,0.863-0.075,1.588H526.542z M526.542,159.126v-1.486h-2.803v1.486H526.542z M526.542,154.736l-0.651,0.272c-0.32-0.388-0.752-0.787-1.297-1.196l0.716-0.284 C525.803,153.924,526.215,154.327,526.542,154.736z M530.502,153.844c-0.273,0.363-0.696,0.747-1.265,1.151l-0.688-0.354 c0.467-0.291,0.92-0.662,1.359-1.113L530.502,153.844z M529.535,162.725h-0.652v-5.553h0.652V162.725z M532.096,163.946 c0,0.236-0.059,0.434-0.173,0.591c-0.117,0.158-0.259,0.256-0.43,0.294c-0.171,0.038-0.503,0.057-0.996,0.057 c-0.283,0-0.586-0.008-0.911-0.025l-0.246-0.708l1.777,0.062c0.215,0.013,0.322-0.111,0.322-0.373v-6.983h0.656V163.946z"/>
<path fill="#808080" d="M548.655,164.604h-11.21v-0.568h1.518v-5.479h3.018l0.322-0.917h-4.763v-0.588h4.973l0.247-0.854h-4.699 v-2.328h9.931v2.328h-4.528l-0.262,0.854h5.256v0.588h-5.463l-0.298,0.917h4.416v5.479h1.543V164.604z M541.141,155.666v-1.24 h-2.424v1.24H541.141z M546.453,159.904v-0.803h-6.812v0.803H546.453z M546.453,161.239v-0.804h-6.812v0.804H546.453z M546.453,162.649v-0.892h-6.812v0.892H546.453z M546.453,164.035v-0.842h-6.812v0.842H546.453z M544.251,155.666v-1.24h-2.434 v1.24H544.251z M547.319,155.666v-1.24h-2.397v1.24H547.319z"/>
<path fill="#808080" d="M564.211,162.352c-0.062,0.742-0.2,1.363-0.418,1.863c-0.215,0.5-0.476,0.75-0.783,0.75 c-0.33,0-0.721-0.278-1.177-0.835c-0.454-0.557-0.786-1.132-0.993-1.727c-0.977,0.991-2.005,1.834-3.079,2.53l-0.508-0.531 c1.436-0.928,2.534-1.845,3.304-2.752c-0.418-1.522-0.687-3.279-0.804-5.269h-4.79v1.758h3.462 c-0.015,1.071-0.065,2.026-0.156,2.862c-0.09,0.837-0.19,1.353-0.303,1.547c-0.112,0.194-0.269,0.347-0.471,0.459 c-0.203,0.111-0.584,0.167-1.146,0.167c-0.173,0-0.386-0.006-0.64-0.019l-0.215-0.702c0.301,0.046,0.594,0.069,0.879,0.069 c0.366,0,0.61-0.028,0.728-0.085s0.213-0.128,0.286-0.215c0.07-0.086,0.153-0.493,0.246-1.221s0.14-1.456,0.14-2.186h-2.795 c-0.081,2.375-0.589,4.431-1.52,6.167l-0.531-0.48c0.922-1.666,1.384-3.791,1.384-6.376v-2.41h5.391 c-0.034-0.945-0.052-1.67-0.052-2.176h0.679c0,0.662,0.02,1.388,0.062,2.176h3.573v0.664h-3.547 c0.066,1.666,0.283,3.216,0.645,4.649c0.726-0.991,1.309-2.187,1.753-3.587l0.684,0.222c-0.607,1.657-1.338,3.051-2.189,4.181 c0.236,0.67,0.537,1.228,0.898,1.673c0.363,0.445,0.603,0.667,0.723,0.667c0.129,0,0.261-0.244,0.393-0.733 c0.134-0.489,0.2-0.972,0.2-1.448L564.211,162.352z M563.51,155.122l-0.58,0.418c-0.377-0.456-0.872-0.909-1.487-1.36 l0.542-0.443C562.58,154.133,563.088,154.595,563.51,155.122z"/>
<path fill="#808080" d="M579.884,162.441l-0.474,0.543c-2.251-1.657-3.862-3.841-4.834-6.553v5.535h2.822v0.67h-2.822v2.322 h-0.713v-2.322h-2.891v-0.67h2.891v-5.535c-0.557,1.438-1.211,2.65-1.958,3.637c-0.749,0.987-1.757,1.946-3.026,2.878 l-0.444-0.569c2.37-1.725,3.93-3.707,4.675-5.946h-4.365v-0.671h5.119v-2.22h0.713v2.22h4.973v0.671h-4.218 C576.183,158.869,577.701,160.872,579.884,162.441z"/>
</g>
<polyline fill="none" stroke="#989898" stroke-miterlimit="10" stroke-dasharray="4" points="382.758,204.045 401.623,177.177 628.038,177.177"/>
</g>
<g id="conv3">
<g>
<path fill="#808080" d="M209.009,233.234c0,0.427-0.149,0.701-0.448,0.823c-0.24,0.068-0.55,0.107-0.928,0.117 c-0.377,0.011-0.874,0.016-1.489,0.016l-0.272-0.682c0.228,0.017,0.936,0.024,2.125,0.024c0.232,0,0.348-0.111,0.348-0.334 v-9.355h-8.717v10.373h-0.658v-11.02h10.039V233.234z M207.257,226.094h-6.528v-0.658h6.528V226.094z M206.523,231.564h-5.067 v-3.839h5.067V231.564z M205.821,230.876v-2.486h-3.663v2.486H205.821z"/>
<path fill="#808080" d="M225.099,232.065h-5.288v1.296c0,0.249-0.079,0.442-0.237,0.576c-0.159,0.134-0.348,0.203-0.566,0.203 l-1.538,0.012l-0.221-0.645c0.249,0.012,0.498,0.019,0.747,0.019c0.586,0,0.928-0.026,1.024-0.076 c0.098-0.05,0.146-0.153,0.146-0.31v-1.076h-5.313v-0.608h5.313v-0.518c0.818-0.288,1.519-0.567,2.101-0.842h-5.212v-0.606h6.597 v0.606c-0.881,0.447-1.828,0.863-2.84,1.248v0.112h5.288V232.065z M224.827,230.319h-0.676v-1.632h-9.362v1.632h-0.65v-2.238 h0.676l-0.05-4.669c0.847-0.102,1.654-0.309,2.422-0.62l0.298,0.519c-0.591,0.266-1.282,0.469-2.075,0.608v0.923h2.087v0.594 h-2.075l0.014,1h2.049v0.608h-2.024l0.012,1.038h7.945l0.012-1.038h-2.049v-0.608h2.062l0.013-1h-2.075v-0.594h2.101l0.024-0.936 h-2.239v-0.595h2.896l-0.113,4.771h0.777V230.319z M221.159,227.354l-0.425,0.417c-0.117-0.12-0.497-0.435-1.138-0.95 c-0.646,0.443-1.168,0.75-1.568,0.918l-0.323-0.532c0.232-0.093,0.702-0.349,1.411-0.771c-0.147-0.134-0.331-0.273-0.55-0.417 s-0.377-0.251-0.475-0.322l0.386-0.405c0.629,0.435,1.002,0.698,1.121,0.791c0.481-0.376,0.761-0.625,0.841-0.747l0.487,0.335 c-0.076,0.11-0.36,0.377-0.854,0.803C220.255,226.604,220.618,226.897,221.159,227.354z M221.121,224.879l-0.425,0.374 c-0.325-0.312-0.691-0.609-1.1-0.893c-0.426,0.291-0.92,0.567-1.48,0.829l-0.284-0.519c0.383-0.164,0.812-0.398,1.284-0.702 c-0.3-0.265-0.611-0.502-0.936-0.709l0.43-0.378c0.515,0.375,0.843,0.622,0.987,0.74c0.392-0.312,0.693-0.601,0.905-0.867 l0.493,0.259c-0.165,0.242-0.478,0.57-0.937,0.988C220.214,224.089,220.568,224.382,221.121,224.879z"/>
<path fill="#808080" d="M240.188,227.7h-0.684v-2.068h-9.019v2.068h-0.671v-2.72h4.846v-2.068h0.684v2.068h4.845V227.7z M239.397,232.628c0,0.421-0.105,0.705-0.316,0.851c-0.211,0.146-0.617,0.219-1.22,0.219c-0.22,0-0.429-0.009-0.626-0.026 l-0.26-0.657c0.962,0,1.494-0.02,1.598-0.059c0.104-0.037,0.155-0.139,0.155-0.303v-1.677h-3.359v3.296h-0.67v-3.296h-3.372 v2.727h-0.67v-3.372h4.042v-1.062h-2.917v-2.758h6.502v2.758h-2.916v1.062h4.029V232.628z M232.73,224.412l-0.651,0.297 c-0.266-0.476-0.576-0.925-0.93-1.347l0.632-0.323C232.182,223.494,232.499,223.952,232.73,224.412z M237.588,228.611v-1.442 h-5.117v1.442H237.588z M238.962,223.424c-0.275,0.455-0.603,0.887-0.988,1.297l-0.557-0.386c0.405-0.469,0.715-0.88,0.93-1.234 L238.962,223.424z"/>
<path fill="#808080" d="M248.833,224.829h-3.928v-0.64h1.93c-0.115-0.295-0.308-0.674-0.583-1.138l0.595-0.273 c0.295,0.537,0.521,1.006,0.677,1.411h1.309V224.829z M248.675,226.682h-3.46v-0.664h3.46V226.682z M248.675,228.624h-3.46 v-0.677h3.46V228.624z M248.479,233.881h-0.658v-0.696h-1.79v1.018h-0.646v-4.27h3.093V233.881z M247.821,232.534v-1.968h-1.79 v1.968H247.821z M256.14,227.549h-7.047v-0.595h3.238v-0.948h-2.682v-0.596h2.682v-0.898h-2.954v-0.593h2.954v-1.025h0.658v1.025 h2.891v0.593h-2.891v0.898h2.594v0.596h-2.594v0.948h3.15V227.549z M255.349,233.186c0,0.325-0.1,0.582-0.3,0.774 c-0.2,0.191-0.857,0.269-1.97,0.23l-0.228-0.658h1.436c0.089,0,0.176-0.038,0.26-0.113c0.084-0.076,0.126-0.158,0.126-0.247 v-1.063h-4.181c-0.194,0.861-0.498,1.577-0.911,2.151l-0.487-0.442c0.586-0.798,0.879-1.938,0.879-3.423v-2.031h5.377V233.186z M254.671,231.496v-0.981h-4.08c0.012,0.321-0.005,0.648-0.051,0.981H254.671z M254.671,229.921v-0.937h-4.067v0.937H254.671z"/>
<path fill="#808080" d="M263.885,223.088c-0.134,0.338-0.327,0.773-0.575,1.304l-0.374,0.771v9.084h-0.671v-7.761 c-0.467,0.796-0.96,1.514-1.479,2.151l-0.361-0.703c1-1.206,1.941-2.908,2.822-5.105L263.885,223.088z M271.424,224.5 c-0.165,0.962-0.489,2.056-0.974,3.284l-0.62-0.272c0.33-0.73,0.588-1.502,0.779-2.321h-4.77 c-0.527,1.07-1.157,2.035-1.891,2.892l-0.43-0.583c1.129-1.353,1.969-2.888,2.517-4.604l0.696,0.171 c-0.127,0.376-0.316,0.854-0.569,1.436H271.424z M266.345,228.328c-0.646,1.901-1.357,3.369-2.138,4.401l-0.557-0.392 c0.802-1.134,1.48-2.545,2.037-4.232L266.345,228.328z M268.065,233.09c0,0.404-0.102,0.701-0.307,0.889 c-0.204,0.188-0.628,0.281-1.274,0.281c-0.228,0-0.455-0.01-0.684-0.032l-0.272-0.708c0.448,0.038,0.848,0.056,1.202,0.056 c0.452,0,0.678-0.157,0.678-0.474v-6.876h0.657V233.09z M271.836,232.445l-0.658,0.296c-0.548-1.441-1.223-2.876-2.024-4.301 l0.601-0.297C270.56,229.569,271.253,231.003,271.836,232.445z"/>
<path fill="#808080" d="M157.42,239.09h-3.03v4.959h-0.702v-5.624h3.731V239.09z"/>
<path fill="#808080" d="M169.962,242.834c-1.606,0.194-3.672,0.339-6.192,0.436l-0.063-0.543c1.122-0.017,2.07-0.063,2.847-0.139 v-0.777h-2.177v-0.493h2.177v-0.671h-2.759v-0.493h2.759v-0.64h-2.177v-0.474h2.177v-0.582h0.65v0.582h2.164v0.474h-2.164v0.64 h2.379v0.493h-2.379v0.671h2.164v0.493h-2.164v0.728c0.396-0.01,0.889-0.046,1.477-0.115c0.588-0.067,1.016-0.112,1.282-0.132 V242.834z M174.104,248.299c0,0.295-0.062,0.52-0.187,0.671s-0.297,0.237-0.515,0.256c-0.22,0.019-0.757,0.02-1.614,0.002 l-0.195-0.594c0.232,0.025,0.508,0.038,0.829,0.038c0.488,0,0.789-0.028,0.898-0.085c0.109-0.056,0.164-0.149,0.164-0.276v-0.828 h-3.928v2.278h-0.62v-2.278h-3.871v1.777h-0.652v-2.283h4.522v-0.633h-3.561v-2.581h3.188l0.386-0.519l0.658,0.095l-0.298,0.423 h3.864v2.581h-3.618v0.633h4.548V248.299z M172.524,244.777v-0.493h-6.516v0.493H172.524z M172.524,245.827v-0.557h-6.516v0.557 H172.524z M174.896,240.229h-1.165v2.202c0,0.315-0.1,0.537-0.3,0.667s-0.549,0.193-1.046,0.193c-0.187,0-0.376-0.006-0.57-0.02 l-0.221-0.607c0.252,0.017,0.482,0.026,0.689,0.026c0.375,0,0.602-0.023,0.68-0.07s0.117-0.118,0.117-0.216v-2.175H170v-0.569 h3.081v-1.221h0.65v1.221h1.165V240.229z M171.89,241.785l-0.493,0.386c-0.342-0.402-0.742-0.763-1.201-1.088l0.461-0.374 C171.003,240.912,171.415,241.271,171.89,241.785z"/>
<path fill="#808080" d="M190.49,247.11c-0.11,0.536-0.272,1.079-0.489,1.628c-0.217,0.552-0.417,0.874-0.595,0.972 c-0.179,0.098-0.364,0.146-0.554,0.146c-0.333,0-0.702-0.253-1.107-0.756c-0.404-0.504-0.742-1.096-1.012-1.775 c-0.717,0.603-1.624,1.139-2.72,1.606l-0.469-0.569c1.249-0.488,2.229-1.058,2.942-1.708c-0.312-1.295-0.493-2.638-0.544-4.029 h-3.08v2.278c0.627-0.081,1.453-0.283,2.473-0.608v0.715c-0.826,0.232-1.651,0.43-2.473,0.594v3.314 c0,0.225-0.083,0.417-0.247,0.579c-0.165,0.164-0.403,0.247-0.715,0.25h-1.708l-0.197-0.696c0.54,0.025,1.153,0.038,1.841,0.038 c0.232,0,0.348-0.107,0.348-0.322v-3.005c-1.113,0.215-2.049,0.374-2.809,0.475l-0.171-0.682 c0.612-0.043,1.605-0.199,2.979-0.469v-2.461h-3.055v-0.671h3.055v-2.024c-1.349,0.215-2.207,0.336-2.574,0.361l-0.247-0.646 c2.264-0.224,4.131-0.59,5.598-1.1l0.203,0.607c-0.696,0.232-1.463,0.438-2.302,0.62v2.181h3.055 c-0.009-0.374-0.014-0.793-0.014-1.257c0-0.848,0.014-1.614,0.038-2.297h0.677c-0.034,0.603-0.051,1.306-0.051,2.107 c0,0.519,0.009,1.001,0.026,1.448h3.858v0.671h-3.821c0.026,1.172,0.163,2.313,0.412,3.423c0.599-0.613,1.191-1.51,1.777-2.695 l0.583,0.361c-0.742,1.37-1.451,2.402-2.125,3.098c0.206,0.63,0.486,1.181,0.837,1.655c0.353,0.474,0.609,0.71,0.769,0.71 c0.093,0,0.173-0.051,0.241-0.157c0.067-0.105,0.189-0.39,0.364-0.851c0.174-0.461,0.306-0.941,0.396-1.439L190.49,247.11z M189.82,241.007l-0.557,0.398c-0.452-0.776-1.009-1.47-1.676-2.081l0.519-0.417C188.802,239.552,189.374,240.252,189.82,241.007 z"/>
<path fill="#808080" d="M198.2,239.337c0,0.066-0.123,0.532-0.367,1.394s-0.456,1.55-0.632,2.065 c0.653,1.046,0.98,2.064,0.98,3.055c0,1.122-0.525,1.637-1.574,1.544l-0.222-0.691c0.177,0.014,0.325,0.02,0.443,0.02 c0.501,0,0.753-0.234,0.753-0.702c0-1.07-0.35-2.118-1.049-3.138c0.497-1.521,0.838-2.708,1.024-3.561h-1.714v10.45h-0.608 v-11.044h2.967V239.337z M206.05,248.919l-0.234,0.69c-0.266,0.013-0.538,0.018-0.816,0.018c-0.894,0-1.864-0.066-2.909-0.201 c-1.046-0.136-1.927-0.531-2.644-1.19c-0.457,0.68-0.832,1.191-1.127,1.538l-0.505-0.374c1.235-1.479,1.964-2.948,2.189-4.401 h-1.399v-0.627c0.431-0.717,0.826-1.592,1.19-2.625h-1.487v-0.596h2.151v0.596c-0.448,1.167-0.825,2.043-1.133,2.625h1.348 c0,0.95-0.31,2.048-0.93,3.295c0.447,0.443,1.04,0.771,1.777,0.984C202.258,248.863,203.769,248.954,206.05,248.919z M200.375,240.127l-0.493,0.399c-0.337-0.637-0.738-1.231-1.201-1.785l0.505-0.366 C199.701,238.932,200.097,239.516,200.375,240.127z M205.986,239.817h-2.992c-0.098,0.211-0.229,0.452-0.393,0.721h2.904v0.569 h-1.397v0.829h1.765v0.544h-4.277v-0.487c-0.076,0.081-0.201,0.2-0.378,0.36l-0.399-0.479c0.531-0.532,1.014-1.218,1.449-2.057 h-1.297v-0.557h1.556c0.118-0.248,0.237-0.54,0.354-0.873l0.596,0.234l-0.234,0.639h2.745V239.817z M205.531,247.275 c0,0.606-0.332,0.911-0.994,0.911c-0.397,0-0.626-0.004-0.69-0.014l-0.195-0.613c0.299,0.017,0.526,0.026,0.683,0.026 c0.376,0,0.564-0.125,0.564-0.374v-1.088c-0.495,0.207-1.335,0.491-2.524,0.854l-0.285-0.399c-0.22,0.611-0.44,1.064-0.664,1.36 l-0.519-0.272c0.569-0.881,0.853-2.121,0.853-3.719v-0.765h3.771V247.275z M203.476,241.937v-0.829h-1.208 c-0.168,0.258-0.38,0.535-0.632,0.829H203.476z M204.899,245.492v-1.765h-2.512v0.531c0.933,0.199,1.629,0.392,2.095,0.583 l-0.203,0.544c-0.548-0.208-1.183-0.393-1.904-0.557c-0.043,0.657-0.116,1.189-0.222,1.594 C202.988,246.19,203.903,245.88,204.899,245.492z"/>
<path fill="#808080" d="M213.308,238.507c-0.118,0.417-0.295,0.977-0.531,1.677l-0.354,1.044v8.533h-0.671v-7.111 c-0.417,0.776-0.797,1.39-1.138,1.841l-0.431-0.593c1.003-1.35,1.824-3.191,2.461-5.522L213.308,238.507z M221.664,249.078 l-0.208,0.684c-2.003-0.203-3.614-0.652-4.833-1.348c-0.675,0.746-1.759,1.213-3.252,1.404l-0.354-0.652 c1.383-0.113,2.391-0.498,3.023-1.151c-0.826-0.619-1.428-1.189-1.803-1.708l0.531-0.405c0.351,0.536,0.911,1.066,1.684,1.594 c0.252-0.455,0.417-1.094,0.493-1.916h-3.125v-4.91h3.175v-1.257h-3.415v-0.646h7.837v0.646h-3.758v1.257h3.182v4.91h-3.251 c-0.055,0.969-0.244,1.725-0.569,2.265C218.227,248.511,219.774,248.922,221.664,249.078z M216.983,242.785v-1.467h-2.473v1.467 H216.983z M216.971,243.429h-2.461v1.487h2.448C216.966,244.684,216.971,244.188,216.971,243.429z M220.171,244.916v-1.487 h-2.512c0,0.725-0.003,1.221-0.012,1.487H220.171z M220.171,242.785v-1.467h-2.512v1.467H220.171z"/>
<path fill="#808080" d="M237.039,244.582h-11.247v-0.508h5.313v-0.732h-4.402v-0.507h4.402v-0.741h-4.13v-0.493h4.13v-0.72 h-5.263v-0.493h5.263v-0.715h-4.143v-0.493h4.143v-0.708h0.632v0.708h3.992v1.208h1.272v0.493h-1.272v1.213h-3.992v0.741h4.397 v0.507h-4.397v0.732h5.301V244.582z M237.039,249.623h-11.247v-0.506h11.247V249.623z M235.666,248.299h-8.54v-3.004h8.54 V248.299z M231.093,246.566v-0.778h-3.315v0.778H231.093z M231.093,247.806v-0.777h-3.315v0.777H231.093z M235.06,240.387v-0.715 h-3.322v0.715H235.06z M235.06,241.601v-0.72h-3.322v0.72H235.06z M235.014,246.566v-0.778h-3.276v0.778H235.014z M235.014,247.806v-0.777h-3.276v0.777H235.014z"/>
<path fill="#808080" d="M244.008,238.546c-0.051,0.265-0.177,0.735-0.38,1.41l-0.304,1.012v8.825h-0.664v-7.167 c-0.452,0.916-0.789,1.516-1.012,1.803l-0.386-0.626c0.835-1.333,1.539-3.137,2.113-5.415L244.008,238.546z M252.224,249.793 h-0.676v-0.874h-6.244v0.874h-0.676v-10.925h7.596V249.793z M251.536,248.287v-8.754h-6.231v8.754H251.536z M250.965,242.157 h-2.271v1.494h1.569v3.522h-3.688v-3.522h1.473v-1.494h-2.163V241.5h2.151v-1.272h0.658v1.272h2.271V242.157z M249.593,246.498 v-2.202h-2.359v2.202H249.593z"/>
<path fill="#808080" d="M257.167,249.103v-10.354h1.05v10.354H257.167z"/>
<path fill="#808080" d="M262.637,245.695c0-1.165,0.317-2.08,0.952-2.749s1.498-1.003,2.59-1.003 c1.029,0,1.836,0.322,2.419,0.968c0.584,0.646,0.876,1.537,0.876,2.676c0,1.104-0.316,1.996-0.948,2.669 c-0.632,0.675-1.47,1.012-2.511,1.012c-1.008,0-1.823-0.325-2.445-0.974C262.948,247.644,262.637,246.778,262.637,245.695z M263.712,245.649c0,0.826,0.216,1.487,0.648,1.98c0.434,0.494,1.01,0.741,1.731,0.741c0.734,0,1.301-0.242,1.704-0.723 c0.403-0.479,0.604-1.154,0.604-2.023c0-0.889-0.199-1.576-0.597-2.058c-0.399-0.483-0.969-0.725-1.711-0.725 c-0.726,0-1.303,0.25-1.733,0.75C263.927,244.091,263.712,244.777,263.712,245.649z"/>
<path fill="#808080" d="M279.788,248.553c0,2.563-1.214,3.845-3.644,3.845c-0.859,0-1.617-0.166-2.271-0.5v-1.075 c0.789,0.439,1.543,0.658,2.265,0.658c1.733,0,2.6-0.93,2.6-2.789v-0.779h-0.025c-0.548,0.903-1.354,1.354-2.416,1.354 c-0.878,0-1.58-0.314-2.107-0.942c-0.527-0.629-0.791-1.459-0.791-2.491c0-1.194,0.289-2.141,0.867-2.842 c0.579-0.699,1.356-1.05,2.334-1.05c0.949,0,1.654,0.382,2.113,1.145h0.025v-0.98h1.05V248.553z M278.738,244.89 c0-0.569-0.196-1.053-0.588-1.451c-0.392-0.398-0.864-0.598-1.417-0.598c-0.699,0-1.251,0.257-1.654,0.771 c-0.403,0.515-0.604,1.23-0.604,2.145c0,0.792,0.194,1.427,0.583,1.9c0.388,0.475,0.892,0.713,1.512,0.713 c0.627,0,1.146-0.227,1.555-0.681c0.409-0.453,0.614-1.031,0.614-1.735V244.89z"/>
<path fill="#808080" d="M284.201,245.695c0-1.165,0.317-2.08,0.952-2.749s1.498-1.003,2.59-1.003 c1.029,0,1.836,0.322,2.419,0.968c0.585,0.646,0.876,1.537,0.876,2.676c0,1.104-0.316,1.996-0.948,2.669 c-0.632,0.675-1.47,1.012-2.511,1.012c-1.008,0-1.824-0.325-2.445-0.974C284.512,247.644,284.201,246.778,284.201,245.695z M285.276,245.649c0,0.826,0.216,1.487,0.648,1.98c0.433,0.494,1.009,0.741,1.731,0.741c0.733,0,1.301-0.242,1.704-0.723 c0.402-0.479,0.604-1.154,0.604-2.023c0-0.889-0.199-1.576-0.597-2.058c-0.399-0.483-0.969-0.725-1.711-0.725 c-0.727,0-1.304,0.25-1.733,0.75C285.491,244.091,285.276,244.777,285.276,245.649z"/>
<path fill="#808080" d="M297.052,249.166h3.031v-4.958h0.702v5.622h-3.732V249.166z"/>
<path fill="#808080" d="M317.587,244.89l-0.455,0.495c-0.629-0.688-1.325-1.306-2.087-1.854l0.481-0.506
C316.385,243.669,317.074,244.291,317.587,244.89z"/>
<path fill="#808080" d="M160.935,254.635h-3.029v4.96h-0.702v-5.625h3.731V254.635z"/>
<path fill="#808080" d="M178.475,264.794l-0.463,0.582c-1.392-0.89-2.503-1.92-3.336-3.09c-0.833-1.169-1.454-2.62-1.863-4.348 c-0.523,3.032-2.289,5.499-5.295,7.401l-0.443-0.588c0.764-0.485,1.5-1.067,2.208-1.747c0.708-0.678,1.295-1.394,1.759-2.146 c0.464-0.754,0.821-1.787,1.075-3.103h-4.808v-0.671h4.934c0.135-1.062,0.208-2.111,0.222-3.149h0.74 c-0.043,1.13-0.125,2.18-0.247,3.149h5.307v0.671h-4.802c0.464,1.851,1.104,3.301,1.917,4.348 C176.194,263.149,177.226,264.048,178.475,264.794z"/>
<path fill="#808080" d="M186.327,259.48l-0.455,0.469c-0.207-0.439-0.504-0.928-0.893-1.467v6.856h-0.664v-6.375 c-0.4,1.201-0.797,2.146-1.189,2.833l-0.456-0.57c0.662-1.172,1.198-2.622,1.606-4.352h-1.524v-0.632h1.562v-2.271h0.664v2.271 h1.038v0.632h-1.038v0.606C185.575,258.19,186.023,258.856,186.327,259.48z M190.046,262.991l-0.543,0.322 c-0.093-0.252-0.167-0.43-0.222-0.53c-0.864,0.505-1.729,0.932-2.593,1.283l-0.298-0.569c0.156-0.124,0.234-0.282,0.234-0.481 v-8.565h2.928v5.598h-2.284v3.056c0.443-0.165,1.019-0.454,1.727-0.866c-0.16-0.342-0.35-0.684-0.568-1.025l0.524-0.334 C189.428,261.663,189.793,262.367,190.046,262.991z M188.915,256.888v-1.785h-1.646v1.785H188.915z M188.915,259.405v-1.865 h-1.646v1.865H188.915z M193.981,259.234h-1.544c-0.122,0.569-0.255,1.101-0.398,1.594h0.348v3.459c0,0.173,0.13,0.26,0.392,0.26 c0.354,0,0.531-0.16,0.531-0.481l0.051-1.966l0.606,0.227c0,1.333-0.076,2.138-0.227,2.417c-0.152,0.278-0.471,0.417-0.956,0.417 c-0.696,0-1.043-0.304-1.043-0.911v-2.556c-0.607,1.311-1.411,2.534-2.41,3.669l-0.443-0.493 c1.548-1.785,2.507-3.663,2.878-5.637h-1.568l0.467-4.301h-0.569V254.3h3.688v0.632h-0.791c-0.102,1.337-0.247,2.556-0.436,3.657 h1.423V259.234z M192.324,254.933h-1l-0.374,3.657h0.942C192.096,257.518,192.24,256.299,192.324,254.933z"/>
<path fill="#808080" d="M209.009,261.176c-0.031,1.232-0.107,2.154-0.234,2.767c-0.127,0.614-0.312,0.993-0.554,1.135 c-0.242,0.144-0.712,0.215-1.408,0.215c-0.227,0-0.51-0.007-0.847-0.024l-0.272-0.671c0.376,0.031,0.762,0.045,1.158,0.045 c0.476,0,0.769-0.023,0.879-0.067s0.195-0.122,0.256-0.234c0.061-0.111,0.124-0.41,0.187-0.894 c0.062-0.485,0.108-1.04,0.139-1.665h-7.478c-0.641,0.491-1.401,0.923-2.283,1.297l-0.425-0.582 c1.463-0.51,2.573-1.228,3.327-2.151h-1.537v-3.225c1.379-0.283,2.462-0.602,3.252-0.956l0.309,0.594 c-0.978,0.366-1.946,0.644-2.902,0.829v0.646h2.809v0.606h-2.809v0.897h6.565v-0.897h-2.771v-0.606h2.771v-0.854h-2.992v-0.62 h3.668v3.586h-5.509c-0.165,0.22-0.414,0.496-0.747,0.829H209.009z M209.021,257.292h-0.658v-1.557h-9.007v1.557h-0.671v-2.189 h4.872c-0.084-0.282-0.246-0.598-0.481-0.948l0.626-0.26c0.265,0.431,0.456,0.833,0.569,1.208h4.751V257.292z M201.183,262.82 c-0.527,0.957-1.067,1.727-1.619,2.309l-0.582-0.335c0.548-0.557,1.092-1.31,1.632-2.258L201.183,262.82z M202.922,264.883 l-0.65,0.127c-0.022-0.726-0.142-1.519-0.361-2.379l0.608-0.121C202.737,263.32,202.873,264.111,202.922,264.883z M205.099,264.44l-0.614,0.196c-0.201-0.874-0.433-1.56-0.696-2.062l0.596-0.203C204.722,263.113,204.96,263.804,205.099,264.44z M207.066,263.687l-0.594,0.26c-0.194-0.485-0.48-1.009-0.854-1.576l0.557-0.259C206.533,262.631,206.83,263.156,207.066,263.687 z"/>
<path fill="#808080" d="M216.431,254.091c-0.051,0.265-0.177,0.736-0.379,1.41l-0.304,1.013v8.824h-0.664v-7.167 c-0.452,0.914-0.789,1.516-1.012,1.802l-0.386-0.625c0.835-1.333,1.539-3.138,2.113-5.415L216.431,254.091z M224.647,265.338 h-0.676v-0.873h-6.244v0.873h-0.676v-10.923h7.596V265.338z M223.959,263.833v-8.754h-6.231v8.754H223.959z M223.389,257.703 h-2.27v1.493h1.568v3.524H219v-3.524h1.473v-1.493h-2.163v-0.658h2.151v-1.271h0.658v1.271h2.27V257.703z M222.017,262.042 v-2.201h-2.36v2.201H222.017z"/>
<path fill="#808080" d="M229.751,258.152c0.687-0.443,1.473-0.664,2.359-0.664c1.624,0,2.435,0.862,2.435,2.588v4.572h-1.057 v-1.101h-0.038c-0.485,0.845-1.201,1.265-2.151,1.265c-0.691,0-1.236-0.183-1.634-0.552c-0.399-0.37-0.598-0.858-0.598-1.464 c0-1.295,0.768-2.052,2.302-2.271l2.113-0.305c0-1.213-0.485-1.821-1.455-1.821c-0.847,0-1.606,0.288-2.276,0.867V258.152z M231.769,261.329c-0.6,0.079-1.016,0.225-1.25,0.432c-0.233,0.21-0.35,0.531-0.35,0.964c0,0.351,0.125,0.634,0.375,0.854 c0.252,0.22,0.579,0.33,0.984,0.33c0.561,0,1.027-0.2,1.398-0.6c0.371-0.402,0.557-0.901,0.557-1.5V261.1L231.769,261.329z"/>
<path fill="#808080" d="M240.324,263.623v4.246h-1.056v-10.217h1.056v1.24h0.032c0.553-0.935,1.36-1.404,2.423-1.404 c0.89,0,1.591,0.31,2.106,0.933c0.514,0.623,0.771,1.465,0.771,2.527c0,1.165-0.288,2.099-0.863,2.805 c-0.576,0.708-1.355,1.06-2.337,1.06c-0.911,0-1.611-0.396-2.101-1.189H240.324z M240.324,261.814 c0,0.586,0.197,1.084,0.588,1.49c0.393,0.406,0.875,0.61,1.449,0.61c0.687,0,1.228-0.266,1.622-0.797 c0.394-0.532,0.592-1.265,0.592-2.202c0-0.789-0.186-1.406-0.557-1.855s-0.865-0.674-1.48-0.674c-0.641,0-1.17,0.227-1.588,0.68 c-0.417,0.453-0.626,1.032-0.626,1.737V261.814z"/>
<path fill="#808080" d="M251.106,263.623v4.246h-1.056v-10.217h1.056v1.24h0.032c0.553-0.935,1.359-1.404,2.423-1.404 c0.89,0,1.592,0.31,2.107,0.933c0.514,0.623,0.771,1.465,0.771,2.527c0,1.165-0.288,2.099-0.863,2.805 c-0.576,0.708-1.355,1.06-2.337,1.06c-0.911,0-1.611-0.396-2.101-1.189H251.106z M251.106,261.814 c0,0.586,0.196,1.084,0.588,1.49c0.393,0.406,0.875,0.61,1.449,0.61c0.687,0,1.228-0.266,1.622-0.797 c0.395-0.532,0.592-1.265,0.592-2.202c0-0.789-0.186-1.406-0.557-1.855s-0.866-0.674-1.481-0.674c-0.641,0-1.17,0.227-1.588,0.68 c-0.417,0.453-0.626,1.032-0.626,1.737V261.814z"/>
<path fill="#808080" d="M266.5,256.097h-5.934v-0.632h2.721c-0.101-0.376-0.292-0.816-0.57-1.323l0.608-0.247 c0.278,0.54,0.504,1.063,0.676,1.569h2.486L266.5,256.097z M262.37,261.239c-0.278,1.337-0.675,2.452-1.189,3.346l-0.576-0.31 c0.536-1.008,0.922-2.075,1.159-3.2L262.37,261.239z M265.747,260.271h-1.809v4.155c0,0.312-0.097,0.544-0.291,0.693 c-0.194,0.149-0.612,0.208-1.252,0.173l-0.197-0.62c0.495,0.027,0.795,0.014,0.902-0.037c0.107-0.051,0.161-0.137,0.161-0.26 v-4.105h-1.955v-3.049h4.439V260.271z M265.077,259.632v-1.746h-3.081v1.746H265.077z M266.216,263.201l-0.594,0.309 c-0.136-0.646-0.403-1.361-0.803-2.149l0.543-0.298C265.737,261.732,266.022,262.445,266.216,263.201z M271.826,257.798h-2.966 c-0.177,3.082-1.096,5.613-2.757,7.59l-0.544-0.43c1.67-2.036,2.545-4.423,2.625-7.16h-1.771v-0.676h1.815 c0.08-1.001,0.127-2.04,0.139-3.12l0.676,0.013c-0.029,1.034-0.078,2.069-0.146,3.106h2.929V257.798z M271.877,262.188 c0,0.522-0.039,1.079-0.117,1.667s-0.158,0.923-0.241,1.002c-0.082,0.079-0.181,0.161-0.294,0.243 c-0.114,0.083-0.435,0.125-0.961,0.125c-0.435,0-0.728-0.095-0.88-0.282c-0.151-0.188-0.227-0.475-0.227-0.863v-4.523h0.664 v4.611c0,0.287,0.221,0.43,0.664,0.43c0.168,0,0.317-0.035,0.445-0.107c0.129-0.071,0.215-0.392,0.26-0.96 c0.044-0.57,0.066-1.099,0.066-1.588L271.877,262.188z M271.396,256.216l-0.519,0.425c-0.32-0.494-0.759-1.021-1.316-1.582 l0.463-0.437C270.584,255.129,271.042,255.66,271.396,256.216z"/>
<path fill="#808080" d="M281.216,256.824c-0.235,0.067-0.499,0.125-0.79,0.171c-0.098,2.222-0.46,3.945-1.089,5.168 c0.632,0.51,1.229,1.044,1.791,1.606l-0.532,0.518c-0.455-0.505-0.986-1.011-1.593-1.517c-0.519,0.78-1.315,1.617-2.385,2.511 l-0.506-0.487c1.109-0.873,1.887-1.681,2.335-2.423c-0.439-0.366-1.078-0.803-1.917-1.309c0.321-1.321,0.567-2.515,0.741-3.582 c-0.557,0.046-0.926,0.071-1.107,0.071V256.9c0.464-0.012,0.866-0.046,1.208-0.101c0.126-0.797,0.242-1.725,0.348-2.783h0.688 c-0.046,0.663-0.154,1.563-0.322,2.708c0.426-0.038,0.987-0.128,1.683-0.272c0.012-0.409,0.012-0.812,0-1.208h0.683 c0.021,0.457,0.025,0.811,0.013,1.063c0.189-0.026,0.441-0.087,0.752-0.185V256.824z M279.743,257.146 c-0.531,0.11-1.112,0.193-1.74,0.247c-0.232,1.345-0.464,2.455-0.696,3.328c0.531,0.33,1.022,0.67,1.474,1.025 C279.363,260.518,279.683,258.985,279.743,257.146z M287.422,259.937h-2.809v4.23c0,0.469-0.123,0.774-0.37,0.918 c-0.247,0.143-0.717,0.215-1.408,0.215c-0.304,0-0.601-0.011-0.892-0.032l-0.234-0.708c0.422,0.046,0.863,0.068,1.323,0.068 c0.354,0,0.584-0.024,0.692-0.072c0.107-0.049,0.161-0.134,0.161-0.256v-4.364h-3.093v-0.678h3.093v-1.518 c0.895-0.915,1.649-1.847,2.264-2.797h-5.11v-0.668h5.914v0.732c-0.514,0.857-1.294,1.858-2.34,3.005v1.246h2.809V259.937z"/>
<path fill="#808080" d="M293.536,264.712h3.031v-4.959h0.702v5.624h-3.733V264.712z"/>
<path fill="#808080" d="M312.65,260.84c-0.312-0.164-0.467-0.374-0.467-0.625c0-0.124,0.052-0.249,0.157-0.377 c0.106-0.128,0.255-0.193,0.449-0.193c0.405,0,0.608,0.265,0.608,0.797c0,0.435-0.255,0.854-0.765,1.258l-0.272-0.208 C312.554,261.236,312.65,261.019,312.65,260.84z"/>
<path fill="#808080" d="M162.852,271.477h-3.372v-0.638h1.594c-0.084-0.328-0.252-0.721-0.505-1.175l0.588-0.273 c0.202,0.388,0.396,0.872,0.581,1.449h1.113V271.477z M162.72,273.299h-2.979v-0.607h2.979V273.299z M162.72,275.261h-2.979 v-0.614h2.979V275.261z M162.543,280.541h-0.652v-0.695h-1.513v1.005h-0.638v-4.313h2.803V280.541z M161.891,279.221v-2.056 h-1.513v2.056H161.891z M170.689,277.373h-4.25c-0.426,0.515-0.863,0.911-1.31,1.189v1.53c0.476-0.104,1.078-0.278,1.803-0.517 v0.62c-0.957,0.32-1.782,0.554-2.473,0.701l-0.171-0.6c0.148-0.117,0.221-0.271,0.221-0.461v-0.898 c-0.43,0.244-0.9,0.461-1.41,0.652l-0.38-0.557c1.209-0.363,2.19-0.916,2.94-1.658h-2.612v-0.601h2.176v-0.696h-1.777v-0.582 h1.777v-0.678h-1.974v-0.543h1.974v-0.62h0.632v0.62h2.15v-0.62h0.645v0.62h1.816v0.543h-1.816v0.678h1.506v0.582h-1.506v0.696 h2.038V277.373z M170.57,271.009h-7.212v-0.582h3.239c-0.08-0.232-0.21-0.47-0.392-0.715l0.557-0.259 c0.177,0.304,0.342,0.628,0.493,0.974h3.315V271.009z M166.533,273.299h-2.815v-1.708h2.815V273.299z M165.946,272.756v-0.62 H164.3v0.62H165.946z M168.007,275.494v-0.678h-2.15v0.678H168.007z M168.007,276.772v-0.696h-2.15v0.696H168.007z M170.727,280.453l-0.31,0.544c-1.568-0.608-2.708-1.574-3.421-2.904l0.531-0.26c0.241,0.452,0.508,0.819,0.803,1.101 c0.354-0.303,0.701-0.684,1.038-1.138l0.481,0.347c-0.252,0.347-0.624,0.741-1.113,1.184 C169.295,279.799,169.959,280.175,170.727,280.453z M170.196,273.299h-2.866v-1.708h2.866V273.299z M169.602,272.756v-0.62h-1.67 v0.62H169.602z"/>
<path fill="#808080" d="M178.385,269.725c-0.134,0.338-0.327,0.773-0.575,1.303l-0.374,0.772v9.083h-0.671v-7.761 c-0.468,0.797-0.961,1.514-1.479,2.151l-0.361-0.703c1-1.206,1.941-2.908,2.822-5.104L178.385,269.725z M185.925,271.135 c-0.165,0.961-0.49,2.057-0.974,3.283l-0.62-0.271c0.33-0.73,0.588-1.504,0.779-2.321h-4.771c-0.527,1.07-1.157,2.033-1.891,2.89 l-0.43-0.582c1.129-1.354,1.969-2.889,2.517-4.605l0.696,0.171c-0.127,0.376-0.316,0.854-0.569,1.436H185.925z M180.846,274.963 c-0.646,1.902-1.357,3.369-2.139,4.402l-0.557-0.391c0.802-1.135,1.481-2.546,2.038-4.233L180.846,274.963z M182.566,279.726 c0,0.405-0.101,0.7-0.306,0.888c-0.204,0.188-0.629,0.281-1.274,0.281c-0.229,0-0.456-0.01-0.684-0.03l-0.272-0.709 c0.448,0.039,0.849,0.058,1.203,0.058c0.452,0,0.677-0.157,0.677-0.475v-6.875h0.657V279.726z M186.336,279.082l-0.658,0.296 c-0.548-1.441-1.223-2.876-2.024-4.301l0.601-0.297C185.061,276.206,185.754,277.639,186.336,279.082z"/>
<path fill="#808080" d="M201.792,278.992c-0.024,0.485-0.1,0.868-0.223,1.148c-0.125,0.28-0.309,0.454-0.55,0.525 c-0.243,0.068-0.851,0.104-1.825,0.104c-0.831,0-1.344-0.016-1.538-0.048c-0.194-0.032-0.349-0.132-0.467-0.3 c-0.119-0.168-0.177-0.369-0.177-0.6v-0.791h-1.474c-0.21,0.452-0.583,0.837-1.116,1.157c-0.534,0.321-1.726,0.546-3.578,0.677 l-0.215-0.583c1.265-0.08,2.24-0.205,2.922-0.376c0.684-0.17,1.107-0.463,1.272-0.876h-2.031v-3.928h6.812v3.928h-1.98v0.829 c0,0.135,0.06,0.228,0.178,0.282c0.117,0.052,0.607,0.078,1.467,0.078c0.81,0,1.322-0.034,1.537-0.104 c0.214-0.068,0.345-0.504,0.392-1.306L201.792,278.992z M201.508,276.253h-0.632v-1.771h-9.406v1.785h-0.613v-2.341h0.702 l-0.102-3.808c1.029-0.146,1.908-0.352,2.638-0.613l0.316,0.481c-0.662,0.249-1.432,0.452-2.31,0.606v0.652h2.049v0.519h-2.023 l0.013,0.751h2.01v0.532h-1.998l0.012,0.879h8.009l0.025-0.791h-2.019v-0.557h2.043l0.026-0.828h-2.069v-0.532h2.069l0.038-0.779 h-2.276v-0.569h2.916l-0.133,4.055h0.714V276.253z M198.953,276.203v-0.52h-5.542v0.52H198.953z M198.953,277.291v-0.557h-5.542 v0.557H198.953z M198.953,278.461v-0.652h-5.542v0.652H198.953z M197.864,273.317l-0.36,0.399 c-0.421-0.282-0.849-0.542-1.284-0.778c-0.574,0.282-1.047,0.5-1.423,0.652l-0.322-0.431c0.299-0.106,0.704-0.287,1.214-0.543 l-0.892-0.52l0.335-0.397c0.312,0.16,0.679,0.371,1.1,0.632c0.464-0.24,0.842-0.483,1.132-0.728l0.386,0.336 c-0.304,0.265-0.644,0.499-1.024,0.702C197.021,272.792,197.4,273.02,197.864,273.317z M197.776,269.763 c-0.275,0.257-0.616,0.513-1.025,0.765c0.312,0.211,0.571,0.409,0.779,0.595l-0.386,0.381c-0.257-0.216-0.562-0.437-0.912-0.666 c-0.396,0.211-0.862,0.434-1.398,0.666l-0.284-0.457c0.591-0.241,0.974-0.413,1.151-0.519c-0.359-0.235-0.672-0.414-0.942-0.531 l0.336-0.412c0.413,0.207,0.797,0.421,1.151,0.646c0.443-0.258,0.806-0.513,1.087-0.767L197.776,269.763z"/>
<path fill="#808080" d="M209.426,272.528c-0.177,0.443-0.506,1.036-0.987,1.783v6.49h-0.67v-5.541 c-0.473,0.574-0.913,1.042-1.322,1.41l-0.405-0.556c1.173-1.076,2.116-2.362,2.829-3.859L209.426,272.528z M209.305,269.763 c-0.742,1.304-1.658,2.292-2.745,2.966l-0.43-0.581c0.969-0.527,1.834-1.433,2.593-2.719L209.305,269.763z M217.364,277.265 h-1.594v2.606c0,0.346-0.107,0.596-0.322,0.75c-0.215,0.154-0.699,0.229-1.455,0.229c-0.244,0-0.493-0.007-0.746-0.024 l-0.234-0.671c0.261,0.029,0.557,0.044,0.885,0.044c0.587,0,0.934-0.029,1.041-0.088s0.161-0.163,0.161-0.316v-2.53h-5.769v-0.62 h5.769v-1.258h-5.522v-0.632h7.502v0.632h-1.31v1.258h1.594V277.265z M216.561,273.83h-6.293v-3.998h6.293V273.83z M212.595,279.575L212,279.948c-0.261-0.574-0.719-1.255-1.374-2.043l0.57-0.354C211.77,278.19,212.236,278.867,212.595,279.575z M215.877,271.49v-1.038h-4.94v1.038H215.877z M215.877,273.198v-1.101h-4.94v1.101H215.877z"/>
<path fill="#808080" d="M232.909,278.511h-2.732v1.266c0,0.725-0.403,1.087-1.208,1.087c-0.316,0-0.718-0.009-1.202-0.026 l-0.31-0.645c0.274,0.013,0.614,0.019,1.019,0.019c0.505,0,0.801-0.023,0.885-0.069c0.084-0.047,0.127-0.133,0.127-0.259v-1.374 h-7.838v-0.606h7.838v-0.652h0.689v0.652h2.732V278.511z M232.738,270.946h-5.098v0.892h4.092v3.523h-0.676 c0.615,0.536,1.143,1.116,1.581,1.741l-0.543,0.372c-0.237-0.345-0.443-0.604-0.62-0.777c-3.484,0.266-6.615,0.405-9.394,0.417 l-0.169-0.601c1.572,0.012,3.256-0.022,5.053-0.103v-1.05h-4.119v-3.523h4.119v-0.892h-5.143v-0.594h5.143v-0.803h0.677v0.803 h5.098V270.946z M226.963,273.286v-0.867h-3.447v0.867H226.963z M226.963,274.78v-0.918h-3.447v0.918H226.963z M226.122,279.984 l-0.431,0.52c-0.611-0.523-1.245-0.952-1.903-1.284l0.43-0.5C224.821,279.007,225.456,279.428,226.122,279.984z M231.068,273.286 v-0.867h-3.428v0.867H231.068z M231.068,274.78v-0.918h-3.428v0.918H231.068z M230.917,276.14c-0.241-0.24-0.4-0.393-0.481-0.457 l0.424-0.322h-3.219v1.013C228.998,276.302,230.09,276.224,230.917,276.14z"/>
<path fill="#808080" d="M248.455,277.601h-5.256v3.294h-0.689v-3.294h-5.326v-0.646h5.326v-1.062h-4.757v-0.608h4.757v-1.012 h-5.029v-0.632h3.385c-0.211-0.375-0.454-0.713-0.728-1.012l0.493-0.31h-3.447v-0.652h4.276v-2.094h0.664v2.094h1.461v-2.094 h0.646v2.094h4.199v0.652h-3.371l0.469,0.322c-0.148,0.325-0.363,0.658-0.646,1h3.277v0.632h-4.959v1.012h4.649v0.608h-4.649 v1.062h5.256V277.601z M241.358,278.587c-0.954,0.751-2.189,1.411-3.707,1.98l-0.43-0.569c1.632-0.582,2.846-1.2,3.644-1.854 L241.358,278.587z M240.137,271.047l-0.57,0.335c-0.316-0.417-0.739-0.852-1.271-1.302l0.588-0.405 C239.39,270.143,239.808,270.601,240.137,271.047z M244.894,272.319h-4.106c0.397,0.544,0.681,0.984,0.854,1.322h2.435 C244.491,273.105,244.763,272.665,244.894,272.319z M248.468,280.155l-0.387,0.532c-1.323-0.86-2.584-1.542-3.782-2.05 l0.386-0.518C246.144,278.752,247.405,279.431,248.468,280.155z M247.417,269.998c-0.357,0.505-0.794,0.955-1.309,1.348 l-0.594-0.336c0.577-0.493,1.009-0.929,1.296-1.31L247.417,269.998z"/>
<path fill="#808080" d="M264.184,277.316l-0.43,0.557c-1.936-1.541-3.605-2.669-5.009-3.391v6.44h-0.728v-7.294 c-1.223,1.46-2.867,2.871-4.934,4.233l-0.455-0.596c3.18-1.897,5.338-4.143,6.477-6.737h-6.218v-0.696h11.013v0.696h-4.004 c-0.312,0.67-0.696,1.376-1.151,2.113v1.038C261.16,275.079,262.974,276.291,264.184,277.316z"/>
<path fill="#808080" d="M279.583,280.207l-0.334,0.644c-1.991-0.337-3.771-0.922-5.339-1.757 c-1.366,0.776-3.146,1.35-5.339,1.721l-0.36-0.646c2.079-0.328,3.763-0.819,5.053-1.468c-1.024-0.762-1.856-1.621-2.499-2.573 h-0.455v-0.646h7.098v0.646c-1.089,1.282-2.017,2.139-2.783,2.573C275.838,279.338,277.492,279.841,279.583,280.207z M279.211,276.215h-0.666v-2.125h-9.297v2.113h-0.689v-2.747h10.652V276.215z M278.628,270.143 c-2.704,0.519-5.805,0.788-9.305,0.803l-0.31-0.689c0.574,0.017,1.117,0.025,1.632,0.025c2.69,0,5.238-0.25,7.641-0.753 L278.628,270.143z M271.373,272.976l-0.652,0.234c-0.13-0.388-0.458-0.957-0.98-1.706l0.62-0.26 C270.825,271.859,271.162,272.436,271.373,272.976z M276.516,276.127h-4.908c0.734,0.999,1.518,1.733,2.352,2.201 C274.732,277.911,275.583,277.177,276.516,276.127z M274.574,272.9l-0.626,0.222c-0.177-0.608-0.453-1.187-0.829-1.739 l0.652-0.26C274.188,271.848,274.455,272.441,274.574,272.9z M278.369,271.023c-0.337,0.775-0.761,1.488-1.271,2.137 l-0.632-0.285c0.467-0.549,0.885-1.235,1.252-2.062L278.369,271.023z"/>
<path fill="#808080" d="M295.129,278.461h-2.499v1.435c0,0.267-0.078,0.469-0.237,0.608s-0.352,0.222-0.579,0.251 c-0.228,0.031-0.594,0.045-1.101,0.045h-0.752l-0.248-0.658c0.417,0.034,0.791,0.051,1.121,0.051c0.557,0,0.88-0.033,0.97-0.099 c0.09-0.064,0.137-0.161,0.137-0.287v-1.348h-8.11v-0.614h8.11v-0.867h-7.098v-4.611h2.992c0.025-0.287,0.038-0.632,0.038-1.036 h-3.959v-0.634h11.006v0.634h-3.922v1.036h3.055v4.611h-1.423v0.867h2.499V278.461z M293.372,276.36v-1.903h-2.075 c-0.649,0-0.974-0.33-0.974-0.987v-0.481h-1.904c-0.244,0.978-1.073,1.658-2.485,2.037l-0.399-0.379v1.713H293.372z M287.71,272.989h-2.176v1.468C286.757,274.174,287.482,273.685,287.71,272.989z M288.393,279.909l-0.436,0.544 c-0.493-0.426-1.116-0.844-1.866-1.259l0.411-0.543C287.125,278.95,287.756,279.37,288.393,279.909z M287.672,270.232 l-0.557,0.36c-0.287-0.299-0.583-0.548-0.886-0.746l0.506-0.393C287.073,269.678,287.385,269.937,287.672,270.232z M292.682,275.71h-6.371v-0.544h6.371V275.71z M290.322,272.369v-1.036h-1.771c0,0.417-0.012,0.761-0.038,1.036H290.322z M293.372,273.83v-0.841h-2.373v0.531c0,0.208,0.112,0.31,0.335,0.31H293.372z M292.694,269.807 c-0.299,0.295-0.618,0.567-0.955,0.816l-0.602-0.379c0.359-0.249,0.675-0.517,0.95-0.803L292.694,269.807z"/>
<path fill="#808080" d="M310.624,280.555h-11.259v-0.606h5.3v-1.038h-4.687v-0.632h4.687v-1.051h-4.016v-3.795h4.016v-1.013 h-5.003v-0.606h5.003v-1.1c-1.214,0.059-2.578,0.088-4.093,0.088l-0.208-0.581c3.542,0.037,6.588-0.182,9.134-0.659l0.348,0.544 c-0.957,0.227-2.468,0.413-4.535,0.557v1.151h5.029v0.606h-5.029v1.038h4.042v3.771h-4.042v1.051h4.731v0.632h-4.731v1.038h5.313 V280.555z M304.665,275.026v-0.95h-3.339v0.95H304.665z M304.665,276.621v-1.013h-3.339v1.013H304.665z M308.682,275.026v-0.95 h-3.371v0.95H308.682z M308.682,276.621v-1.013h-3.371v1.013H308.682z"/>
</g>
<polyline fill="none" stroke="#989898" stroke-miterlimit="10" stroke-dasharray="4" points="154.029,289.796 317.55,289.796 341.516,257.723"/>
</g>
<g id="icon">
<circle fill="#E38A91" cx="315.001" cy="162.103" r="64.493"/>
<circle fill="#4D817D" cx="315.001" cy="162.103" r="55.653"/>
<g>
<defs>
<circle id="SVGID_1_" cx="315.001" cy="162.103" r="55.653"/>
</defs>
<clipPath id="SVGID_2_">
<use xlink:href="#SVGID_1_"  overflow="visible"/>
</clipPath>
<linearGradient id="SVGID_3_" gradientUnits="userSpaceOnUse" x1="318.8389" y1="188.0469" x2="400.835" y2="188.0469">
<stop  offset="0" style="stop-color:#2A4644"/>
<stop  offset="0.1087" style="stop-color:#304B49;stop-opacity:0.8913"/>
<stop  offset="0.2471" style="stop-color:#3F5957;stop-opacity:0.7529"/>
<stop  offset="0.4014" style="stop-color:#596F6E;stop-opacity:0.5986"/>
<stop  offset="0.5675" style="stop-color:#7E8F8E;stop-opacity:0.4325"/>
<stop  offset="0.7429" style="stop-color:#ADB7B7;stop-opacity:0.2571"/>
<stop  offset="0.9234" style="stop-color:#E5E8E8;stop-opacity:0.0766"/>
<stop  offset="1" style="stop-color:#FFFFFF;stop-opacity:0"/>
</linearGradient>
<polygon opacity="0.5" clip-path="url(#SVGID_2_)" fill="url(#SVGID_3_)" points="400.151,250.926 329.485,212.354 
318.839,151.896 330.168,125.167 400.835,162.489 		"/>
</g>
<g>
<path fill="#4D817D" d="M329.827,186.562c0,3.913-7.356,4.868-11.27,4.868l-2.584,2.424c-3.915,0-9.65-3.586-9.65-7.5
l2.864-18.384c0-3.913,4.597-9.648,8.511-9.648h2.284c3.914,0,5.662,5.735,5.662,9.648L329.827,186.562z"/>
<rect x="306.39" y="125.167" fill="#4D817D" width="23.437" height="26.729"/>
<g>
<path fill="#F2F0A2" d="M331.689,191.597c0-6.145-1.693-37.364-13.343-35.965c-5.074,0.615-9.424,5.423-12.387,13.904 c-2.218,6.353-3.705,14.652-3.892,22.204c0,0.028-0.021,0.054-0.017,0.081c-0.003,0.016-0.02,0.033-0.02,0.049 c-0.015,0.729-0.033,1.577-0.022,2.263c0.051,4.846-0.001,15.866-0.002,15.978c-0.001,0.471,0.183,1.116,0.515,1.453 c0.332,0.333,0.782,0.714,1.256,0.714h11.253c0.869,0,1.611-0.82,1.75-1.68l0.337-2.159l0.522,2.334 c0.19,0.796,0.907,1.504,1.726,1.504h10.135c0.977,0,2.188-1.182,2.188-2.16v-18.23V191.597z M309.206,170.705 c2.45-7.016,5.772-11.118,9.354-11.553c0.107-0.013,0.208-0.019,0.31-0.019c2.892,0,5.594,5.843,7.236,15.628 c1.042,6.22,1.433,12.52,1.56,15.344l-22.034-0.088C305.973,183.324,307.275,176.226,309.206,170.705z"/>
<path fill="#F2F0A2" d="M331.164,154.015h-26.588V122.91l28.526,1.253L331.164,154.015z M308.124,150.468h19.716l1.488-22.921
l-21.204-0.932V150.468z"/>
<circle fill="#F2F0A2" cx="314.549" cy="133.819" r="2.411"/>
<circle fill="#F2F0A2" cx="322.749" cy="134.302" r="2.894"/>
<path fill-rule="evenodd" clip-rule="evenodd" fill="#F2F0A2" d="M312.74,117.174c0.004-0.005,0.004-0.011,0-0.016 c-0.005-0.014-0.007-0.028-0.012-0.041c-0.166-0.327-0.33-0.654-0.5-0.978c-0.046-0.087-0.072-0.191-0.166-0.248 c-0.015-0.014-0.028-0.031-0.044-0.042c-0.235-0.157-0.472-0.313-0.707-0.47c-0.022-0.015-0.042-0.029-0.072-0.025 c-0.034-0.03-0.067-0.06-0.103-0.09c-0.005-0.02-0.02-0.031-0.038-0.036c-0.111-0.176-0.255-0.328-0.384-0.489 c-0.095-0.118-0.181-0.246-0.295-0.349c-0.005-0.005-0.011-0.011-0.016-0.016c-0.001,0.002-0.003,0.004-0.003,0.007 c-0.043,0.094-0.087,0.189-0.128,0.285c-0.107,0.253-0.226,0.501-0.325,0.759c-0.145,0.148-0.292,0.295-0.436,0.446 c-0.087,0.092-0.177,0.181-0.254,0.283c-0.019,0.004-0.029,0.017-0.037,0.035c-0.027,0.007-0.056,0.01-0.083,0.02 c-0.287,0.107-0.574,0.217-0.861,0.326c-0.015-0.002-0.03-0.004-0.045-0.007c-0.453,0-0.903-0.001-1.356-0.003 c-0.033,0-0.069,0.015-0.098-0.017c0.075-0.097,0.153-0.189,0.224-0.289c0.059-0.084,0.145-0.15,0.178-0.253 c0.005-0.013,0.011-0.025,0.016-0.039c0.062-0.292,0.126-0.583,0.187-0.876c0.05-0.231,0.099-0.464,0.145-0.696 c-0.003-0.015-0.001-0.029-0.007-0.042c-0.222-0.488-0.443-0.975-0.666-1.463c-0.01-0.02-0.015-0.046-0.043-0.051 c-0.002-0.001-0.005-0.003-0.009-0.003c-0.021-0.016-0.039-0.035-0.062-0.048c-0.41-0.249-0.818-0.498-1.231-0.743 c-0.054-0.033-0.103-0.091-0.18-0.074c-0.254-0.001-0.505-0.003-0.758-0.003c-0.269,0-0.536,0.003-0.802,0.004 c-0.431,0.186-0.852,0.39-1.274,0.592c-0.091,0.134-0.147,0.286-0.217,0.43c-0.129,0.263-0.253,0.527-0.378,0.79 c-0.015,0.01-0.016,0.024-0.015,0.038c0.046,0.292,0.095,0.583,0.142,0.874c0.029,0.043,0.057,0.087,0.088,0.127 c0.165,0.208,0.31,0.429,0.482,0.629c0.01,0.005,0.019,0.013,0.029,0.017c0.504,0.18,1.008,0.36,1.512,0.541 c0,0.004,0,0.009,0,0.013c-0.042,0.042-0.088,0.084-0.13,0.128c-0.153,0.157-0.317,0.302-0.46,0.47 c-0.068,0.153-0.139,0.305-0.206,0.459c-0.177,0.4-0.353,0.801-0.526,1.201c-0.003,0.023-0.005,0.046-0.005,0.07 c0,0.568,0,1.137,0,1.707c0,0.026,0.005,0.052,0.006,0.078c0.007,0.017,0.015,0.032,0.022,0.047 c0.267,0.497,0.54,0.991,0.799,1.491c0.089,0.169,0.199,0.312,0.348,0.428c0.037,0.028,0.069,0.061,0.105,0.091 c0.238,0.205,0.476,0.41,0.711,0.615c0.33,0.002,0.659,0.004,0.989,0.003c0.312,0,0.622-0.003,0.934-0.005 c0.029,0.002,0.057,0.005,0.086,0.005c1.071,0.001,2.143,0.001,3.215,0c0.021,0,0.039-0.001,0.06,0 c0.052,0.002,0.051-0.022,0.029-0.059c-0.045-0.074-0.09-0.148-0.132-0.225c-0.029-0.056-0.075-0.074-0.133-0.083 c-0.212-0.03-0.425-0.067-0.636-0.1c-0.247-0.037-0.493-0.073-0.74-0.11c0.001-0.01,0.002-0.021,0.003-0.032 c0.299-0.29,0.578-0.599,0.866-0.897c0.027-0.026,0.017-0.05,0.012-0.079c-0.094-0.386-0.183-0.772-0.278-1.158 c-0.048-0.193-0.08-0.39-0.146-0.579c-0.002-0.018-0.005-0.034-0.006-0.051c0.001-0.007,0.004-0.012,0.007-0.019 c0.051,0.008,0.087,0.043,0.127,0.069c0.363,0.236,0.724,0.475,1.085,0.712c0.024,0.017,0.046,0.045,0.083,0.041 c0.016,0.022,0.042,0.017,0.063,0.017c0.427,0,0.854,0,1.281-0.001c0.031-0.021,0.017-0.054,0.017-0.08 c0.001-0.119,0-0.239,0-0.357c0-0.198,0.001-0.204-0.195-0.234c-0.215-0.031-0.432-0.051-0.646-0.076 c-0.01-0.003-0.021-0.007-0.029-0.01c-0.008-0.019-0.018-0.037-0.039-0.045c-0.123-0.161-0.248-0.322-0.369-0.483 c-0.187-0.24-0.37-0.482-0.554-0.723c0.005-0.006,0.011-0.012,0.014-0.017c0.168-0.165,0.337-0.331,0.505-0.495 c0.024,0.022,0.051,0.046,0.077,0.069c0.17,0.144,0.322,0.308,0.502,0.439c0.414,0,0.827,0,1.242,0 c0.132-0.205,0.266-0.407,0.393-0.615c0.081-0.13,0.178-0.251,0.237-0.396v0.001C312.73,117.187,312.735,117.18,312.74,117.174z" />
<rect x="301.114" y="131.409" fill-rule="evenodd" clip-rule="evenodd" fill="#F2F0A2" width="4.293" height="7.875"/>
<rect x="330.955" y="133.259" transform="matrix(0.9983 0.0586 -0.0586 0.9983 8.6082 -19.2759)" fill-rule="evenodd" clip-rule="evenodd" fill="#F2F0A2" width="4.293" height="7.875"/>
<path fill="#F2F0A2" d="M311.249,147.258c0,0,5.334-11.901,18.578-6.324"/>
</g>
</g>
</g>
</svg>
